<svg width="23" height="23" viewBox="0 0 23 23" fill="none" xmlns="http://www.w3.org/2000/svg">
<path d="M10.9796 14.1148C14.2119 8.28909 17.1725 5.74084 19.6719 3.81207C20.1178 3.46797 20.5439 3.88993 20.1877 4.32623C18.5615 6.31837 16.2916 9.11447 15 11.5C13.1593 14.8997 12.2805 18.6603 12.0581 19.7128C12.0205 19.8908 11.8934 20.0357 11.7198 20.0901C11.3664 20.2011 10.7531 20.3844 10.3234 20.4626C10.1283 20.4982 9.9492 20.3847 9.8669 20.2043C9.46134 19.3152 8.19569 16.6273 7 15C5.76316 13.3166 3.53645 11.3189 2.52519 10.4457C2.27941 10.2335 1.87463 10.0684 2.16137 9.91596C3.38537 9.26545 5.29156 8.83304 6.33982 9.73994C7.78897 10.9937 9.2015 12.782 10.0186 14.1201C10.2338 14.4725 10.7793 14.4759 10.9796 14.1148Z" fill="black" stroke="black" stroke-width="0.75" stroke-linejoin="round"/>
</svg>
