<svg width="24" height="24" viewBox="0 0 24 24" fill="none" xmlns="http://www.w3.org/2000/svg">
<path fill-rule="evenodd" clip-rule="evenodd" d="M22.1846 20.3414H16.6076C16.3991 20.3414 16.2299 20.1722 16.2299 19.9637C16.2299 19.7552 16.3991 19.586 16.6076 19.586H22.1846C22.2161 19.586 22.2436 19.5584 22.2436 19.527V8.2747C22.2436 8.24326 22.2161 8.2157 22.1846 8.2157H16.6995C16.2913 8.2157 15.9353 7.96844 15.7928 7.58578L14.9944 5.44393C14.9374 5.29151 14.8066 5.20055 14.6437 5.20055L9.35522 5.20036C9.19252 5.20036 9.06126 5.29132 9.00459 5.44373L8.20615 7.58565C8.0635 7.96831 7.70756 8.21557 7.29954 8.21557L1.81435 8.21576C1.78291 8.21576 1.75535 8.24332 1.75535 8.27476V19.5271C1.75535 19.5586 1.78291 19.5861 1.81435 19.5861H7.39134C7.59991 19.5861 7.76902 19.7552 7.76902 19.9638C7.76902 20.1723 7.59991 20.3415 7.39134 20.3415H1.81429C1.36539 20.3415 1 19.9761 1 19.5272V8.2747C1 7.82579 1.36539 7.46041 1.81429 7.46041H7.29948C7.39341 7.46041 7.46574 7.40975 7.4986 7.32222L8.29704 5.1803C8.4633 4.73392 8.87876 4.44526 9.35574 4.44526L14.6443 4.44507C15.1207 4.44507 15.5362 4.73373 15.703 5.18011L16.5014 7.32203C16.5343 7.40995 16.6066 7.46021 16.7005 7.46021L22.1857 7.46041C22.6346 7.46041 23 7.82579 23 8.2747V19.5271C22.9989 19.9762 22.6337 20.3414 22.1846 20.3414Z" fill="black"/>
<path fill-rule="evenodd" clip-rule="evenodd" d="M14.5375 9.97287C14.4961 9.97287 14.4544 9.96595 14.4141 9.9523C13.6396 9.68421 12.8267 9.54855 11.9997 9.54855C11.1726 9.54855 10.3598 9.68428 9.58526 9.9523C9.44708 10.0001 9.29356 9.96369 9.1918 9.8594C9.08946 9.7546 9.05718 9.60076 9.10815 9.46361L10.0464 6.94744C10.1014 6.80001 10.2425 6.70161 10.4005 6.70161L13.6004 6.70142C13.7583 6.70142 13.8993 6.7993 13.9544 6.94725L14.8926 9.46342C14.9438 9.60057 14.9112 9.75453 14.809 9.85921C14.7352 9.93309 14.6373 9.97287 14.5375 9.97287ZM11.9996 8.7932C12.6512 8.7932 13.2948 8.86992 13.9202 9.02124L13.3371 7.45664H10.6623L10.0791 9.02124C10.7045 8.86992 11.3477 8.7932 11.9996 8.7932Z" fill="black"/>
<path fill-rule="evenodd" clip-rule="evenodd" d="M11.9999 22.8281C8.75253 22.8281 6.1106 20.1861 6.1106 16.9388C6.1106 13.6915 8.75253 11.0496 11.9999 11.0496C15.2472 11.0496 17.8891 13.6915 17.8891 16.9388C17.8891 20.1861 15.2472 22.8281 11.9999 22.8281ZM11.9999 11.8041C9.16908 11.8041 6.86589 14.1073 6.86589 16.9386C6.86589 19.7699 9.16908 22.0731 11.9999 22.0731C14.8306 22.0731 17.1338 19.7699 17.1338 16.9386C17.1338 14.1073 14.8308 11.8041 11.9999 11.8041Z" fill="black"/>
<path fill-rule="evenodd" clip-rule="evenodd" d="M11.9998 20.8072C9.86676 20.8072 8.13098 19.0719 8.13098 16.9389C8.13098 14.8059 9.86631 13.0706 11.9998 13.0706C14.1334 13.0706 15.8687 14.8059 15.8687 16.9389C15.8687 19.0719 14.1331 20.8072 11.9998 20.8072ZM11.9998 13.8253C10.2832 13.8253 8.88627 15.2219 8.88627 16.9389C8.88627 18.6559 10.2828 20.0524 11.9998 20.0524C13.7168 20.0524 15.1134 18.6558 15.1134 16.9389C15.1134 15.2219 13.7165 13.8253 11.9998 13.8253Z" fill="black"/>
<path fill-rule="evenodd" clip-rule="evenodd" d="M10.5233 17.3159C10.3147 17.3159 10.1456 17.1468 10.1456 16.9382C10.1456 15.916 10.9771 15.0845 11.9994 15.0845C12.208 15.0845 12.3771 15.2536 12.3771 15.4621C12.3771 15.6707 12.208 15.8398 11.9994 15.8398C11.3937 15.8398 10.9009 16.3325 10.9009 16.9382C10.9009 17.1466 10.7318 17.3159 10.5233 17.3159Z" fill="black"/>
<path fill-rule="evenodd" clip-rule="evenodd" d="M4.77562 10.0544H2.99889C2.79039 10.0544 2.62122 9.88526 2.62122 9.67675C2.62122 9.46818 2.79032 9.29907 2.99889 9.29907L4.77562 9.29927C4.98413 9.29927 5.1533 9.46837 5.1533 9.67694C5.15323 9.88545 4.98451 10.0544 4.77562 10.0544Z" fill="black"/>
<path fill-rule="evenodd" clip-rule="evenodd" d="M21.0275 8.21547C20.819 8.21547 20.6498 8.04636 20.6498 7.83779V7.01127C20.6498 6.76402 20.4488 6.56237 20.2009 6.56237L19.0713 6.56217C18.8241 6.56217 18.6224 6.76324 18.6224 7.01108V7.8376C18.6224 8.0461 18.4533 8.21527 18.2447 8.21527C18.0362 8.21527 17.8671 8.04617 17.8671 7.8376V7.01108C17.8671 6.34727 18.4074 5.80688 19.0713 5.80688H20.2009C20.8647 5.80688 21.4051 6.34668 21.4051 7.01108V7.8376C21.4051 8.04617 21.2364 8.21547 21.0275 8.21547Z" fill="black"/>
<path fill-rule="evenodd" clip-rule="evenodd" d="M5.75346 8.21547C5.54496 8.21547 5.37578 8.04636 5.37578 7.83779V7.01127C5.37578 6.76402 5.17472 6.56237 4.92688 6.56237L3.79728 6.56217C3.55002 6.56217 3.34837 6.76324 3.34837 7.01108V7.8376C3.34837 8.0461 3.17927 8.21527 2.97069 8.21527C2.76212 8.21527 2.59302 8.04617 2.59302 7.8376V7.01108C2.59302 6.34727 3.1334 5.80688 3.79721 5.80688H4.92662C5.59044 5.80688 6.13082 6.34668 6.13082 7.01108V7.8376C6.13107 8.04617 5.96184 8.21547 5.75346 8.21547Z" fill="black"/>
<path fill-rule="evenodd" clip-rule="evenodd" d="M20.3559 17.4176C20.1474 17.4176 19.9783 17.2485 19.9783 17.0399V10.7607C19.9783 10.5522 20.1474 10.3831 20.3559 10.3831C20.5645 10.3831 20.7336 10.5522 20.7336 10.7607V17.0399C20.7335 17.2483 20.5648 17.4176 20.3559 17.4176Z" fill="black"/>
<path fill-rule="evenodd" clip-rule="evenodd" d="M11.9998 2.68946C11.7913 2.68946 11.6222 2.52035 11.6222 2.31178V1.37761C11.6222 1.16904 11.7913 1 11.9998 1C12.2084 1 12.3775 1.16911 12.3775 1.37761V2.31178C12.3775 2.52035 12.2084 2.68946 11.9998 2.68946Z" fill="black"/>
<path fill-rule="evenodd" clip-rule="evenodd" d="M14.5694 3.37837C14.5054 3.37837 14.4406 3.3622 14.3811 3.32772C14.2006 3.22343 14.1386 2.99235 14.2429 2.81185L14.71 2.00255C14.8143 1.82205 15.0454 1.76008 15.2259 1.86436C15.4064 1.96865 15.4684 2.19973 15.3641 2.38022L14.8969 3.18953C14.8266 3.31051 14.6996 3.37837 14.5694 3.37837Z" fill="black"/>
<path fill-rule="evenodd" clip-rule="evenodd" d="M9.42931 3.37837C9.29896 3.37837 9.17158 3.31051 9.10177 3.18953L8.63463 2.38022C8.53034 2.19973 8.59232 1.96865 8.77281 1.86436C8.9533 1.76008 9.18439 1.82205 9.28867 2.00255L9.75582 2.81185C9.8601 2.99235 9.79813 3.22343 9.61764 3.32772C9.5587 3.3622 9.49381 3.37837 9.42931 3.37837Z" fill="black"/>
</svg>
