<svg width="24" height="24" viewBox="0 0 24 24" fill="none" xmlns="http://www.w3.org/2000/svg">
<path d="M19.6523 10.6455C19.6523 10.7422 19.6153 10.8389 19.5417 10.9126L10.9125 19.5417C10.7671 19.6872 10.5321 19.6895 10.3838 19.547C10.0084 19.1864 9.75464 18.7692 9.62945 18.3069C9.53338 17.9521 9.51436 17.5767 9.57291 17.1913C9.6303 16.813 9.76957 16.4537 9.98677 16.1235C10.487 15.3633 10.6821 14.6218 10.5512 13.979C10.4607 13.5347 10.2447 13.2854 10.2426 13.2831C10.105 13.1341 10.1096 12.9031 10.253 12.7597L10.9281 12.0846C11.0756 11.9371 11.3147 11.9371 11.4622 12.0846C11.6097 12.2321 11.6097 12.4712 11.4622 12.6187L11.0094 13.0716C11.1114 13.2494 11.2252 13.5033 11.2914 13.8283C11.3688 14.2083 11.365 14.6089 11.2801 15.0191C11.1773 15.5158 10.9544 16.027 10.6178 16.5386C10.461 16.7771 10.3606 17.0348 10.3197 17.3047C10.2389 17.837 10.3536 18.3132 10.6609 18.725L18.725 10.661C18.3131 10.3536 17.8369 10.2389 17.3047 10.3198C17.0348 10.3607 16.7771 10.461 16.5385 10.6179C16.027 10.9545 15.5158 11.1773 15.0191 11.2801C14.6089 11.365 14.2082 11.3688 13.8282 11.2914C13.5033 11.2253 13.2494 11.1115 13.0715 11.0095L12.6187 11.4623C12.4712 11.6098 12.2321 11.6098 12.0846 11.4623C11.9371 11.3148 11.9371 11.0756 12.0846 10.9281L12.7597 10.253C12.9047 10.108 13.1333 10.1 13.2816 10.2413C13.3027 10.2592 13.5657 10.4769 14.0203 10.5592C14.662 10.6755 15.3696 10.4829 16.1234 9.98685C16.4537 9.76961 16.813 9.63036 17.1913 9.57296C17.5767 9.51442 17.952 9.53344 18.3068 9.62952C18.7691 9.7547 19.1864 10.0085 19.547 10.3838C19.6173 10.457 19.6523 10.5513 19.6523 10.6455Z" fill="black"/>
<path d="M13.2214 12.0374C13.2214 12.3408 13.106 12.6441 12.8751 12.8751C12.4146 13.3355 11.6663 13.3369 11.2041 12.8793L1.49428 3.72062C1.18193 3.42599 1.00645 3.02728 1.00017 2.59794C0.993996 2.16837 1.15766 1.76493 1.46129 1.46129C1.76492 1.15766 2.16859 0.993896 2.59795 1.00017C3.02729 1.00644 3.426 1.18191 3.72063 1.49428L12.8793 11.2041C13.1074 11.4345 13.2214 11.736 13.2214 12.0374ZM1.75538 2.57455C1.75538 2.57868 1.75542 2.58279 1.75547 2.58692C1.75874 2.81034 1.85006 3.01783 2.01261 3.17115L11.7261 12.3332C11.7287 12.3358 11.7314 12.3383 11.734 12.3409C11.815 12.422 11.9228 12.4666 12.0374 12.4666C12.1521 12.4666 12.2599 12.422 12.3409 12.3409C12.422 12.2599 12.4666 12.1521 12.4666 12.0374C12.4666 11.9228 12.422 11.815 12.3409 11.734C12.3383 11.7313 12.3358 11.7287 12.3333 11.726L3.17116 2.01259C3.01785 1.85005 2.81036 1.75873 2.58693 1.75547C2.36349 1.75221 2.15344 1.83742 1.99543 1.99543C1.84035 2.15052 1.75538 2.35575 1.75538 2.57455Z" fill="black"/>
<path d="M23 14.2014C23 14.301 22.9606 14.3973 22.8894 14.4685L14.4684 22.8895C14.3876 22.9703 14.2745 23.0102 14.1609 22.9979C14.0472 22.9857 13.9452 22.9226 13.8835 22.8264L11.1845 18.6219C11.0886 18.4724 11.1098 18.2763 11.2353 18.1508L18.1507 11.2354C18.2763 11.1098 18.4724 11.0887 18.6218 11.1846L22.8264 13.8836C22.9226 13.9453 22.9856 14.0473 22.9979 14.1609C22.9993 14.1745 23 14.188 23 14.2014ZM14.2659 22.0238L22.0237 14.2659L18.4698 11.9846L11.9846 18.4698L14.2659 22.0238Z" fill="black"/>
<path d="M20.3014 12.469C20.3014 12.5656 20.2645 12.6623 20.1908 12.7361L12.7361 20.1907C12.5886 20.3382 12.3495 20.3382 12.202 20.1907C12.0545 20.0432 12.0545 19.8041 12.202 19.6566L19.6567 12.2019C19.8042 12.0544 20.0433 12.0544 20.1908 12.2019C20.2645 12.2757 20.3014 12.3723 20.3014 12.469Z" fill="black"/>
<path d="M18.7037 18.4978C18.7037 18.5945 18.6669 18.6911 18.5931 18.7649C18.4456 18.9124 18.2065 18.9124 18.059 18.7649L16.7055 17.4113C16.558 17.2639 16.558 17.0247 16.7055 16.8772C16.853 16.7297 17.0921 16.7297 17.2396 16.8772L18.5931 18.2307C18.6669 18.3045 18.7037 18.4012 18.7037 18.4978Z" fill="black"/>
<path d="M16.1935 21.0077C16.1935 21.1528 16.1094 21.2912 15.9681 21.3535C15.7773 21.4377 15.5543 21.3512 15.4701 21.1603L14.6415 19.2819C14.5574 19.0911 14.6438 18.8681 14.8347 18.7839C15.0255 18.6997 15.2485 18.7862 15.3326 18.9771L16.1613 20.8555C16.1831 20.905 16.1935 20.9568 16.1935 21.0077Z" fill="black"/>
<path d="M21.3858 15.8157C21.3858 15.8666 21.3754 15.9184 21.3536 15.9679C21.2694 16.1588 21.0464 16.2453 20.8556 16.1611L18.9772 15.3325C18.7863 15.2483 18.6999 15.0253 18.784 14.8345C18.8682 14.6436 19.0912 14.5572 19.282 14.6414L21.1604 15.47C21.3017 15.5323 21.3858 15.6706 21.3858 15.8157Z" fill="black"/>
<path d="M5.93957 3.99633C5.93957 4.09298 5.9027 4.18964 5.82894 4.26339L4.26383 5.8285C4.11633 5.976 3.8772 5.976 3.7297 5.8285C3.58221 5.68102 3.58221 5.44188 3.7297 5.29439L5.29482 3.72927C5.44232 3.58178 5.68145 3.58178 5.82894 3.72927C5.9027 3.80301 5.93957 3.89968 5.93957 3.99633Z" fill="black"/>
<path d="M11.4577 9.84692C11.4577 9.94357 11.4209 10.0402 11.3471 10.114L10.114 11.347C9.96655 11.4945 9.72742 11.4945 9.57992 11.347C9.43243 11.1995 9.43243 10.9604 9.57992 10.8129L10.813 9.57986C10.9605 9.43237 11.1996 9.43237 11.3471 9.57985C11.4209 9.6536 11.4577 9.75026 11.4577 9.84692Z" fill="black"/>
</svg>
