<svg width="23" height="21" viewBox="0 0 23 21" fill="none" xmlns="http://www.w3.org/2000/svg">
<path d="M11.621 7.18988C11.101 7.18988 10.679 7.08588 10.355 6.87788C10.031 6.66788 9.845 6.34488 9.797 5.90888L10.709 5.89088C10.757 6.08888 10.86 6.23988 11.018 6.34388C11.178 6.44588 11.378 6.49688 11.618 6.49688C11.762 6.49688 11.889 6.47388 11.999 6.42788C12.111 6.37988 12.199 6.31588 12.263 6.23588C12.327 6.15388 12.359 6.06088 12.359 5.95688C12.359 5.79688 12.308 5.67788 12.206 5.59988C12.104 5.51988 11.947 5.45588 11.735 5.40788L11.024 5.25488C10.694 5.18888 10.429 5.05788 10.229 4.86188C10.031 4.66388 9.93 4.39888 9.926 4.06688C9.924 3.79488 9.997 3.55988 10.145 3.36188C10.295 3.16188 10.498 3.00788 10.754 2.89988C11.012 2.79188 11.301 2.73788 11.621 2.73788C11.949 2.73788 12.232 2.79688 12.47 2.91488C12.71 3.03088 12.894 3.18788 13.022 3.38588C13.152 3.58188 13.215 3.79888 13.211 4.03688L12.326 4.05188C12.298 3.85988 12.234 3.70888 12.134 3.59888C12.034 3.48888 11.868 3.43388 11.636 3.43388C11.516 3.43388 11.409 3.44688 11.315 3.47288C11.221 3.49888 11.14 3.53588 11.072 3.58388C11.004 3.62988 10.952 3.68488 10.916 3.74888C10.882 3.81288 10.865 3.88488 10.865 3.96488C10.865 4.09088 10.907 4.19088 10.991 4.26488C11.077 4.33688 11.238 4.40388 11.474 4.46588L12.173 4.63688C12.567 4.73088 12.851 4.89188 13.025 5.11988C13.201 5.34788 13.289 5.62488 13.289 5.95088C13.289 6.20088 13.22 6.41888 13.082 6.60488C12.946 6.79088 12.753 6.93488 12.503 7.03688C12.253 7.13888 11.959 7.18988 11.621 7.18988ZM11.231 7.70288V6.92288H11.987V7.70288H11.231ZM11.246 2.95088V2.17088H12.005V2.95088H11.246Z" fill="#0F1614"/>
<g clip-path="url(#clip0_1475_1143)">
<path d="M11.53 8.98977C13.7336 8.98977 15.52 7.20338 15.52 4.99977C15.52 2.79615 13.7336 1.00977 11.53 1.00977C9.32636 1.00977 7.53998 2.79615 7.53998 4.99977C7.53998 7.20338 9.32636 8.98977 11.53 8.98977Z" stroke="#0F1614" stroke-width="0.75" stroke-miterlimit="10"/>
<path d="M7.68995 16.6597H2.38995C2.11381 16.6597 1.88995 16.8835 1.88995 17.1597V19.1997C1.88995 19.4758 2.11381 19.6997 2.38995 19.6997H7.68995C7.9661 19.6997 8.18995 19.4758 8.18995 19.1997V17.1597C8.18995 16.8835 7.9661 16.6597 7.68995 16.6597Z" stroke="#0F1614" stroke-width="0.75" stroke-miterlimit="10"/>
<path d="M3.93997 8.98968L5.51997 5.63969C5.77997 5.08969 5.53997 4.43968 4.99997 4.17968C4.44997 3.91968 3.79997 4.15968 3.53997 4.69968L0.459973 11.1997C-0.200027 13.7297 3.05997 14.7497 2.98997 16.6597H6.88997V13.5497C6.88997 13.4197 6.84997 13.2797 6.76997 13.1697L6.07997 12.1997C5.99997 12.0897 5.95997 11.9597 5.95997 11.8197V9.49968C5.95997 8.88968 5.46997 8.39968 4.85997 8.39968C4.24997 8.39968 3.75997 8.88968 3.75997 9.49968V13.1397" stroke="#0F1614" stroke-width="0.75" stroke-miterlimit="10"/>
<path d="M15.26 19.6897H20.56C20.8361 19.6897 21.06 19.4658 21.06 19.1897V17.1497C21.06 16.8736 20.8361 16.6497 20.56 16.6497H15.26C14.9839 16.6497 14.76 16.8736 14.76 17.1497V19.1897C14.76 19.4658 14.9839 19.6897 15.26 19.6897Z" stroke="#0F1614" stroke-width="0.75" stroke-miterlimit="10"/>
<path d="M19.02 8.98968L17.44 5.63969C17.18 5.08969 17.42 4.43968 17.96 4.17968C18.51 3.91968 19.16 4.15968 19.42 4.69968L22.49 11.1997C23.15 13.7297 19.89 14.7497 19.96 16.6597H16.06V13.5497C16.06 13.4197 16.1 13.2797 16.18 13.1697L16.87 12.1997C16.95 12.0897 16.99 11.9597 16.99 11.8197V9.49968C16.99 8.88968 17.48 8.39968 18.09 8.39968C18.7 8.39968 19.19 8.88968 19.19 9.49968V13.1397" stroke="#0F1614" stroke-width="0.75" stroke-miterlimit="10"/>
</g>
<defs>
<clipPath id="clip0_1475_1143">
<rect width="22.95" height="19.44" fill="white" transform="translate(0 0.629883)"/>
</clipPath>
</defs>
</svg>
