<svg width="24" height="24" viewBox="0 0 24 24" fill="none" xmlns="http://www.w3.org/2000/svg">
<path d="M21.1176 3.37255H15.7255V1.43138C15.7255 1.19316 15.5324 1 15.2941 1H9.2549C9.01665 1 8.82352 1.19314 8.82352 1.43138V3.37255H3.43138C3.19313 3.37255 3 3.56569 3 3.80392V6.60785C3 6.84607 3.19313 7.03923 3.43138 7.03923H4.56418L6.67055 22.6264C6.69946 22.8404 6.88212 23 7.09804 23H17.451C17.6669 23 17.8495 22.8404 17.8785 22.6264L19.9848 7.03923H21.1176C21.3559 7.03923 21.549 6.84608 21.549 6.60785V3.80392C21.549 3.56569 21.3559 3.37255 21.1176 3.37255ZM9.68628 1.86274H14.8627V3.37255H9.68628V1.86274ZM17.074 22.1372H7.47505L7.35846 21.2745H17.1905L17.074 22.1372ZM17.3072 20.4118H7.24187L5.43478 7.03921H19.1142L17.3072 20.4118ZM20.6863 6.17647H19.6078H4.94118H3.86275V4.23529H20.6863V6.17647Z" fill="black"/>
<path d="M12.2743 19.1174C12.5126 19.1174 12.7057 18.9243 12.7057 18.686V8.54881C12.7057 8.31059 12.5126 8.11743 12.2743 8.11743C12.0361 8.11743 11.843 8.31058 11.843 8.54881V18.6861C11.843 18.9243 12.0361 19.1174 12.2743 19.1174Z" fill="black"/>
<path d="M9.04349 18.745C9.07352 18.9608 9.25833 19.1169 9.47018 19.1169C9.48998 19.1169 9.51006 19.1156 9.53021 19.1127C9.76618 19.0799 9.93083 18.862 9.89796 18.626L8.49996 8.58562C8.4671 8.34962 8.24895 8.18475 8.01324 8.21785C7.77727 8.25071 7.61261 8.46863 7.64547 8.70457L9.04349 18.745Z" fill="black"/>
<path d="M14.9151 19.1127C14.9353 19.1156 14.9553 19.1169 14.9751 19.1169C15.1869 19.1169 15.3718 18.9608 15.4018 18.745L16.7998 8.70457C16.8327 8.46861 16.668 8.2507 16.4321 8.21784C16.1962 8.18477 15.9782 8.34962 15.9453 8.58561L14.5473 18.626C14.5145 18.862 14.6791 19.0799 14.9151 19.1127Z" fill="black"/>
</svg>
