<svg width="24" height="24" viewBox="0 0 24 24" fill="none" xmlns="http://www.w3.org/2000/svg">
<path d="M15.4433 12.3499H7.90304C7.17194 12.3499 6.57715 11.7551 6.57715 11.024V7.15425C6.57715 6.42316 7.17194 5.82837 7.90304 5.82837H15.4433C16.1744 5.82837 16.7692 6.42316 16.7692 7.15425V11.024C16.7692 11.7551 16.1744 12.3499 15.4433 12.3499ZM7.90304 6.58375C7.58845 6.58375 7.33253 6.83968 7.33253 7.15424V11.024C7.33253 11.3386 7.58846 11.5945 7.90304 11.5945H15.4433C15.7579 11.5945 16.0138 11.3386 16.0138 11.024V7.15424C16.0138 6.83966 15.7579 6.58375 15.4433 6.58375H7.90304Z" fill="black"/>
<path d="M15.4433 23.0001H7.90304C7.17194 23.0001 6.57715 22.4053 6.57715 21.6742V14.3278C6.57715 13.5968 7.17194 13.002 7.90304 13.002H15.4433C16.1744 13.002 16.7692 13.5968 16.7692 14.3278V21.6742C16.7692 22.4053 16.1744 23.0001 15.4433 23.0001ZM7.90304 13.7573C7.58845 13.7573 7.33253 14.0133 7.33253 14.3278V21.6742C7.33253 21.9888 7.58846 22.2447 7.90304 22.2447H15.4433C15.7579 22.2447 16.0138 21.9888 16.0138 21.6742V14.3278C16.0138 14.0133 15.7579 13.7573 15.4433 13.7573L7.90304 13.7573Z" fill="black"/>
<path d="M9.40055 9.75166C8.72996 9.75166 8.18439 9.20609 8.18439 8.5355C8.18439 7.86491 8.72996 7.31934 9.40055 7.31934C10.0711 7.31934 10.6167 7.86491 10.6167 8.5355C10.6167 9.20609 10.0711 9.75166 9.40055 9.75166ZM9.40055 8.07471C9.14647 8.07471 8.93976 8.28142 8.93976 8.5355C8.93976 8.78958 9.14647 8.99628 9.40055 8.99628C9.65463 8.99628 9.86133 8.78958 9.86133 8.5355C9.86133 8.28142 9.65462 8.07471 9.40055 8.07471Z" fill="black"/>
<path d="M13.946 9.75166C13.2754 9.75166 12.7298 9.20609 12.7298 8.5355C12.7298 7.86491 13.2754 7.31934 13.946 7.31934C14.6165 7.31934 15.1621 7.86491 15.1621 8.5355C15.1621 9.20609 14.6165 9.75166 13.946 9.75166ZM13.946 8.07471C13.6919 8.07471 13.4852 8.28142 13.4852 8.5355C13.4852 8.78958 13.6919 8.99628 13.946 8.99628C14.2 8.99628 14.4067 8.78958 14.4067 8.5355C14.4067 8.28142 14.2 8.07471 13.946 8.07471Z" fill="black"/>
<path d="M12.8961 10.8591H10.4503C10.2417 10.8591 10.0726 10.69 10.0726 10.4814C10.0726 10.2729 10.2417 10.1038 10.4503 10.1038H12.8961C13.1047 10.1038 13.2738 10.2729 13.2738 10.4814C13.2738 10.69 13.1047 10.8591 12.8961 10.8591Z" fill="black"/>
<path d="M8.58332 13.7577C8.37473 13.7577 8.20563 13.5886 8.20563 13.38V11.9724C8.20563 11.7638 8.37473 11.5947 8.58332 11.5947C8.79191 11.5947 8.961 11.7638 8.961 11.9724V13.38C8.961 13.5886 8.7919 13.7577 8.58332 13.7577Z" fill="black"/>
<path d="M14.7631 13.7577C14.5545 13.7577 14.3854 13.5886 14.3854 13.38V11.9724C14.3854 11.7638 14.5545 11.5947 14.7631 11.5947C14.9717 11.5947 15.1408 11.7638 15.1408 11.9724V13.38C15.1408 13.5886 14.9717 13.7577 14.7631 13.7577Z" fill="black"/>
<path d="M14.7632 18.5317H8.58332C8.37473 18.5317 8.20563 18.3626 8.20563 18.1541V15.2031C8.20563 14.9945 8.37473 14.8254 8.58332 14.8254H14.7632C14.9718 14.8254 15.1409 14.9945 15.1409 15.2031V18.1541C15.1409 18.3626 14.9718 18.5317 14.7632 18.5317ZM8.96101 17.7764H14.3855V15.5808H8.96101V17.7764Z" fill="black"/>
<path d="M14.7632 19.854H8.58332C8.37473 19.854 8.20563 19.6849 8.20563 19.4763C8.20563 19.2677 8.37473 19.0986 8.58332 19.0986H14.7632C14.9718 19.0986 15.1409 19.2677 15.1409 19.4763C15.1409 19.6849 14.9718 19.854 14.7632 19.854Z" fill="black"/>
<path d="M14.7632 21.1773H8.58332C8.37473 21.1773 8.20563 21.0082 8.20563 20.7996C8.20563 20.591 8.37473 20.4219 8.58332 20.4219H14.7632C14.9718 20.4219 15.1409 20.591 15.1409 20.7996C15.1409 21.0082 14.9718 21.1773 14.7632 21.1773Z" fill="black"/>
<path d="M17.0092 10.8085H16.3917C16.1831 10.8085 16.014 10.6394 16.014 10.4308C16.014 10.2222 16.1831 10.0531 16.3917 10.0531H17.0092C17.3301 10.0531 17.5912 9.79199 17.5912 9.47108V8.70651C17.5912 8.38561 17.3301 8.12452 17.0092 8.12452H16.3917C16.1831 8.12452 16.014 7.95542 16.014 7.74683C16.014 7.53824 16.1831 7.36914 16.3917 7.36914H17.0092C17.7466 7.36914 18.3466 7.96909 18.3466 8.70652V9.47108C18.3466 10.2085 17.7466 10.8085 17.0092 10.8085Z" fill="black"/>
<path d="M6.95489 10.8085H6.33738C5.59995 10.8085 5 10.2085 5 9.47108V8.70652C5 7.96909 5.59995 7.36914 6.33738 7.36914H6.95489C7.16349 7.36914 7.33258 7.53824 7.33258 7.74683C7.33258 7.95542 7.16348 8.12452 6.95489 8.12452H6.33738C6.01647 8.12452 5.75538 8.38561 5.75538 8.70651V9.47108C5.75538 9.79199 6.01647 10.0531 6.33738 10.0531H6.95489C7.16349 10.0531 7.33258 10.2222 7.33258 10.4308C7.33258 10.6394 7.16349 10.8085 6.95489 10.8085Z" fill="black"/>
<path d="M10.8847 6.584C10.6761 6.584 10.507 6.4149 10.507 6.20631V3.83325C10.507 3.62466 10.6761 3.45557 10.8847 3.45557C11.0933 3.45557 11.2624 3.62467 11.2624 3.83325V6.20631C11.2624 6.41489 11.0933 6.584 10.8847 6.584Z" fill="black"/>
<path d="M12.4617 6.584C12.2531 6.584 12.084 6.4149 12.084 6.20631V3.83325C12.084 3.62466 12.2531 3.45557 12.4617 3.45557C12.6703 3.45557 12.8394 3.62467 12.8394 3.83325V6.20631C12.8394 6.41489 12.6703 6.584 12.4617 6.584Z" fill="black"/>
<path d="M11.6731 4.46404C10.7181 4.46404 9.9411 3.68705 9.9411 2.73202C9.9411 1.77698 10.7181 1 11.6731 1C12.6282 1 13.4051 1.77698 13.4051 2.73202C13.4051 3.68706 12.6282 4.46404 11.6731 4.46404ZM11.6731 1.75538C11.1346 1.75538 10.6965 2.1935 10.6965 2.73201C10.6965 3.27052 11.1346 3.70865 11.6731 3.70865C12.2116 3.70865 12.6498 3.27052 12.6498 2.73201C12.6498 2.1935 12.2116 1.75538 11.6731 1.75538Z" fill="black"/>
</svg>
