<svg width="24" height="24" viewBox="0 0 24 24" fill="none" xmlns="http://www.w3.org/2000/svg">
<path d="M12.3374 3.9611C11.9872 3.96093 11.6504 3.82592 11.3961 3.5838C11.1417 3.34167 10.9893 3.01082 10.9699 2.65917C10.9506 2.30753 11.0659 1.96178 11.2921 1.69294C11.5183 1.42409 11.8383 1.25256 12.1864 1.21356C12.5344 1.17456 12.8841 1.27105 13.1636 1.48322C13.4432 1.6954 13.6313 2.00714 13.6894 2.35445C13.7475 2.70175 13.6712 3.05824 13.4761 3.35072C13.281 3.6432 12.982 3.84946 12.6404 3.92715C12.541 3.9497 12.4394 3.96109 12.3374 3.9611ZM12.3413 1.8986C12.1766 1.89839 12.0173 1.958 11.8928 2.06647C11.7683 2.17495 11.6869 2.32498 11.6636 2.48899C11.6404 2.65299 11.6768 2.81993 11.7661 2.95909C11.8555 3.09825 11.9918 3.20028 12.1501 3.24641C12.3083 3.29254 12.4777 3.27966 12.6273 3.21015C12.7768 3.14063 12.8964 3.01916 12.9639 2.86807C13.0315 2.71699 13.0425 2.54644 12.995 2.38782C12.9475 2.2292 12.8446 2.09316 12.7053 2.00473C12.5967 1.93552 12.4708 1.89871 12.3421 1.8986H12.3413Z" fill="black"/>
<path d="M21.6354 12.9302C21.4015 12.9306 21.1714 12.8707 20.9671 12.7563C20.7628 12.6418 20.5911 12.4765 20.4685 12.2762C20.3099 12.0171 20.2411 11.7125 20.2731 11.4099C20.305 11.1074 20.4359 10.8241 20.6451 10.6043C20.8543 10.3845 21.1301 10.2408 21.4293 10.1955C21.7284 10.1502 22.0341 10.206 22.2983 10.3541C22.5626 10.5022 22.7706 10.7343 22.8896 11.014C23.0087 11.2936 23.0322 11.6051 22.9564 11.8997C22.8806 12.1942 22.7098 12.4552 22.4708 12.6416C22.2317 12.8281 21.9379 12.9296 21.6354 12.9302ZM21.0509 11.9161C21.1217 12.032 21.2251 12.1241 21.348 12.1809C21.4709 12.2377 21.6078 12.2565 21.7413 12.235C21.8749 12.2135 21.9991 12.1527 22.0982 12.0602C22.1974 11.9677 22.267 11.8478 22.2984 11.7154C22.3297 11.5831 22.3213 11.4445 22.2743 11.317C22.2272 11.1894 22.1436 11.0788 22.034 10.9991C21.9245 10.9194 21.7938 10.8742 21.6587 10.8691C21.5235 10.8641 21.3899 10.8995 21.2748 10.9708C21.1205 11.0664 21.0103 11.2196 20.9683 11.3969C20.9263 11.5741 20.956 11.7609 21.0509 11.9161Z" fill="black"/>
<path d="M21.0962 11.0214C21.0378 11.0215 20.9803 11.0065 20.9293 10.9778C20.8783 10.9491 20.8354 10.9078 20.8048 10.8577L19.9075 9.39121C19.8635 9.31373 19.8512 9.22208 19.8731 9.13562C19.8951 9.04917 19.9496 8.97469 20.0252 8.92793C20.1008 8.88117 20.1914 8.8658 20.2781 8.88506C20.3647 8.90432 20.4405 8.9567 20.4895 9.03114L21.3867 10.4977C21.4342 10.5753 21.449 10.6687 21.428 10.7573C21.407 10.8459 21.3519 10.9225 21.2748 10.9703C21.2212 11.0039 21.1593 11.0216 21.0962 11.0214Z" fill="black"/>
<path d="M7.53182 14.4063C6.65295 14.4063 5.7938 14.1442 5.06304 13.6531C4.33228 13.1621 3.76272 12.4642 3.42639 11.6476C3.09006 10.8311 3.00206 9.93254 3.17352 9.06569C3.34498 8.19884 3.7682 7.40258 4.38966 6.77762C5.01112 6.15265 5.80291 5.72705 6.6649 5.55462C7.5269 5.38219 8.42037 5.47069 9.23235 5.80892C10.0443 6.14714 10.7383 6.71992 11.2266 7.4548C11.7149 8.18968 11.9755 9.05367 11.9755 9.9375C11.9743 11.1223 11.5057 12.2582 10.6726 13.096C9.83953 13.9338 8.70998 14.405 7.53182 14.4063ZM7.53182 6.15625C6.78816 6.15625 6.06119 6.37802 5.44286 6.79351C4.82452 7.209 4.34259 7.79955 4.058 8.49048C3.77341 9.18141 3.69895 9.9417 3.84403 10.6752C3.98911 11.4087 4.34722 12.0824 4.87307 12.6112C5.39892 13.1401 6.0689 13.5002 6.79828 13.6461C7.52765 13.792 8.28367 13.7171 8.97073 13.4309C9.65779 13.1447 10.245 12.6601 10.6582 12.0383C11.0713 11.4164 11.2919 10.6854 11.2919 9.9375C11.2907 8.935 10.8942 7.97389 10.1893 7.26501C9.48443 6.55613 8.5287 6.15739 7.53182 6.15625Z" fill="black"/>
<path d="M7.53174 10.9688C7.19371 10.9688 6.86327 10.8679 6.58221 10.6791C6.30115 10.4902 6.08209 10.2218 5.95273 9.90774C5.82337 9.59368 5.78953 9.24809 5.85547 8.91469C5.92142 8.58128 6.0842 8.27503 6.32322 8.03466C6.56224 7.79429 6.86678 7.63059 7.19831 7.56428C7.52985 7.49796 7.87349 7.53199 8.18579 7.66208C8.49809 7.79217 8.76502 8.01247 8.95282 8.29511C9.14062 8.57776 9.24085 8.91006 9.24085 9.25C9.24085 9.70584 9.06079 10.143 8.74027 10.4653C8.41975 10.7877 7.98503 10.9688 7.53174 10.9688ZM7.53174 8.21875C7.32893 8.21875 7.13066 8.27923 6.96202 8.39255C6.79339 8.50586 6.66195 8.66692 6.58434 8.85536C6.50672 9.04379 6.48641 9.25115 6.52598 9.45119C6.56555 9.65123 6.66321 9.83498 6.80663 9.9792C6.95004 10.1234 7.13276 10.2216 7.33168 10.2614C7.53061 10.3012 7.73679 10.2808 7.92417 10.2028C8.11155 10.1247 8.27171 9.99252 8.38439 9.82293C8.49707 9.65334 8.55721 9.45396 8.55721 9.25C8.55721 8.9765 8.44917 8.71419 8.25686 8.5208C8.06455 8.3274 7.80371 8.21875 7.53174 8.21875Z" fill="black"/>
<path d="M9.92457 13.6328C9.83392 13.6328 9.74697 13.5966 9.68287 13.5321C9.61876 13.4677 9.58275 13.3802 9.58275 13.2891V13.0312C9.58275 12.4842 9.36667 11.9596 8.98205 11.5728C8.59742 11.186 8.07576 10.9687 7.53182 10.9687C6.98788 10.9687 6.46621 11.186 6.08159 11.5728C5.69697 11.9596 5.48089 12.4842 5.48089 13.0312V13.2891C5.48089 13.3802 5.44487 13.4677 5.38077 13.5321C5.31666 13.5966 5.22972 13.6328 5.13906 13.6328C5.04841 13.6328 4.96146 13.5966 4.89736 13.5321C4.83325 13.4677 4.79724 13.3802 4.79724 13.2891V13.0312C4.79724 12.3019 5.08535 11.6024 5.59818 11.0867C6.11101 10.571 6.80656 10.2813 7.53182 10.2812C8.25707 10.2813 8.95262 10.571 9.46546 11.0867C9.97829 11.6024 10.2664 12.3019 10.2664 13.0312V13.2891C10.2664 13.3802 10.2304 13.4677 10.1663 13.5321C10.1022 13.5966 10.0152 13.6328 9.92457 13.6328Z" fill="black"/>
<path d="M18.4701 9.9375C17.5912 9.9375 16.7321 9.67541 16.0013 9.18438C15.2706 8.69335 14.701 7.99543 14.3647 7.17887C14.0284 6.36231 13.9404 5.46379 14.1118 4.59694C14.2833 3.73009 14.7065 2.93383 15.328 2.30887C15.9494 1.6839 16.7412 1.2583 17.6032 1.08587C18.4652 0.91344 19.3587 1.00194 20.1706 1.34017C20.9826 1.67839 21.6766 2.25117 22.1649 2.98605C22.6532 3.72093 22.9138 4.58492 22.9138 5.46875C22.9124 6.65352 22.4438 7.78937 21.6108 8.62713C20.7777 9.46488 19.6482 9.93614 18.4701 9.9375ZM18.4701 1.6875C17.7265 1.6875 16.9995 1.90927 16.3811 2.32476C15.7628 2.74025 15.2809 3.3308 14.9963 4.02173C14.7117 4.71266 14.6372 5.47295 14.7823 6.20644C14.9274 6.93993 15.2855 7.61368 15.8114 8.1425C16.3372 8.67132 17.0072 9.03144 17.7366 9.17735C18.4659 9.32325 19.222 9.24836 19.909 8.96217C20.5961 8.67598 21.1833 8.19132 21.5965 7.5695C22.0096 6.94768 22.2302 6.21661 22.2302 5.46875C22.229 4.46625 21.8325 3.50514 21.1276 2.79626C20.4227 2.08738 19.467 1.68864 18.4701 1.6875Z" fill="black"/>
<path d="M18.4701 6.5C18.1321 6.5 17.8016 6.3992 17.5206 6.21034C17.2395 6.02148 17.0204 5.75305 16.8911 5.43899C16.7617 5.12493 16.7279 4.77934 16.7938 4.44594C16.8598 4.11253 17.0226 3.80628 17.2616 3.56591C17.5006 3.32554 17.8051 3.16184 18.1367 3.09553C18.4682 3.02921 18.8118 3.06324 19.1241 3.19333C19.4364 3.32342 19.7034 3.54372 19.8912 3.82636C20.079 4.10901 20.1792 4.44131 20.1792 4.78125C20.1792 5.23709 19.9991 5.67426 19.6786 5.99659C19.3581 6.31892 18.9234 6.5 18.4701 6.5ZM18.4701 3.75C18.2673 3.75 18.069 3.81048 17.9004 3.9238C17.7317 4.03711 17.6003 4.19817 17.5227 4.38661C17.4451 4.57504 17.4248 4.78239 17.4643 4.98244C17.5039 5.18248 17.6016 5.36623 17.745 5.51045C17.8884 5.65468 18.0711 5.75289 18.27 5.79269C18.469 5.83248 18.6751 5.81205 18.8625 5.734C19.0499 5.65595 19.2101 5.52377 19.3227 5.35418C19.4354 5.18459 19.4956 4.98521 19.4956 4.78125C19.4956 4.50775 19.3875 4.24544 19.1952 4.05205C19.0029 3.85865 18.7421 3.75 18.4701 3.75Z" fill="black"/>
<path d="M20.8629 9.16406C20.7722 9.16406 20.6853 9.12785 20.6212 9.06338C20.5571 8.99891 20.521 8.91148 20.521 8.82031V8.5625C20.521 8.01549 20.305 7.49089 19.9203 7.10409C19.5357 6.7173 19.0141 6.5 18.4701 6.5C17.9262 6.5 17.4045 6.7173 17.0199 7.10409C16.6353 7.49089 16.4192 8.01549 16.4192 8.5625V8.82031C16.4192 8.91148 16.3832 8.99891 16.3191 9.06338C16.255 9.12785 16.168 9.16406 16.0774 9.16406C15.9867 9.16406 15.8998 9.12785 15.8357 9.06338C15.7715 8.99891 15.7355 8.91148 15.7355 8.82031V8.5625C15.7355 7.83315 16.0236 7.13368 16.5365 6.61796C17.0493 6.10223 17.7449 5.8125 18.4701 5.8125C19.1954 5.8125 19.8909 6.10223 20.4037 6.61796C20.9166 7.13368 21.2047 7.83315 21.2047 8.5625V8.82031C21.2047 8.91148 21.1687 8.99891 21.1046 9.06338C21.0405 9.12785 20.9535 9.16406 20.8629 9.16406Z" fill="black"/>
<path d="M14.7101 23C13.8312 23 12.9721 22.7379 12.2413 22.2469C11.5106 21.7558 10.941 21.0579 10.6047 20.2414C10.2683 19.4248 10.1803 18.5263 10.3518 17.6594C10.5233 16.7926 10.9465 15.9963 11.5679 15.3714C12.1894 14.7464 12.9812 14.3208 13.8432 14.1484C14.7052 13.9759 15.5987 14.0644 16.4106 14.4027C17.2226 14.7409 17.9166 15.3137 18.4049 16.0485C18.8932 16.7834 19.1538 17.6474 19.1538 18.5313C19.1524 19.716 18.6838 20.8519 17.8508 21.6896C17.0177 22.5274 15.8882 22.9986 14.7101 23ZM14.7101 14.75C13.9664 14.75 13.2395 14.9718 12.6211 15.3873C12.0028 15.8027 11.5209 16.3933 11.2363 17.0842C10.9517 17.7752 10.8772 18.5354 11.0223 19.2689C11.1674 20.0024 11.5255 20.6762 12.0514 21.205C12.5772 21.7338 13.2472 22.0939 13.9766 22.2398C14.7059 22.3857 15.462 22.3109 16.149 22.0247C16.8361 21.7385 17.4233 21.2538 17.8365 20.632C18.2496 20.0102 18.4702 19.2791 18.4702 18.5313C18.469 17.5288 18.0725 16.5676 17.3676 15.8588C16.6627 15.1499 15.707 14.7511 14.7101 14.75Z" fill="black"/>
<path d="M14.7101 19.5625C14.3721 19.5625 14.0416 19.4617 13.7606 19.2728C13.4795 19.084 13.2604 18.8155 13.1311 18.5015C13.0017 18.1874 12.9679 17.8418 13.0338 17.5084C13.0998 17.175 13.2625 16.8688 13.5016 16.6284C13.7406 16.388 14.0451 16.2243 14.3767 16.158C14.7082 16.0917 15.0518 16.1257 15.3641 16.2558C15.6764 16.3859 15.9434 16.6062 16.1312 16.8889C16.319 17.1715 16.4192 17.5038 16.4192 17.8438C16.4192 18.2996 16.2391 18.7368 15.9186 19.0591C15.5981 19.3814 15.1634 19.5625 14.7101 19.5625ZM14.7101 16.8125C14.5073 16.8125 14.309 16.873 14.1404 16.9863C13.9717 17.0996 13.8403 17.2607 13.7627 17.4491C13.6851 17.6375 13.6648 17.8449 13.7043 18.0449C13.7439 18.245 13.8416 18.4287 13.985 18.573C14.1284 18.7172 14.3111 18.8154 14.51 18.8552C14.7089 18.895 14.9151 18.8746 15.1025 18.7965C15.2899 18.7184 15.4501 18.5863 15.5627 18.4167C15.6754 18.2471 15.7356 18.0477 15.7356 17.8438C15.7356 17.5702 15.6275 17.3079 15.4352 17.1145C15.2429 16.9212 14.9821 16.8125 14.7101 16.8125Z" fill="black"/>
<path d="M17.1028 22.2266C17.0121 22.2266 16.9252 22.1903 16.8611 22.1259C16.797 22.0614 16.761 21.974 16.761 21.8828V21.625C16.761 21.078 16.5449 20.5534 16.1603 20.1666C15.7756 19.7798 15.254 19.5625 14.71 19.5625C14.1661 19.5625 13.6444 19.7798 13.2598 20.1666C12.8752 20.5534 12.6591 21.078 12.6591 21.625V21.8828C12.6591 21.974 12.6231 22.0614 12.559 22.1259C12.4949 22.1903 12.4079 22.2266 12.3173 22.2266C12.2266 22.2266 12.1397 22.1903 12.0756 22.1259C12.0115 22.0614 11.9755 21.974 11.9755 21.8828V21.625C11.9755 20.8957 12.2636 20.1962 12.7764 19.6805C13.2892 19.1647 13.9848 18.875 14.71 18.875C15.4353 18.875 16.1308 19.1647 16.6437 19.6805C17.1565 20.1962 17.4446 20.8957 17.4446 21.625V21.8828C17.4446 21.974 17.4086 22.0614 17.3445 22.1259C17.2804 22.1903 17.1935 22.2266 17.1028 22.2266Z" fill="black"/>
<path d="M3.73722 4.36707C3.62973 4.36701 3.52261 4.35432 3.41805 4.32925C3.19933 4.27684 2.99684 4.171 2.82851 4.0211C2.66018 3.8712 2.53121 3.68187 2.45302 3.46987C2.37483 3.25787 2.34983 3.02976 2.38024 2.80572C2.41065 2.58169 2.49553 2.36866 2.62736 2.1855C2.75919 2.00233 2.93391 1.85469 3.13603 1.75564C3.33815 1.65659 3.56144 1.6092 3.78613 1.61766C4.01081 1.62612 4.22995 1.69017 4.42414 1.80414C4.61833 1.91811 4.78158 2.07848 4.89942 2.27105C5.08911 2.58158 5.14846 2.95514 5.06441 3.30965C4.98037 3.66416 4.75981 3.97061 4.4512 4.16168C4.23688 4.29567 3.98959 4.36681 3.73722 4.36707ZM3.73338 2.30457C3.58216 2.30468 3.43525 2.3552 3.31563 2.44824C3.19601 2.54127 3.11045 2.67156 3.07232 2.81872C3.03419 2.96588 3.04566 3.12159 3.10492 3.2615C3.16418 3.4014 3.26789 3.5176 3.39983 3.59191C3.53177 3.66621 3.68448 3.69443 3.83406 3.67214C3.98365 3.64986 4.12166 3.57833 4.22651 3.46875C4.33136 3.35916 4.39712 3.21772 4.4135 3.06654C4.42988 2.91537 4.39596 2.763 4.31704 2.63328C4.25536 2.5334 4.16942 2.45094 4.06731 2.39366C3.96521 2.33638 3.85029 2.30616 3.73338 2.30586V2.30457Z" fill="black"/>
<path d="M5.71934 6.57961C5.6609 6.57964 5.60343 6.56461 5.55242 6.53595C5.5014 6.50729 5.45854 6.46596 5.42794 6.4159L3.98118 4.0509C3.9559 4.01245 3.93858 3.96929 3.93023 3.92398C3.92187 3.87867 3.92267 3.83213 3.93256 3.78713C3.94245 3.74214 3.96123 3.6996 3.9878 3.66205C4.01437 3.6245 4.04817 3.5927 4.0872 3.56856C4.12623 3.54441 4.16969 3.5284 4.21499 3.52148C4.2603 3.51456 4.30652 3.51687 4.35092 3.52827C4.39532 3.53968 4.43699 3.55995 4.47344 3.58787C4.5099 3.61579 4.5404 3.6508 4.56313 3.69082L6.01117 6.05711C6.05861 6.13473 6.07346 6.22811 6.05247 6.31673C6.03148 6.40536 5.97636 6.48198 5.89923 6.52976C5.84513 6.56309 5.78277 6.58037 5.71934 6.57961Z" fill="black"/>
<path d="M14.6703 4.25542C14.6057 4.25535 14.5425 4.23688 14.4879 4.20213L12.9992 3.25682C12.9226 3.20805 13.0199 3.08896 13 3C12.9801 2.91104 13.0587 2.93974 13.1072 2.8627C13.1557 2.78566 13.0187 2.6509 13.1072 2.63092C13.1957 2.61093 13.2884 2.62711 13.365 2.67588L14.8536 3.6212C14.9162 3.66105 14.9643 3.72028 14.9905 3.78998C15.0168 3.85967 15.0198 3.93605 14.9991 4.00761C14.9784 4.07917 14.9351 4.14203 14.8759 4.18672C14.8166 4.23142 14.7444 4.25553 14.6703 4.25542Z" fill="black"/>
<path d="M2.36472 16.5835C2.06223 16.5829 1.76846 16.4815 1.52942 16.2951C1.29037 16.1087 1.11955 15.8478 1.04369 15.5533C0.967834 15.2588 0.991224 14.9474 1.1102 14.6677C1.22918 14.388 1.43703 14.1559 1.7012 14.0077C1.96537 13.8595 2.27095 13.8036 2.5701 13.8487C2.86925 13.8938 3.14508 14.0374 3.35439 14.2571C3.5637 14.4767 3.69469 14.7599 3.72684 15.0624C3.75898 15.3649 3.69048 15.6695 3.53205 15.9287C3.43846 16.0826 3.31548 16.2164 3.1702 16.3223C3.02492 16.4282 2.86022 16.5041 2.68561 16.5457C2.58049 16.5709 2.47279 16.5836 2.36472 16.5835ZM2.36857 14.521C2.3149 14.5211 2.26142 14.5275 2.20919 14.5399C2.04054 14.5806 1.89372 14.6846 1.79877 14.8306C1.70382 14.9765 1.6679 15.1535 1.69836 15.3252C1.72882 15.4969 1.82336 15.6504 1.96265 15.7544C2.10194 15.8583 2.27545 15.9048 2.4477 15.8844C2.61996 15.864 2.77794 15.7781 2.88936 15.6445C3.00077 15.5108 3.05719 15.3393 3.04708 15.1652C3.03698 14.9911 2.96111 14.8274 2.83498 14.7077C2.70886 14.5879 2.54202 14.5211 2.36857 14.521Z" fill="black"/>
<path d="M2.90438 14.6738C2.84113 14.6735 2.77923 14.6554 2.72578 14.6214C2.64864 14.5736 2.59353 14.497 2.57254 14.4084C2.55154 14.3197 2.5664 14.2263 2.61383 14.1487L3.86661 12.1034C3.88934 12.0634 3.91984 12.0284 3.95629 12.0005C3.99275 11.9725 4.03441 11.9523 4.07881 11.9409C4.12321 11.9295 4.16944 11.9272 4.21474 11.9341C4.26005 11.941 4.30351 11.957 4.34254 11.9812C4.38157 12.0053 4.41537 12.0371 4.44194 12.0746C4.4685 12.1122 4.48729 12.1547 4.49718 12.1997C4.50707 12.2447 4.50786 12.2913 4.49951 12.3366C4.49116 12.3819 4.47383 12.4251 4.44856 12.4635L3.19578 14.5101C3.16518 14.5602 3.12232 14.6015 3.0713 14.6302C3.02029 14.6588 2.96282 14.6738 2.90438 14.6738Z" fill="black"/>
<path d="M11.0483 8.1567C10.9691 8.15655 10.8924 8.12874 10.8313 8.07802C10.7702 8.02731 10.7285 7.95683 10.7134 7.87864C10.6983 7.80045 10.7106 7.71941 10.7483 7.64935C10.786 7.57929 10.8467 7.52458 10.9201 7.49456L14.3481 6.0942C14.3901 6.07524 14.4354 6.06498 14.4813 6.06404C14.5273 6.06309 14.573 6.07148 14.6157 6.08871C14.6583 6.10594 14.6971 6.13164 14.7297 6.16429C14.7622 6.19694 14.7879 6.23586 14.8052 6.27872C14.8224 6.32158 14.8309 6.36749 14.8301 6.41373C14.8293 6.45996 14.8192 6.50555 14.8005 6.54778C14.7817 6.59 14.7547 6.62799 14.7211 6.65948C14.6874 6.69096 14.6477 6.71529 14.6045 6.731L11.1769 8.13264C11.1359 8.14891 11.0923 8.15708 11.0483 8.1567Z" fill="black"/>
<path d="M12.5557 15.3657C12.5072 15.3656 12.4592 15.3551 12.415 15.3349C12.3708 15.3146 12.3314 15.2852 12.2994 15.2484L10.3006 12.9513C10.2678 12.918 10.2421 12.8783 10.2251 12.8346C10.2082 12.791 10.2002 12.7443 10.2019 12.6975C10.2035 12.6506 10.2146 12.6046 10.2346 12.5623C10.2545 12.5199 10.2829 12.4821 10.3179 12.4512C10.3529 12.4203 10.3939 12.3969 10.4382 12.3824C10.4825 12.368 10.5293 12.3628 10.5757 12.3673C10.6221 12.3717 10.6671 12.3856 10.708 12.4081C10.7488 12.4307 10.7847 12.4614 10.8133 12.4984L12.8121 14.7955C12.8553 14.8452 12.8834 14.9063 12.893 14.9715C12.9027 15.0368 12.8934 15.1035 12.8664 15.1636C12.8394 15.2237 12.7957 15.2747 12.7406 15.3106C12.6855 15.3464 12.6213 15.3656 12.5557 15.3657Z" fill="black"/>
<path d="M7.83732 18.7151C7.58493 18.7148 7.33757 18.644 7.12291 18.5105C6.85342 18.3438 6.64976 18.0883 6.54664 17.7875C6.44352 17.4867 6.44733 17.1592 6.55742 16.8609C6.66751 16.5626 6.87706 16.312 7.15036 16.1516C7.42365 15.9913 7.74378 15.9313 8.05616 15.9818C8.36855 16.0322 8.65386 16.1901 8.86347 16.4284C9.07308 16.6668 9.194 16.9708 9.20564 17.2888C9.21727 17.6068 9.11889 17.9189 8.92727 18.1721C8.73565 18.4253 8.46264 18.6038 8.15479 18.6772C8.05078 18.7022 7.94424 18.7149 7.83732 18.7151ZM7.84074 16.6526C7.78707 16.6527 7.73359 16.659 7.68136 16.6715C7.54984 16.703 7.43056 16.773 7.33861 16.8727C7.24665 16.9723 7.18615 17.0972 7.16474 17.2314C7.14334 17.3657 7.162 17.5033 7.21836 17.6269C7.27473 17.7504 7.36626 17.8545 7.4814 17.9257C7.57136 17.9813 7.67291 18.0153 7.77809 18.0248C7.88327 18.0343 7.98922 18.0192 8.08762 17.9807C8.18602 17.9421 8.27421 17.8812 8.34525 17.8026C8.4163 17.724 8.46828 17.6299 8.49712 17.5278C8.52595 17.4256 8.53086 17.3181 8.51145 17.2137C8.49205 17.1093 8.44886 17.0109 8.38527 16.9261C8.32168 16.8413 8.23942 16.7725 8.14494 16.725C8.05047 16.6776 7.94634 16.6528 7.84074 16.6526Z" fill="black"/>
<path d="M10.6432 19.419C10.5801 19.4191 10.5182 19.4014 10.4646 19.3679L8.53376 18.1729C8.49544 18.1493 8.46212 18.1183 8.43571 18.0817C8.4093 18.0451 8.39032 18.0036 8.37984 17.9597C8.36937 17.9157 8.36761 17.8701 8.37466 17.8254C8.38172 17.7808 8.39745 17.738 8.42096 17.6994C8.44447 17.6609 8.4753 17.6274 8.51169 17.6008C8.54807 17.5743 8.58931 17.5552 8.63303 17.5446C8.67675 17.5341 8.72211 17.5323 8.76651 17.5394C8.81092 17.5465 8.8535 17.5623 8.89182 17.586L10.8227 18.7809C10.886 18.8202 10.9349 18.8792 10.9619 18.9489C10.9889 19.0187 10.9925 19.0954 10.9722 19.1673C10.9519 19.2393 10.9088 19.3027 10.8494 19.3478C10.79 19.3929 10.7176 19.4173 10.6432 19.4173V19.419Z" fill="black"/>
<path d="M20.9731 17.3393C19.5994 17.3393 19.0807 15.52 20.254 14.7939C20.4069 14.6979 20.5772 14.6333 20.755 14.6038C20.9329 14.5743 21.1148 14.5804 21.2902 14.6218C21.4657 14.6633 21.6313 14.7392 21.7775 14.8452C21.9237 14.9512 22.0476 15.0853 22.1421 15.2396C22.2366 15.394 22.2998 15.5656 22.3281 15.7446C22.3564 15.9236 22.3492 16.1065 22.307 16.2827C22.2647 16.4589 22.1882 16.625 22.0819 16.7714C21.9756 16.9178 21.8416 17.0416 21.6875 17.1357C21.4728 17.2689 21.2254 17.3394 20.9731 17.3393ZM20.9697 15.2773C20.864 15.2774 20.7598 15.3021 20.6652 15.3495C20.5707 15.3969 20.4883 15.4657 20.4247 15.5505C20.361 15.6354 20.3177 15.7339 20.2983 15.8383C20.2789 15.9428 20.2838 16.0503 20.3126 16.1526C20.3415 16.2548 20.3935 16.3489 20.4647 16.4275C20.5358 16.5061 20.624 16.567 20.7225 16.6055C20.821 16.644 20.927 16.6591 21.0323 16.6494C21.1375 16.6398 21.2391 16.6058 21.329 16.55C21.9131 16.1886 21.6568 15.2773 20.9697 15.2773Z" fill="black"/>
<path d="M18.3641 17.5776C18.3167 17.5 18.3019 17.4066 18.3228 17.318C18.3438 17.2294 18.3989 17.1528 18.4761 17.105L19.9181 16.2108C19.9564 16.1854 19.9993 16.168 20.0443 16.1596C20.0894 16.1512 20.1357 16.152 20.1804 16.1619C20.2252 16.1719 20.2675 16.1908 20.3048 16.2175C20.3421 16.2442 20.3738 16.2782 20.3978 16.3174C20.4218 16.3567 20.4377 16.4004 20.4446 16.4459C20.4515 16.4915 20.4492 16.538 20.4378 16.5826C20.4265 16.6273 20.4063 16.6692 20.3786 16.7058C20.3508 16.7425 20.316 16.7732 20.2762 16.796L18.8341 17.6885C18.7572 17.7364 18.6645 17.7516 18.5764 17.7308C18.4882 17.71 18.4119 17.6549 18.3641 17.5776Z" fill="black"/>
</svg>
