<svg width="24" height="24" viewBox="0 0 24 24" fill="none" xmlns="http://www.w3.org/2000/svg">
<path d="M7.72175 22.1306C2.16166 19.7788 -0.505765 13.3373 1.86965 7.71984C4.22446 2.15417 10.6718 -0.502653 16.2837 1.86909C20.2827 3.56025 23 7.49651 23 11.9998C23 13.4839 22.7092 14.9236 22.1358 16.2798C19.7835 21.8386 13.3405 24.5054 7.72175 22.1306ZM12.0027 1.75992C6.35528 1.75992 1.76045 6.35368 1.76045 11.9998C1.76045 17.646 6.35528 22.2397 12.0027 22.2397C17.6502 22.2397 22.245 17.646 22.245 11.9998C22.245 6.35368 17.6502 1.75992 12.0027 1.75992Z" fill="black"/>
<path d="M12.0311 11.4307C12.0311 11.6378 12.199 11.8057 12.4061 11.8057L15.781 11.8057C15.9881 11.8057 16.156 11.6378 16.156 11.4307C16.156 11.2236 15.9881 11.0557 15.781 11.0557L12.7811 11.0557L12.7811 8.05563C12.7811 7.84852 12.6132 7.68063 12.4061 7.68063C12.199 7.68063 12.0311 7.84852 12.0311 8.05563L12.0311 11.4307ZM18.1018 6.26517C18.2482 6.11872 18.2482 5.88128 18.1018 5.73483C17.9554 5.58838 17.7179 5.58838 17.5715 5.73483L18.1018 6.26517ZM17.5715 5.73483L12.1409 11.1655L12.6712 11.6958L18.1018 6.26517L17.5715 5.73483Z" fill="black"/>
<path d="M11.8055 13C11.8055 12.7929 11.6376 12.625 11.4305 12.625L8.05557 12.625C7.84846 12.625 7.68057 12.7929 7.68058 13C7.68058 13.2071 7.84847 13.375 8.05558 13.375L11.0555 13.375L11.0556 16.375C11.0556 16.5821 11.2235 16.75 11.4306 16.75C11.6377 16.75 11.8056 16.5821 11.8056 16.375L11.8055 13ZM5.73486 18.1655C5.58842 18.312 5.58842 18.5494 5.73486 18.6959C5.88131 18.8423 6.11875 18.8423 6.26519 18.6959L5.73486 18.1655ZM6.26519 18.6959L11.6957 13.2652L11.1654 12.7348L5.73486 18.1655L6.26519 18.6959Z" fill="black"/>
</svg>
