<svg width="24" height="24" viewBox="0 0 24 24" fill="none" xmlns="http://www.w3.org/2000/svg">
<path d="M7.72175 22.1306C2.16166 19.7788 -0.505765 13.3373 1.86965 7.71984C4.22446 2.15417 10.6718 -0.502653 16.2837 1.86909C20.2827 3.56025 23 7.49651 23 11.9998C23 13.4839 22.7092 14.9236 22.1358 16.2798C19.7835 21.8386 13.3405 24.5054 7.72175 22.1306ZM12.0027 1.75992C6.35528 1.75992 1.76045 6.35368 1.76045 11.9998C1.76045 17.646 6.35528 22.2397 12.0027 22.2397C17.6502 22.2397 22.245 17.646 22.245 11.9998C22.245 6.35368 17.6502 1.75992 12.0027 1.75992Z" fill="black"/>
<path d="M12.0028 21.2428C6.90628 21.2428 2.75696 17.1169 2.75696 11.9991C2.75696 8.20194 5.055 4.8976 8.40378 3.48217C13.0722 1.50717 18.5238 3.67493 20.5217 8.40094C21.4645 10.6286 21.5181 13.2417 20.5217 15.5973C19.1084 18.9384 15.8102 21.2428 12.0028 21.2428ZM12.0028 3.51149C7.32121 3.51149 3.51257 7.31925 3.51257 11.9997C3.51257 16.6802 7.32121 20.488 12.0028 20.488C16.6843 20.488 20.493 16.6802 20.493 11.9997C20.493 7.31925 16.6843 3.51149 12.0028 3.51149Z" fill="black"/>
<path d="M6.67041 15.6366V8.36294C6.67041 7.98241 7.10094 7.76033 7.41042 7.97929L10.4659 10.1321C10.6363 10.2518 10.6775 10.4876 10.557 10.6579C10.4372 10.8282 10.2014 10.8694 10.0311 10.749L7.4254 8.91314V15.0864L10.0311 13.2505C10.2014 13.1307 10.4372 13.1713 10.557 13.3416C10.6775 13.5119 10.6363 13.7477 10.4659 13.8675L7.41042 16.0202C7.1078 16.2361 6.67041 16.024 6.67041 15.6366Z" fill="black"/>
<path d="M9.87128 15.6368V8.36309C9.87128 8.18718 9.96861 8.02748 10.1246 7.94638C10.2812 7.86529 10.4678 7.87776 10.6113 7.97945L15.349 11.3168C15.6335 11.5177 15.5156 11.9588 15.178 11.9999C15.5187 12.0417 15.6304 12.4853 15.349 12.683L10.6113 16.0204C10.3049 16.2394 9.87128 16.0198 9.87128 15.6368ZM10.6263 8.91329V15.0866L14.9141 12.066C14.9665 12.0292 15.0252 12.0074 15.0844 11.9999C15.0252 11.9924 14.9665 11.9706 14.9141 11.9338L10.6263 8.91329Z" fill="black"/>
<path d="M16.0447 16.6288C15.3334 16.6288 14.7544 16.0499 14.7544 15.3387V8.66016C14.7544 7.94902 15.3334 7.37012 16.0447 7.37012C16.7561 7.37012 17.3351 7.94902 17.3351 8.66016V15.3387C17.3351 16.0499 16.7561 16.6288 16.0447 16.6288ZM16.0447 8.12493C15.7496 8.12493 15.5094 8.3651 15.5094 8.66016V15.3387C15.5094 15.6338 15.7496 15.8739 16.0447 15.8739C16.3399 15.8739 16.5801 15.6338 16.5801 15.3387V8.66016C16.5801 8.3651 16.3399 8.12493 16.0447 8.12493Z" fill="black"/>
</svg>
