<svg width="24" height="24" viewBox="0 0 24 24" fill="none" xmlns="http://www.w3.org/2000/svg">
<path d="M3.35528 14.2219C1.92445 13.079 1.00775 11.3195 1.00775 9.34591C1.00775 5.9013 3.80015 3.10889 7.24475 3.10889C9.07986 3.10889 10.7299 3.90143 11.8711 5.16291" stroke="black" stroke-width="0.75"/>
<path d="M20.1725 14.2958C21.8225 13.7458 22.8372 11.1931 22.8372 9.34591C22.8372 5.9013 20.0448 3.10889 16.6002 3.10889C14.753 3.10889 13.5725 3.8458 11.9225 4.9458" stroke="black" stroke-width="0.75"/>
<rect x="0.530325" y="9.11951e-06" width="4.24745" height="2.58163" rx="1.29082" transform="matrix(0.707112 -0.707102 0.707087 0.707126 1.62791 15.4548)" stroke="black" stroke-width="0.75"/>
<rect x="0.530325" y="9.11951e-06" width="4.24745" height="2.58163" rx="1.29082" transform="matrix(0.707112 -0.707102 0.707087 0.707126 3.38695 17.2136)" stroke="black" stroke-width="0.75"/>
<rect x="0.530325" y="9.11951e-06" width="4.24745" height="2.58163" rx="1.29082" transform="matrix(0.707112 -0.707102 0.707087 0.707126 5.1461 18.9729)" stroke="black" stroke-width="0.75"/>
<rect x="0.530325" y="9.11951e-06" width="4.24745" height="2.58163" rx="1.29082" transform="matrix(0.707112 -0.707102 0.707087 0.707126 6.90514 20.7317)" stroke="black" stroke-width="0.75"/>
<path d="M16.2583 7.14604L15.5806 7.82377C14.9581 8.44631 14.1137 8.79604 13.2333 8.79604V8.79604C12.3529 8.79604 11.5086 9.14578 10.8861 9.76831L10.5267 10.1277C10.315 10.3394 10.085 10.5367 9.80876 10.6521C9.34934 10.8439 8.58454 11.0222 8.00835 10.446C7.12835 9.56604 7.64169 8.61271 8.00835 8.24604L12.6021 4.57104" stroke="black" stroke-width="0.75"/>
<path d="M14.4448 11.5767L18.2878 15.4197C18.7805 15.9124 19.5793 15.9124 20.072 15.4197V15.4197C20.5613 14.9303 20.5651 14.1381 20.0805 13.6441L14.8925 8.356" stroke="black" stroke-width="0.75" stroke-linecap="round"/>
<path d="M12.6559 13.3657L16.5031 17.213C16.9935 17.7033 17.7884 17.7033 18.2788 17.213V17.213C18.7691 16.7226 18.7691 15.9276 18.2788 15.4373L14.4315 11.5901" stroke="black" stroke-width="0.75" stroke-linecap="round"/>
<path d="M11.6448 15.9324L14.7142 19.0018C15.2045 19.4921 15.9995 19.4921 16.4898 19.0018V19.0018C16.9802 18.5114 16.9802 17.7165 16.4898 17.2261L12.6426 13.3789" stroke="black" stroke-width="0.75" stroke-linecap="round"/>
<path d="M11.6314 19.4971L12.9251 20.7909C13.4155 21.2812 14.2105 21.2812 14.7008 20.7909V20.7909C15.1911 20.3005 15.1911 19.5055 14.7008 19.0152L11.6314 15.9458" stroke="black" stroke-width="0.75" stroke-linecap="round"/>
</svg>
