<svg width="24" height="24" viewBox="0 0 24 24" fill="none" xmlns="http://www.w3.org/2000/svg">
<path d="M22.6224 20.6135H1.37759C1.16913 20.6135 1 20.4443 1 20.2359V18.1532C1 17.9448 1.16913 17.7756 1.37759 17.7756H22.6224C22.8309 17.7756 23 17.9448 23 18.1532V20.2359C23 20.4443 22.8309 20.6135 22.6224 20.6135ZM1.75518 19.8583H22.2448V18.5308H1.75518V19.8583Z" fill="black"/>
<path d="M13.3562 18.5323C13.1478 18.5323 12.9786 18.3632 12.9786 18.1547V3.75518H2.86486V18.1547C2.86486 18.3632 2.69572 18.5323 2.48727 18.5323C2.27881 18.5323 2.10968 18.3632 2.10968 18.1547V3.37759C2.10968 3.16913 2.27881 3 2.48727 3H13.3562C13.5647 3 13.7338 3.16913 13.7338 3.37759V18.1547C13.7338 18.3632 13.5647 18.5323 13.3562 18.5323Z" fill="black"/>
<path d="M5.63169 7.41742H3.93722C3.72877 7.41742 3.55963 7.24828 3.55963 7.03983V5.34536C3.55963 5.13691 3.72877 4.96777 3.93722 4.96777H5.63169C5.84014 4.96777 6.00928 5.13691 6.00928 5.34536V7.03983C6.00928 7.24828 5.84014 7.41742 5.63169 7.41742ZM4.31481 6.66224H5.2541V5.72295H4.31481V6.66224Z" fill="black"/>
<path d="M8.76908 7.41742H7.07461C6.86616 7.41742 6.69702 7.24828 6.69702 7.03983V5.34536C6.69702 5.13691 6.86616 4.96777 7.07461 4.96777H8.76908C8.97753 4.96777 9.14667 5.13691 9.14667 5.34536V7.03983C9.14667 7.24828 8.97753 7.41742 8.76908 7.41742ZM7.4522 6.66224H8.39149V5.72295H7.4522V6.66224Z" fill="black"/>
<path d="M11.9058 7.41742H10.2113C10.0029 7.41742 9.83374 7.24828 9.83374 7.03983V5.34536C9.83374 5.13691 10.0029 4.96777 10.2113 4.96777H11.9058C12.1143 4.96777 12.2834 5.13691 12.2834 5.34536V7.03983C12.2834 7.24828 12.1143 7.41742 11.9058 7.41742ZM10.5889 6.66224H11.5282V5.72295H10.5889V6.66224Z" fill="black"/>
<path d="M5.63169 10.4662H3.93722C3.72877 10.4662 3.55963 10.2971 3.55963 10.0887V8.39419C3.55963 8.18574 3.72877 8.0166 3.93722 8.0166H5.63169C5.84014 8.0166 6.00928 8.18574 6.00928 8.39419V10.0887C6.00928 10.2971 5.84014 10.4662 5.63169 10.4662ZM4.31481 9.71107H5.2541V8.77178H4.31481V9.71107Z" fill="black"/>
<path d="M8.76908 10.4662H7.07461C6.86616 10.4662 6.69702 10.2971 6.69702 10.0887V8.39419C6.69702 8.18574 6.86616 8.0166 7.07461 8.0166H8.76908C8.97753 8.0166 9.14667 8.18574 9.14667 8.39419V10.0887C9.14667 10.2971 8.97753 10.4662 8.76908 10.4662ZM7.4522 9.71107H8.39149V8.77178H7.4522V9.71107Z" fill="black"/>
<path d="M11.9058 10.4662H10.2113C10.0029 10.4662 9.83374 10.2971 9.83374 10.0887V8.39419C9.83374 8.18574 10.0029 8.0166 10.2113 8.0166H11.9058C12.1143 8.0166 12.2834 8.18574 12.2834 8.39419V10.0887C12.2834 10.2971 12.1143 10.4662 11.9058 10.4662ZM10.5889 9.71107H11.5282V8.77178H10.5889V9.71107Z" fill="black"/>
<path d="M5.63169 13.5146H3.93722C3.72877 13.5146 3.55963 13.3455 3.55963 13.137V11.4425C3.55963 11.2341 3.72877 11.0649 3.93722 11.0649H5.63169C5.84014 11.0649 6.00928 11.2341 6.00928 11.4425V13.137C6.00928 13.3455 5.84014 13.5146 5.63169 13.5146ZM4.31481 12.7594H5.2541V11.8201H4.31481V12.7594Z" fill="black"/>
<path d="M8.76908 13.5146H7.07461C6.86616 13.5146 6.69702 13.3455 6.69702 13.137V11.4425C6.69702 11.2341 6.86616 11.0649 7.07461 11.0649H8.76908C8.97753 11.0649 9.14667 11.2341 9.14667 11.4425V13.137C9.14667 13.3455 8.97753 13.5146 8.76908 13.5146ZM7.4522 12.7594H8.39149V11.8201H7.4522V12.7594Z" fill="black"/>
<path d="M11.9058 13.5146H10.2113C10.0029 13.5146 9.83374 13.3455 9.83374 13.137V11.4425C9.83374 11.2341 10.0029 11.0649 10.2113 11.0649H11.9058C12.1143 11.0649 12.2834 11.2341 12.2834 11.4425V13.137C12.2834 13.3455 12.1143 13.5146 11.9058 13.5146ZM10.5889 12.7594H11.5282V11.8201H10.5889V12.7594Z" fill="black"/>
<path d="M5.63169 16.5632H3.93722C3.72877 16.5632 3.55963 16.394 3.55963 16.1856V14.4911C3.55963 14.2827 3.72877 14.1135 3.93722 14.1135H5.63169C5.84014 14.1135 6.00928 14.2827 6.00928 14.4911V16.1856C6.00928 16.394 5.84014 16.5632 5.63169 16.5632ZM4.31481 15.808H5.2541V14.8687H4.31481V15.808Z" fill="black"/>
<path d="M8.76908 16.5629H7.07461C6.86616 16.5629 6.69702 16.3938 6.69702 16.1853V14.4909C6.69702 14.2824 6.86616 14.1133 7.07461 14.1133H8.76908C8.97753 14.1133 9.14667 14.2824 9.14667 14.4909V16.1853C9.14667 16.3938 8.97753 16.5629 8.76908 16.5629ZM7.4522 15.8077H8.39149V14.8685H7.4522V15.8077Z" fill="black"/>
<path d="M11.9058 16.5629H10.2113C10.0029 16.5629 9.83374 16.3938 9.83374 16.1853V14.4909C9.83374 14.2824 10.0029 14.1133 10.2113 14.1133H11.9058C12.1143 14.1133 12.2834 14.2824 12.2834 14.4909V16.1853C12.2834 16.3938 12.1143 16.5629 11.9058 16.5629ZM10.5889 15.8077H11.5282V14.8685H10.5889V15.8077Z" fill="black"/>
<path d="M21.5127 18.5309C21.3042 18.5309 21.1351 18.3618 21.1351 18.1534V5.91948H13.3562C13.1477 5.91948 12.9786 5.75035 12.9786 5.5419C12.9786 5.33344 13.1477 5.16431 13.3562 5.16431H21.5133C21.7218 5.16431 21.8909 5.33344 21.8909 5.5419V18.1534C21.8903 18.3618 21.7218 18.5309 21.5127 18.5309Z" fill="black"/>
<path d="M16.7134 8.81561H15.0189C14.8104 8.81561 14.6413 8.64648 14.6413 8.43802V6.74356C14.6413 6.5351 14.8104 6.36597 15.0189 6.36597H16.7134C16.9218 6.36597 17.0909 6.5351 17.0909 6.74356V8.43802C17.0909 8.6471 16.9218 8.81561 16.7134 8.81561ZM15.3965 8.06043H16.3358V7.12114H15.3965V8.06043Z" fill="black"/>
<path d="M19.8502 8.81586H18.1557C17.9473 8.81586 17.7781 8.64672 17.7781 8.43827V6.7438C17.7781 6.53535 17.9473 6.36621 18.1557 6.36621H19.8502C20.0586 6.36621 20.2278 6.53535 20.2278 6.7438V8.43827C20.2278 8.64735 20.0586 8.81586 19.8502 8.81586ZM18.5333 8.06068H19.4726V7.12139H18.5333V8.06068Z" fill="black"/>
<path d="M16.7134 11.6533H15.0189C14.8104 11.6533 14.6413 11.4841 14.6413 11.2757V9.5812C14.6413 9.37275 14.8104 9.20361 15.0189 9.20361H16.7134C16.9218 9.20361 17.0909 9.37275 17.0909 9.5812V11.2757C17.0909 11.4841 16.9218 11.6533 16.7134 11.6533ZM15.3965 10.8981H16.3358V9.95879H15.3965V10.8981Z" fill="black"/>
<path d="M19.8502 11.6533H18.1557C17.9473 11.6533 17.7781 11.4841 17.7781 11.2757V9.5812C17.7781 9.37275 17.9473 9.20361 18.1557 9.20361H19.8502C20.0586 9.20361 20.2278 9.37275 20.2278 9.5812V11.2757C20.2278 11.4841 20.0586 11.6533 19.8502 11.6533ZM18.5333 10.8981H19.4726V9.95879H18.5333V10.8981Z" fill="black"/>
<path d="M16.7134 14.4924H15.0189C14.8104 14.4924 14.6413 14.3232 14.6413 14.1148V12.4203C14.6413 12.2119 14.8104 12.0427 15.0189 12.0427H16.7134C16.9218 12.0427 17.0909 12.2119 17.0909 12.4203V14.1148C17.0909 14.3232 16.9218 14.4924 16.7134 14.4924ZM15.3965 13.7372H16.3358V12.7979H15.3965V13.7372Z" fill="black"/>
<path d="M19.8502 14.4916H18.1557C17.9473 14.4916 17.7781 14.3225 17.7781 14.114V12.4196C17.7781 12.2111 17.9473 12.042 18.1557 12.042H19.8502C20.0586 12.042 20.2278 12.2111 20.2278 12.4196V14.114C20.2278 14.3225 20.0586 14.4916 19.8502 14.4916ZM18.5333 13.7365H19.4726V12.7972H18.5333V13.7365Z" fill="black"/>
<path d="M16.7134 17.3344H15.0189C14.8104 17.3344 14.6413 17.1653 14.6413 16.9568V15.2624C14.6413 15.0539 14.8104 14.8848 15.0189 14.8848H16.7134C16.9218 14.8848 17.0909 15.0539 17.0909 15.2624V16.9568C17.0909 17.1653 16.9218 17.3344 16.7134 17.3344ZM15.3965 16.5792H16.3358V15.6399H15.3965V16.5792Z" fill="black"/>
<path d="M19.8502 17.3344H18.1557C17.9473 17.3344 17.7781 17.1653 17.7781 16.9568V15.2624C17.7781 15.0539 17.9473 14.8848 18.1557 14.8848H19.8502C20.0586 14.8848 20.2278 15.0539 20.2278 15.2624V16.9568C20.2278 17.1653 20.0586 17.3344 19.8502 17.3344ZM18.5333 16.5792H19.4726V15.6399H18.5333V16.5792Z" fill="black"/>
</svg>
