<svg width="24" height="24" viewBox="0 0 24 24" fill="none" xmlns="http://www.w3.org/2000/svg">
<path d="M10.37 8.43926L12 2.432L13.63 8.43925C13.7377 8.83605 14.1721 9.04524 14.5494 8.88202L20.2624 6.41096L16.582 11.4308C16.3389 11.7624 16.4462 12.2324 16.8091 12.4257L22.303 15.3516L16.0837 15.604C15.6729 15.6207 15.3723 15.9976 15.4474 16.4018L16.5853 22.5214L12.5102 17.8163C12.2411 17.5055 11.7589 17.5055 11.4898 17.8163L7.41471 22.5214L8.55257 16.4018C8.62773 15.9976 8.32712 15.6207 7.91632 15.604L1.69696 15.3516L7.19089 12.4257C7.55378 12.2324 7.66107 11.7624 7.41796 11.4308L3.7376 6.41096L9.45057 8.88202C9.82793 9.04524 10.2623 8.83605 10.37 8.43926Z" stroke="black" stroke-width="0.75"/>
</svg>
