<svg width="24" height="24" viewBox="0 0 24 24" fill="none" xmlns="http://www.w3.org/2000/svg">
<rect x="0.375" y="0.375" width="23.25" height="23.25" rx="11.625" fill="#FFC700" stroke="black" stroke-width="0.75"/>
<rect x="2.77499" y="2.7749" width="18.45" height="18.45" rx="9.225" stroke="black" stroke-width="0.75"/>
<path d="M12.2549 16.7301C11.2972 16.7301 10.4999 16.5199 9.8629 16.0996C9.2259 15.6793 8.8424 15.0639 8.7124 14.2536L9.7784 14.1691C9.92574 14.7281 10.2161 15.1463 10.6494 15.4236C11.0871 15.6966 11.6201 15.8331 12.2484 15.8331C12.6254 15.8331 12.9829 15.7681 13.3209 15.6381C13.6632 15.5038 13.9406 15.3174 14.1529 15.0791C14.3696 14.8364 14.4779 14.5526 14.4779 14.2276C14.4779 13.7943 14.3501 13.4454 14.0944 13.1811C13.8431 12.9124 13.4444 12.7001 12.8984 12.5441L11.2539 12.0956C10.5606 11.9093 10.0124 11.6319 9.6094 11.2636C9.21074 10.8953 9.00924 10.4013 9.0049 9.7816C9.0049 9.25293 9.14357 8.7871 9.4209 8.3841C9.69824 7.97676 10.0839 7.65826 10.5779 7.4286C11.0762 7.19893 11.6547 7.0841 12.3134 7.0841C12.9374 7.0841 13.4747 7.20543 13.9254 7.4481C14.3761 7.69076 14.7271 8.01143 14.9784 8.4101C15.2297 8.80443 15.3684 9.23343 15.3944 9.6971L14.3609 9.7751C14.2569 9.1771 14.0337 8.72643 13.6914 8.4231C13.3534 8.11976 12.8919 7.9681 12.3069 7.9681C12.0339 7.9681 11.7652 8.00493 11.5009 8.0786C11.2409 8.14793 11.0047 8.2541 10.7924 8.3971C10.5844 8.5401 10.4176 8.71993 10.2919 8.9366C10.1662 9.15326 10.1034 9.40676 10.1034 9.6971C10.1034 10.0524 10.2269 10.3341 10.4739 10.5421C10.7252 10.7501 11.1781 10.9559 11.8324 11.1596L13.4054 11.6211C14.1854 11.8464 14.7401 12.1888 15.0694 12.6481C15.4031 13.1031 15.5699 13.6231 15.5699 14.2081C15.5699 14.6978 15.4291 15.1333 15.1474 15.5146C14.8701 15.8916 14.4822 16.1884 13.9839 16.4051C13.4856 16.6218 12.9092 16.7301 12.2549 16.7301ZM11.8324 5.7776H12.8009V7.4546H11.8324V5.7776ZM11.7479 16.3141H12.7164V17.9911H11.7479V16.3141Z" fill="black"/>
</svg>
