<svg width="24" height="24" viewBox="0 0 24 24" fill="none" xmlns="http://www.w3.org/2000/svg">
<mask id="mask0_214_796" style="mask-type:alpha" maskUnits="userSpaceOnUse" x="2" y="2" width="20" height="20">
<circle cx="12" cy="12" r="9.625" fill="#D9D9D9" stroke="black" stroke-width="0.75"/>
</mask>
<g mask="url(#mask0_214_796)">
<circle cx="12" cy="12" r="9.625" stroke="black" stroke-width="0.75"/>
<path d="M21.625 1.5C21.625 3.42657 20.5847 5.19934 18.8461 6.5033C17.1073 7.80734 14.6881 8.625 12 8.625C9.31187 8.625 6.89266 7.80734 5.15393 6.5033C3.41532 5.19934 2.375 3.42657 2.375 1.5C2.375 -0.42657 3.41532 -2.19934 5.15393 -3.5033C6.89266 -4.80734 9.31187 -5.625 12 -5.625C14.6881 -5.625 17.1073 -4.80734 18.8461 -3.5033C20.5847 -2.19934 21.625 -0.42657 21.625 1.5Z" stroke="black" stroke-width="0.75"/>
<path d="M12 2.375C13.4734 2.375 14.8713 3.37231 15.9211 5.12187C16.9663 6.86396 17.625 9.29486 17.625 12C17.625 14.7051 16.9663 17.136 15.9211 18.8781C14.8713 20.6277 13.4734 21.625 12 21.625C10.5266 21.625 9.12866 20.6277 8.07892 18.8781C7.03366 17.136 6.375 14.7051 6.375 12C6.375 9.29486 7.03366 6.86396 8.07892 5.12187C9.12866 3.37231 10.5266 2.375 12 2.375Z" stroke="black" stroke-width="0.75"/>
<path d="M21.625 22.5C21.625 24.4266 20.5847 26.1993 18.8461 27.5033C17.1073 28.8073 14.6881 29.625 12 29.625C9.31187 29.625 6.89266 28.8073 5.15393 27.5033C3.41532 26.1993 2.375 24.4266 2.375 22.5C2.375 20.5734 3.41532 18.8007 5.15393 17.4967C6.89266 16.1927 9.31187 15.375 12 15.375C14.6881 15.375 17.1073 16.1927 18.8461 17.4967C20.5847 18.8007 21.625 20.5734 21.625 22.5Z" stroke="black" stroke-width="0.75"/>
<line x1="11.875" y1="2" x2="11.875" y2="22" stroke="black" stroke-width="0.75"/>
</g>
</svg>
