<svg width="24" height="24" viewBox="0 0 24 24" fill="none" xmlns="http://www.w3.org/2000/svg">
<path d="M10.7527 8.22998C13.3927 11.035 17 14.8577 19 22.3577" stroke="black" stroke-width="0.824999" stroke-linecap="round" stroke-linejoin="round"/>
<path d="M6.5878 7.65813C4.25866 6.55109 3.04331 4.39778 3.27839 1.72715C3.29999 1.48177 3.51228 1.29888 3.75845 1.30792C8.02221 1.4644 10.678 3.91484 11.7257 5.10972C11.9724 5.39097 12.4512 5.35597 12.6276 5.02613L12.835 4.63844C12.9916 4.34553 13.3793 4.29137 13.5915 4.54692C14.4724 5.60775 16.387 8.29124 16.6713 11.8598C16.6872 12.0591 16.8208 12.1524 16.9586 12.0076C17.1139 11.8445 17.3489 11.5377 17.6927 10.962C17.9018 10.612 18.4214 10.6305 18.577 11.0073C20.7752 16.3304 19.4578 19.4181 18.2178 20.0892C18.1909 20.1037 18.1633 20.1143 18.1337 20.1222C16.9774 20.432 15.2065 20.1083 13.7228 18.13C12.5111 16.5145 10.6983 15.4848 9.48697 14.6825C9.16523 14.4694 9.23581 13.9995 9.59248 13.8521C9.91486 13.7189 10.2939 13.5525 10.6556 13.37C11.0605 13.1658 10.9069 12.6553 10.4599 12.5794C8.06353 12.1724 6.62578 10.677 6.01451 9.63453C5.88194 9.40844 5.98618 9.12933 6.22564 9.02279C6.33767 8.97295 6.46481 8.91784 6.60507 8.85893C7.06795 8.66454 7.04123 7.87365 6.5878 7.65813Z" stroke="black" stroke-width="0.824999" stroke-linejoin="round"/>
</svg>
