<svg width="24" height="24" viewBox="0 0 24 24" fill="none" xmlns="http://www.w3.org/2000/svg">
<path d="M14.5904 16.5821C13.8793 16.5821 13.3004 16.0032 13.3004 15.2921V8.61353C13.3004 7.90238 13.8793 7.32349 14.5904 7.32349C15.3015 7.32349 15.8804 7.90238 15.8804 8.61353V15.2921C15.8804 16.0032 15.3015 16.5821 14.5904 16.5821ZM14.5904 8.0783C14.2953 8.0783 14.0552 8.31847 14.0552 8.61353V15.2921C14.0552 15.5871 14.2953 15.8273 14.5904 15.8273C14.8855 15.8273 15.1256 15.5871 15.1256 15.2921V8.61353C15.1256 8.31847 14.8855 8.0783 14.5904 8.0783Z" fill="black"/>
<path d="M9.80671 16.5824C9.09556 16.5824 8.51666 16.0035 8.51666 15.2923V8.61378C8.51666 7.90263 9.09556 7.32373 9.80671 7.32373C10.5179 7.32373 11.0968 7.90263 11.0968 8.61378V15.2923C11.0968 16.0035 10.5179 16.5824 9.80671 16.5824ZM9.80671 8.07854C9.51165 8.07854 9.27148 8.31871 9.27148 8.61378V15.2923C9.27148 15.5874 9.51165 15.8276 9.80671 15.8276C10.1018 15.8276 10.3419 15.5874 10.3419 15.2923V8.61378C10.3419 8.31871 10.1018 8.07854 9.80671 8.07854Z" fill="black"/>
<circle cx="12" cy="12" r="10.625" stroke="black" stroke-width="0.75"/>
<circle cx="12" cy="12" r="8.625" stroke="black" stroke-width="0.75"/>
</svg>
