<svg width="24" height="24" viewBox="0 0 24 24" fill="none" xmlns="http://www.w3.org/2000/svg">
<path fill-rule="evenodd" clip-rule="evenodd" d="M3.38168 23.0003C3.12506 23.0003 2.8843 22.9008 2.70361 22.7201L1.28039 21.2971C0.906438 20.9231 0.906632 20.3149 1.28039 19.941L15.4922 5.7292C15.8661 5.35524 16.4743 5.35524 16.8483 5.7292L18.2713 7.15222C18.6453 7.52617 18.6453 8.13438 18.2713 8.50833L4.05954 22.7201C3.87904 22.9006 3.6383 23.0003 3.38168 23.0003ZM16.1704 6.28306C16.1382 6.28306 16.1061 6.29503 16.0821 6.31897L1.87036 20.5307C1.82249 20.5786 1.82249 20.6592 1.87036 20.7071L3.29338 22.1301C3.32458 22.1613 3.36204 22.166 3.38147 22.166C3.40109 22.166 3.43836 22.1613 3.46956 22.1301L17.6813 7.91837C17.7292 7.87049 17.7292 7.78986 17.6813 7.74198L16.2583 6.31896C16.2346 6.29503 16.2026 6.28306 16.1704 6.28306Z" fill="black"/>
<path fill-rule="evenodd" clip-rule="evenodd" d="M16.2572 10.3497C16.1505 10.3497 16.0437 10.3089 15.9623 10.2274L13.773 8.03807C13.6101 7.87523 13.6101 7.61115 13.773 7.44831C13.9358 7.28546 14.1999 7.28546 14.3627 7.44831L16.5521 9.63768C16.7149 9.80051 16.7149 10.0646 16.5521 10.2274C16.4707 10.3091 16.364 10.3497 16.2572 10.3497Z" fill="black"/>
<path fill-rule="evenodd" clip-rule="evenodd" d="M5.48431 21.1224C5.37759 21.1224 5.27085 21.0816 5.18942 21.0001L3.00006 18.8108C2.83722 18.6479 2.83722 18.3839 3.00006 18.221C3.16291 18.0582 3.42698 18.0582 3.58984 18.221L5.77921 20.4104C5.94204 20.5732 5.94204 20.8373 5.77921 21.0001C5.69798 21.0816 5.59105 21.1224 5.48431 21.1224Z" fill="black"/>
<path fill-rule="evenodd" clip-rule="evenodd" d="M19.1607 11.7999C19.0536 11.7999 18.9466 11.7587 18.8656 11.6776C18.714 11.526 18.702 11.2841 18.8379 11.1183C19.5564 10.2421 19.6137 9.43805 19.0184 8.58792C18.9023 8.42214 18.9221 8.19689 19.0651 8.05367C19.2084 7.91064 19.4336 7.89082 19.5994 8.00697C20.4495 8.60223 21.2535 8.54494 22.1297 7.82646C22.2955 7.69051 22.5374 7.70248 22.6891 7.85414C22.8408 8.00579 22.8527 8.2477 22.7168 8.4135C21.9983 9.28971 21.941 10.0937 22.5363 10.9439C22.6524 11.1096 22.6326 11.3349 22.4896 11.4781C22.3465 11.6211 22.1211 11.6409 21.9553 11.5248C21.1052 10.9295 20.3012 10.9868 19.425 11.7053C19.3479 11.7687 19.2543 11.7999 19.1607 11.7999ZM20.1958 9.18416C20.2853 9.57891 20.2769 9.9766 20.1707 10.3729C20.5668 10.2668 20.9647 10.2583 21.3595 10.3478C21.27 9.95326 21.2786 9.55518 21.3846 9.15925C20.9883 9.26519 20.5906 9.27362 20.1958 9.18416Z" fill="black"/>
<path fill-rule="evenodd" clip-rule="evenodd" d="M12.6175 5.25665C12.5104 5.25665 12.4035 5.21545 12.3225 5.13442C12.1708 4.98276 12.1588 4.74086 12.2948 4.57506C13.0133 3.69885 13.0706 2.89482 12.4753 2.0447C12.3591 1.87892 12.379 1.65368 12.522 1.51046C12.6652 1.36723 12.8903 1.34761 13.0562 1.46376C13.9062 2.05902 14.7104 2.00174 15.5866 1.28326C15.7524 1.14729 15.9943 1.15926 16.146 1.31093C16.2976 1.46259 16.3096 1.7045 16.1736 1.87029C15.4551 2.7465 15.3979 3.55053 15.9931 4.40065C16.1093 4.56643 16.0895 4.79167 15.9464 4.93489C15.8034 5.07792 15.578 5.09775 15.4122 4.9816C14.5621 4.38633 13.758 4.44361 12.8818 5.16208C12.8047 5.22545 12.7109 5.25665 12.6175 5.25665ZM13.6527 2.64094C13.7421 3.03569 13.7335 3.43338 13.6276 3.82971C14.0237 3.72356 14.4216 3.71513 14.8163 3.80459C14.7269 3.40984 14.7353 3.01215 14.8414 2.61603C14.4451 2.72197 14.0472 2.73041 13.6527 2.64094Z" fill="black"/>
<path fill-rule="evenodd" clip-rule="evenodd" d="M19.3494 5.06794C19.2423 5.06794 19.1354 5.02674 19.0543 4.94571C18.9027 4.79405 18.8907 4.55213 19.0267 4.38635C19.7451 3.51012 19.8024 2.7061 19.2072 1.85599C19.091 1.6902 19.1108 1.46497 19.2539 1.32173C19.3971 1.17871 19.6223 1.1589 19.7881 1.27505C20.6382 1.87031 21.4423 1.81302 22.3185 1.09455C22.4843 0.958573 22.7262 0.970541 22.8778 1.1222C23.0295 1.27386 23.0415 1.51578 22.9055 1.68157C22.187 2.55779 22.1297 3.3618 22.725 4.21192C22.8411 4.37772 22.8213 4.60294 22.6783 4.74618C22.5351 4.8892 22.3098 4.90901 22.144 4.79287C21.2939 4.1976 20.4899 4.2549 19.6137 4.97337C19.5366 5.03674 19.443 5.06794 19.3494 5.06794ZM20.3845 2.45224C20.474 2.84699 20.4656 3.24468 20.3594 3.64099C20.7556 3.53485 21.1534 3.52641 21.5482 3.61588C21.4587 3.22113 21.4674 2.82344 21.5733 2.42712C21.177 2.53327 20.7791 2.54169 20.3845 2.45224Z" fill="black"/>
</svg>
