<svg width="24" height="24" viewBox="0 0 24 24" fill="none" xmlns="http://www.w3.org/2000/svg">
<path fill-rule="evenodd" clip-rule="evenodd" d="M12.7315 21.4652C12.5365 21.4652 12.3712 21.3152 12.3555 21.1175C12.339 20.9095 12.4941 20.7275 12.7021 20.711C17.0015 20.3695 20.3694 17.0009 20.7102 12.7013C20.7267 12.4934 20.9094 12.3379 21.1166 12.3546C21.3246 12.3711 21.4798 12.5531 21.4633 12.761C21.2855 15.0035 20.3089 17.1173 18.7134 18.7131C17.118 20.3089 15.0043 21.2858 12.762 21.464C12.7517 21.4648 12.7416 21.4652 12.7315 21.4652ZM11.2686 21.465C11.2586 21.465 11.2485 21.4646 11.2383 21.4638C8.99583 21.2856 6.88218 20.3087 5.28667 18.713C3.69111 17.1173 2.71449 15.0035 2.53672 12.7611C2.52024 12.5531 2.67545 12.3712 2.88337 12.3547C3.09203 12.338 3.27326 12.4934 3.28973 12.7014C3.63054 17.0007 6.99855 20.3692 11.2981 20.7109C11.506 20.7274 11.6612 20.9093 11.6446 21.1173C11.629 21.315 11.4637 21.465 11.2686 21.465ZM21.086 11.6451C20.891 11.6451 20.7257 11.4951 20.7099 11.2974C20.3677 6.99958 16.9999 3.63237 12.7021 3.29088C12.4941 3.27436 12.339 3.09241 12.3555 2.88449C12.3721 2.67657 12.5541 2.52117 12.7619 2.53794C15.0037 2.71606 17.1169 3.69256 18.7122 5.28771C20.3075 6.88275 21.2844 8.99572 21.463 11.2374C21.4795 11.4454 21.3244 11.6274 21.1164 11.6439C21.1062 11.6447 21.0961 11.6451 21.086 11.6451ZM2.91417 11.6451C2.9041 11.6451 2.89396 11.6447 2.88378 11.6439C2.67586 11.6273 2.52071 11.4454 2.53729 11.2374C2.7158 8.99572 3.69271 6.8827 5.28798 5.28765C6.88329 3.69256 8.9965 2.71602 11.2383 2.53789C11.4467 2.52092 11.6282 2.67651 11.6447 2.88443C11.6612 3.0924 11.5061 3.27431 11.2981 3.29083C7.00037 3.63242 3.63255 6.99959 3.29028 11.2974C3.27454 11.4951 3.10916 11.6451 2.91417 11.6451Z" fill="black"/>
<path fill-rule="evenodd" clip-rule="evenodd" d="M11.2685 19.583C11.2559 19.583 11.2432 19.5823 11.2304 19.5811C7.64338 19.221 4.7792 16.3563 4.42 12.7694C4.3992 12.5618 4.55062 12.3768 4.75814 12.356C4.96538 12.3348 5.15077 12.4865 5.17158 12.6941C5.49513 15.9248 8.07496 18.5051 11.3058 18.8295C11.5134 18.8503 11.6647 19.0354 11.6439 19.243C11.6243 19.4377 11.4601 19.583 11.2685 19.583Z" fill="black"/>
<path fill-rule="evenodd" clip-rule="evenodd" d="M12.7314 19.5832C12.5398 19.5832 12.3756 19.438 12.356 19.2432C12.3352 19.0357 12.4866 18.8506 12.6941 18.8298C15.9248 18.5054 18.5045 15.9251 18.8281 12.6941C18.8489 12.4866 19.0333 12.3349 19.2416 12.356C19.4491 12.3768 19.6005 12.5619 19.5797 12.7694C19.2205 16.3564 16.3564 19.2213 12.7695 19.5813C12.7567 19.5827 12.744 19.5832 12.7314 19.5832Z" fill="black"/>
<path fill-rule="evenodd" clip-rule="evenodd" d="M19.2033 11.6475C19.0117 11.6475 18.8475 11.5023 18.8279 11.3076C18.5029 8.07835 15.9233 5.49928 12.6942 5.17517C12.4866 5.15437 12.3353 4.96922 12.3561 4.76165C12.377 4.55417 12.5614 4.40266 12.7696 4.42356C16.3546 4.78339 19.2186 7.64674 19.5795 11.2319C19.6004 11.4394 19.4491 11.6246 19.2415 11.6455C19.2287 11.6469 19.2159 11.6475 19.2033 11.6475Z" fill="black"/>
<path fill-rule="evenodd" clip-rule="evenodd" d="M4.79688 11.6474C4.78424 11.6474 4.77146 11.6468 4.75862 11.6455C4.55109 11.6246 4.39977 11.4395 4.42062 11.2319C4.78139 7.64673 7.64539 4.78343 11.2305 4.42356C11.4383 4.40266 11.6231 4.55412 11.644 4.76166C11.6648 4.96918 11.5135 5.15433 11.3059 5.17518C8.07676 5.4993 5.49716 8.07838 5.17219 11.3076C5.15263 11.5022 4.98842 11.6474 4.79688 11.6474Z" fill="black"/>
<path fill-rule="evenodd" clip-rule="evenodd" d="M12.0001 16.8171C9.34461 16.8171 7.1842 14.6568 7.1842 12.0014C7.1842 9.34592 9.34461 7.18555 12.0001 7.18555C14.6556 7.18555 16.8159 9.34592 16.8159 12.0014C16.8159 14.6568 14.6556 16.8171 12.0001 16.8171ZM12.0001 7.94095C9.76115 7.94095 7.93962 9.76245 7.93962 12.0014C7.93962 14.2403 9.76115 16.0618 12.0001 16.0618C14.2391 16.0618 16.0606 14.2403 16.0606 12.0014C16.0606 9.76245 14.2391 7.94095 12.0001 7.94095Z" fill="black"/>
<path fill-rule="evenodd" clip-rule="evenodd" d="M12.7319 6.67272H11.2681C11.0595 6.67272 10.8904 6.50365 10.8904 6.29504V1.37767C10.8904 1.16907 11.0595 1 11.2681 1H12.7319C12.9405 1 13.1096 1.16907 13.1096 1.37767V6.29503C13.1095 6.5036 12.9405 6.67272 12.7319 6.67272ZM11.6458 5.91732H12.3542V1.75536H11.6458V5.91732Z" fill="black"/>
<path fill-rule="evenodd" clip-rule="evenodd" d="M22.6223 13.108H17.705C17.4964 13.108 17.3273 12.9389 17.3273 12.7303V11.2666C17.3273 11.058 17.4963 10.8889 17.705 10.8889H22.6223C22.8309 10.8889 23 11.058 23 11.2666V12.7303C23 12.9389 22.8309 13.108 22.6223 13.108ZM18.0826 12.3527H22.2447V11.6443H18.0826V12.3527Z" fill="black"/>
<path fill-rule="evenodd" clip-rule="evenodd" d="M12.7319 22.9998H11.2681C11.0595 22.9998 10.8904 22.8307 10.8904 22.6221V17.7048C10.8904 17.4963 11.0595 17.3271 11.2681 17.3271H12.7319C12.9405 17.3271 13.1096 17.4962 13.1096 17.7048V22.6221C13.1095 22.8307 12.9405 22.9998 12.7319 22.9998ZM11.6458 22.2445H12.3542V18.0825L11.6458 18.0825V22.2445Z" fill="black"/>
<path fill-rule="evenodd" clip-rule="evenodd" d="M6.29508 13.1081H1.37768C1.16907 13.1081 1 12.939 1 12.7304V11.2666C1 11.058 1.16908 10.8889 1.37768 10.8889L6.29508 10.8889C6.50369 10.8889 6.67276 11.058 6.67276 11.2666V12.7304C6.6728 12.9389 6.50369 13.1081 6.29508 13.1081ZM1.75536 12.3527H5.91739V11.6443H1.75536V12.3527Z" fill="black"/>
</svg>
