<svg width="24" height="24" viewBox="0 0 24 24" fill="none" xmlns="http://www.w3.org/2000/svg">
<path fill-rule="evenodd" clip-rule="evenodd" d="M14.4497 23H9.4012C8.67093 23 8.06281 22.4753 7.95553 21.752L6.95449 15.0113C6.92347 14.8049 7.06629 14.6128 7.27245 14.5824C7.4786 14.552 7.67054 14.6943 7.70091 14.9007L8.70195 21.6407C8.75365 21.9907 9.0477 22.2443 9.4012 22.2443H14.4491C14.8006 22.2443 15.0869 22.0017 15.1464 21.6549L16.2941 14.8923C16.329 14.6865 16.5235 14.5481 16.729 14.583C16.9346 14.618 17.0729 14.8127 17.038 15.0184L15.8902 21.7817C15.7707 22.4876 15.1645 23 14.4497 23Z" fill="black"/>
<path fill-rule="evenodd" clip-rule="evenodd" d="M17.6164 15.3344H6.37741C6.16932 15.3344 6 15.1656 6 14.9566V13.5657C6 12.5907 6.7923 11.7969 7.76685 11.7969H16.2269C17.2008 11.7969 17.9938 12.59 17.9938 13.5657V14.9566C17.9931 15.1649 17.8245 15.3344 17.6164 15.3344ZM6.75482 14.5788H17.239V13.5657C17.239 13.0073 16.7853 12.5525 16.2269 12.5525H7.76685C7.20914 12.5525 6.75482 13.0067 6.75482 13.5657V14.5788Z" fill="black"/>
<path fill-rule="evenodd" clip-rule="evenodd" d="M8.08107 20.4058C7.87298 20.4058 7.7043 20.237 7.70366 20.0287C7.70366 19.8204 7.87233 19.6508 8.08042 19.6502L15.8064 19.6398H15.807C16.0151 19.6398 16.1838 19.8087 16.1844 20.017C16.1844 20.2253 16.0157 20.3949 15.8077 20.3955C15.4438 20.3961 8.08236 20.4058 8.08107 20.4058ZM7.33917 17.5715C7.33917 17.3632 7.50784 17.1937 7.71594 17.1937L16.2232 17.1833H16.2238C16.4319 17.1833 16.6013 17.3522 16.6013 17.5605C16.6013 17.7688 16.4326 17.9383 16.2245 17.9383L7.71723 17.9487C7.53111 17.9571 7.33917 17.7941 7.33917 17.5715Z" fill="black"/>
<path fill-rule="evenodd" clip-rule="evenodd" d="M13.8816 10.4097C13.3071 10.4097 12.7643 10.1768 12.2957 9.70714C11.433 8.91527 11.3955 7.66599 12.2007 6.52088C13.4616 4.69839 16.2185 4.38591 17.3456 4.3361C17.5704 4.32575 17.7546 4.51531 17.7385 4.74045C17.7288 4.86984 17.4935 7.92995 16.1093 9.32803C15.5276 9.91158 14.7108 10.4097 13.8816 10.4097ZM16.9371 5.11956C15.7693 5.22243 13.7556 5.59896 12.8186 6.95304C12.595 7.2707 11.939 8.36212 12.8102 9.15464C12.8147 9.15917 12.8199 9.16305 12.8237 9.16823C13.6858 10.0371 14.6875 9.65086 15.5748 8.79364C16.4815 7.87496 16.8247 5.97484 16.9371 5.11956Z" fill="black"/>
<path fill-rule="evenodd" clip-rule="evenodd" d="M13.9872 5.88866C13.7791 5.88414 13.6136 5.7114 13.6182 5.50308C13.6459 4.20657 12.5609 2.6487 12.0342 1.97069C11.4933 2.64805 10.3656 4.20593 10.3281 5.46102C10.3216 5.66935 10.1478 5.83303 9.93969 5.8272C9.7316 5.82073 9.56745 5.6467 9.57391 5.43838C9.63208 3.51756 11.6704 1.22215 11.757 1.12511C11.9037 0.961431 12.168 0.954314 12.3205 1.1277C12.4058 1.22474 14.415 3.52597 14.373 5.5199C14.3672 5.74051 14.1726 5.9016 13.9872 5.88866Z" fill="black"/>
<path fill-rule="evenodd" clip-rule="evenodd" d="M10.112 10.4097C9.396 10.4097 8.62955 10.0487 7.89088 9.33385C7.88894 9.33191 7.887 9.32997 7.88507 9.32803C6.50079 7.92931 6.26491 4.86984 6.25586 4.74045C6.23971 4.51401 6.42518 4.32575 6.64879 4.3361C7.77585 4.38592 10.5328 4.6984 11.7949 6.52347C12.5982 7.666 12.5607 8.91527 11.698 9.70779C11.2294 10.1768 10.6872 10.4097 10.112 10.4097ZM8.41887 8.79364C9.14655 9.49689 10.2142 10.1316 11.17 9.16823C11.1745 9.1637 11.179 9.15917 11.1835 9.15465C12.0547 8.36147 11.3987 7.2707 11.1764 6.95499C10.2381 5.59832 8.2237 5.22179 7.05592 5.11892C7.16902 5.97485 7.51218 7.87496 8.41887 8.79364Z" fill="black"/>
<path fill-rule="evenodd" clip-rule="evenodd" d="M11.9986 12.5523C11.7905 12.5523 11.6212 12.3834 11.6212 12.1744V8.1122C11.6212 7.90388 11.7898 7.73438 11.9986 7.73438C12.2067 7.73438 12.376 7.90323 12.376 8.1122V12.1744C12.376 12.3834 12.2067 12.5523 11.9986 12.5523Z" fill="black"/>
</svg>
