<svg width="24" height="24" viewBox="0 0 24 24" fill="none" xmlns="http://www.w3.org/2000/svg">
<path d="M22.6224 22.4555H1.37759C1.16913 22.4555 1 22.2863 1 22.0779V12.8292C1 12.71 1.05617 12.5976 1.15166 12.5265L6.6476 8.42479C6.89538 8.23943 7.25112 8.41605 7.25112 8.72748V12.2543L13.3244 7.89804C13.5734 7.71954 13.9223 7.89741 13.9223 8.20448V12.6925H22.6224C22.8309 12.6925 23 12.8616 23 13.0701V22.0773C23 22.2863 22.8309 22.4555 22.6224 22.4555ZM1.75518 21.6997H22.2448V13.4483H13.5447C13.3362 13.4483 13.1671 13.2791 13.1671 13.0707V8.94093L7.09384 13.2972C6.84482 13.4757 6.49594 13.2979 6.49594 12.9908V9.48141L1.75518 13.0189V21.6997Z" fill="black"/>
<path d="M8.7496 22.4542C8.54115 22.4542 8.37201 22.285 8.37201 22.0766V15.916H4.55993V22.0766C4.55993 22.285 4.39079 22.4542 4.18234 22.4542C3.97388 22.4542 3.80475 22.285 3.80475 22.0766V15.5377C3.80475 15.3293 3.97388 15.1602 4.18234 15.1602H8.7496C8.95805 15.1602 9.12719 15.3293 9.12719 15.5377V22.076C9.12719 22.285 8.95805 22.4542 8.7496 22.4542Z" fill="black"/>
<path d="M7.38528 19.7042C7.17683 19.7042 7.00769 19.5351 7.00769 19.3266V18.2887C7.00769 18.0803 7.17683 17.9111 7.38528 17.9111C7.59373 17.9111 7.76287 18.0803 7.76287 18.2887V19.3266C7.76287 19.5351 7.59373 19.7042 7.38528 19.7042Z" fill="black"/>
<path d="M15.9656 20.8429H13.7007C13.4923 20.8429 13.3231 20.6738 13.3231 20.4654V18.3952C13.3231 18.1867 13.4923 18.0176 13.7007 18.0176H15.9656C16.1741 18.0176 16.3432 18.1867 16.3432 18.3952V20.4654C16.3432 20.6738 16.1741 20.8429 15.9656 20.8429ZM14.0783 20.0878H15.5874V18.7728H14.0783V20.0878Z" fill="black"/>
<path d="M20.5896 20.8429H18.3247C18.1163 20.8429 17.9471 20.6738 17.9471 20.4654V18.3952C17.9471 18.1867 18.1163 18.0176 18.3247 18.0176H20.5896C20.7981 18.0176 20.9672 18.1867 20.9672 18.3952V20.4654C20.9672 20.6738 20.7981 20.8429 20.5896 20.8429ZM18.7029 20.0878H20.2121V18.7728H18.7029V20.0878Z" fill="black"/>
<path d="M15.9656 17.1288H13.7007C13.4923 17.1288 13.3231 16.9597 13.3231 16.7512V14.6811C13.3231 14.4726 13.4923 14.3035 13.7007 14.3035H15.9656C16.1741 14.3035 16.3432 14.4726 16.3432 14.6811V16.7512C16.3432 16.9597 16.1741 17.1288 15.9656 17.1288ZM14.0783 16.373H15.5874V15.058H14.0783V16.373Z" fill="black"/>
<path d="M20.5896 17.1291H18.3247C18.1163 17.1291 17.9471 16.9599 17.9471 16.7515V14.6813C17.9471 14.4728 18.1163 14.3037 18.3247 14.3037H20.5896C20.7981 14.3037 20.9672 14.4728 20.9672 14.6813V16.7515C20.9672 16.9599 20.7981 17.1291 20.5896 17.1291ZM18.7029 16.3733H20.2121V15.0583H18.7029V16.3733Z" fill="black"/>
<path d="M20.6982 13.4475C20.506 13.4475 20.3413 13.3014 20.3225 13.1055L19.3321 2.75455H16.835L15.8445 13.1061C15.8245 13.3139 15.6398 13.4662 15.4326 13.4462C15.2248 13.4263 15.0725 13.2421 15.0925 13.0343L16.116 2.34139C16.1347 2.14791 16.2976 2 16.4917 2H19.6753C19.87 2 20.0329 2.14791 20.051 2.34139L21.0746 13.0343C21.0946 13.2421 20.9423 13.4263 20.7344 13.4462C20.7226 13.4469 20.7101 13.4475 20.6982 13.4475Z" fill="black"/>
<path d="M19.8707 4.79375H16.2964C16.0879 4.79375 15.9188 4.62462 15.9188 4.41616C15.9188 4.20771 16.0879 4.03857 16.2964 4.03857H19.8707C20.0791 4.03857 20.2482 4.20771 20.2482 4.41616C20.2482 4.62462 20.0791 4.79375 19.8707 4.79375Z" fill="black"/>
</svg>
