<svg width="24" height="24" viewBox="0 0 24 24" fill="none" xmlns="http://www.w3.org/2000/svg">
<path d="M4.55997 7.76756L8.80145 10.1618C8.85855 10.194 8.92024 10.2097 8.98194 10.2097C9.10994 10.2097 9.23334 10.1434 9.3024 10.0246C9.73152 9.27501 10.2509 8.33481 10.7721 7.39369C11.1764 6.66253 11.5825 5.92952 11.9453 5.28492L13.345 7.78966L12.2685 8.43242C12.1267 8.51806 12.0585 8.6875 12.1027 8.84681C12.1479 9.00612 12.2924 9.11662 12.4582 9.11662H17.1951C17.3268 9.11662 17.4483 9.04664 17.5146 8.93245C18.29 7.58891 19.0654 6.24354 19.8361 4.9C19.9181 4.75819 19.896 4.57954 19.7827 4.46167C19.6694 4.3438 19.4945 4.31525 19.3471 4.38892L18.2136 4.97827L16.9704 2.82991C16.6315 2.23135 16.0026 2.19451 15.777 2.18162C14.4896 2.17333 13.2004 2.16781 11.9112 2.1632L10.3439 2.15768C9.46539 1.88142 7.62091 1.79578 6.69544 3.39531L4.42368 7.26017C4.37303 7.34581 4.35922 7.4471 4.385 7.54287C4.41079 7.63772 4.47341 7.71876 4.55997 7.76756ZM11.9075 2.89989C13.1967 2.90542 14.485 2.91002 15.753 2.91831C16.1352 2.94041 16.2567 3.06381 16.3323 3.19641L17.7541 5.6505C17.8517 5.82086 18.069 5.88164 18.2421 5.79232L18.5709 5.62011C18.0423 6.53913 17.5128 7.45907 16.9815 8.37809H13.7934L14.0301 8.2372C14.2014 8.13498 14.2603 7.9149 14.1636 7.74086L12.2805 4.37051C12.274 4.35761 12.2667 4.34472 12.2593 4.33275L11.5797 3.11721C11.5318 3.03986 11.4802 2.96619 11.4241 2.89713L11.9075 2.89989ZM7.33084 3.76642C8.11909 2.40447 9.71771 2.74887 10.0787 2.8474C10.0953 2.85661 10.1128 2.8649 10.1321 2.87135C10.506 3.00671 10.7675 3.2093 10.9452 3.49293L11.5254 4.53074C11.1091 5.26282 10.6183 6.14961 10.1275 7.03548C9.67995 7.84583 9.23241 8.65343 8.84473 9.34039L5.24785 7.31081L7.33084 3.76642Z" fill="black"/>
<path d="M19.6979 8.22056C18.3701 9.00698 17.0413 9.78879 15.7161 10.5697L15.5034 10.694C15.3294 10.7962 15.2704 11.0209 15.3717 11.1959C15.8395 12.0044 16.428 13.0127 17.009 14.0073L18.0883 15.8582L15.2843 15.8204L15.2686 14.5671C15.2668 14.4005 15.1544 14.2568 14.9933 14.2144C14.8275 14.1712 14.6636 14.243 14.5807 14.3866L12.2095 18.4909C12.1441 18.6051 12.1441 18.746 12.2104 18.8593L14.5448 22.8871C14.6111 23.0031 14.7336 23.0713 14.8634 23.0713C14.892 23.0713 14.9214 23.0676 14.9518 23.0602C15.1111 23.0216 15.2253 22.8816 15.2318 22.7177L15.2889 21.4414C16.114 21.4386 16.9436 21.4377 17.7687 21.4377C18.4787 21.4469 18.8019 20.9156 18.9263 20.7268L21.6612 16.0414C22.1097 15.8223 22.4983 15.5193 22.7405 15.1012C23.1733 14.3526 23.0646 13.3958 22.4154 12.2567C21.6778 10.9574 20.9411 9.65711 20.2072 8.35685C20.1584 8.27029 20.0764 8.20767 19.9816 8.18281C19.884 8.1561 19.7827 8.17084 19.6979 8.22056ZM18.3001 20.3382C18.1021 20.6384 17.9465 20.701 17.7743 20.701C17.7724 20.701 17.7706 20.701 17.7706 20.701C16.8249 20.701 15.8773 20.7028 14.9343 20.7065C14.7382 20.7065 14.577 20.8621 14.5687 21.0583L14.5513 21.4294L12.9554 18.6751L14.5494 15.9153L14.5531 16.1879C14.5559 16.3877 14.717 16.5488 14.9168 16.5516L18.7135 16.6022C18.7218 16.6032 18.7384 16.605 18.7375 16.6022C19.1694 16.6004 19.8784 16.5654 20.5967 16.4024L18.3001 20.3382ZM21.7754 12.6204C22.2846 13.5164 22.3951 14.2264 22.1023 14.732C21.815 15.2274 21.1824 15.5073 20.5286 15.6657C20.0405 15.7541 19.3867 15.8278 18.941 15.8573L17.6463 13.6361C17.1389 12.7687 16.626 11.8902 16.1922 11.1434C17.3765 10.4463 18.5634 9.74735 19.7495 9.04566C20.4236 10.2372 21.0986 11.4298 21.7754 12.6204Z" fill="black"/>
<path d="M1.11959 14.8528C1.30652 15.4008 1.7025 15.8308 2.29461 16.131L5.02772 20.8117C5.17414 21.0908 5.49552 21.4232 6.18801 21.4232C7.0527 21.4324 8.11169 21.4388 9.14029 21.4453L11.2518 21.46H11.2546C11.3522 21.46 11.4461 21.4213 11.5152 21.3523C11.5852 21.2823 11.6238 21.1865 11.6229 21.088L11.5732 16.2222C11.5714 16.0196 11.4065 15.8575 11.2049 15.8575H11.2039L5.92096 15.8658L7.25529 13.4743L8.34006 14.083C8.48371 14.164 8.66512 14.1401 8.78207 14.0213C8.89902 13.9034 8.92204 13.722 8.84009 13.5784L6.47071 9.47226C6.40441 9.35807 6.28286 9.28809 6.15117 9.28809L1.49438 9.29545C1.33047 9.29545 1.18681 9.40412 1.14077 9.56158C1.09565 9.71905 1.16011 9.88757 1.29824 9.97505L2.37657 10.6611L1.62054 11.9733C1.02566 13.1179 0.858066 14.0867 1.11959 14.8528ZM10.8411 16.5942L10.8826 20.7206L9.14489 20.7086C8.11721 20.7022 7.05914 20.6957 6.19169 20.6865C5.7948 20.6865 5.71192 20.529 5.67325 20.4554L3.32874 16.4404C4.13633 16.5675 5.11797 16.5997 5.27359 16.6034C5.28096 16.6034 5.28741 16.6043 5.3003 16.6034L10.8411 16.5942ZM2.26698 12.3269L3.19153 10.7228C3.28914 10.5515 3.23665 10.3342 3.06997 10.2283L2.7578 10.0303L5.93938 10.0257L7.53154 12.7855L7.29396 12.6511C7.20832 12.6023 7.10611 12.5903 7.0131 12.6179C6.91825 12.6446 6.83906 12.7072 6.79117 12.7929L5.07929 15.8621C4.43561 15.8363 3.0359 15.7037 2.83515 15.607C2.81674 15.5859 2.79556 15.5665 2.77254 15.549C2.75228 15.5343 2.72925 15.5214 2.70715 15.5113C2.24764 15.2976 1.94836 14.9956 1.8176 14.6143C1.62238 14.0462 1.77708 13.2727 2.26698 12.3269Z" fill="black"/>
</svg>
