<svg width="24" height="24" viewBox="0 0 24 24" fill="none" xmlns="http://www.w3.org/2000/svg">
<path fill-rule="evenodd" clip-rule="evenodd" d="M22.1679 18.2757H1.83208C1.37321 18.2757 1 17.9025 1 17.4437V5.83208C1 5.37321 1.37321 5 1.83208 5H22.1679C22.6268 5 23 5.37321 23 5.83208V17.4437C22.9999 17.9025 22.6267 18.2757 22.1679 18.2757ZM1.83208 5.75529C1.79036 5.75529 1.75536 5.79029 1.75536 5.83202V17.4437C1.75536 17.4854 1.79036 17.5204 1.83208 17.5204H22.1679C22.2096 17.5204 22.2446 17.4854 22.2446 17.4437V5.83208C22.2446 5.79036 22.2096 5.75536 22.1679 5.75536H1.83208V5.75529Z" fill="black"/>
<path fill-rule="evenodd" clip-rule="evenodd" d="M16.5073 8.70971H7.492C6.76776 8.70971 6.15648 8.2597 5.89725 7.53495L5.1714 5.505C5.10101 5.30892 5.20335 5.09252 5.40002 5.0222C5.59617 4.95188 5.8125 5.05416 5.88289 5.25083L6.60875 7.28077C6.75974 7.70269 7.08961 7.95442 7.492 7.95442H16.5073C16.9095 7.95442 17.2396 7.70269 17.3906 7.28077L18.1164 5.25083C18.1867 5.05468 18.4026 4.9524 18.5993 5.0222C18.7954 5.09252 18.8977 5.3084 18.8279 5.505L18.1021 7.53495C17.8429 8.25938 17.2321 8.70971 16.5073 8.70971Z" fill="black"/>
<path fill-rule="evenodd" clip-rule="evenodd" d="M6.31534 15.4995C5.00097 15.4995 3.93134 14.4298 3.93134 13.1155C3.93134 11.8011 5.00097 10.7314 6.31534 10.7314C7.62971 10.7314 8.69935 11.801 8.69935 13.1155C8.69935 14.4299 7.62971 15.4995 6.31534 15.4995ZM6.31534 11.4862C5.41734 11.4862 4.68617 12.2169 4.68617 13.1154C4.68617 14.0139 5.41682 14.7446 6.31534 14.7446C7.21387 14.7446 7.94451 14.0139 7.94451 13.1154C7.94451 12.2169 7.21335 11.4862 6.31534 11.4862Z" fill="black"/>
<path fill-rule="evenodd" clip-rule="evenodd" d="M17.6846 15.4995C16.3702 15.4995 15.3006 14.4298 15.3006 13.1155C15.3006 11.8011 16.3702 10.7314 17.6846 10.7314C18.999 10.7314 20.0686 11.801 20.0686 13.1155C20.0686 14.4299 18.9996 15.4995 17.6846 15.4995ZM17.6846 11.4862C16.7866 11.4862 16.0554 12.2169 16.0554 13.1154C16.0554 14.0139 16.7861 14.7446 17.6846 14.7446C18.5831 14.7446 19.3138 14.0139 19.3138 13.1154C19.3138 12.2169 18.5829 11.4862 17.6846 11.4862Z" fill="black"/>
<path fill-rule="evenodd" clip-rule="evenodd" d="M17.6846 15.4995C16.3702 15.4995 15.3006 14.4298 15.3006 13.1155C15.3006 11.8011 16.3702 10.7314 17.6846 10.7314C18.999 10.7314 20.0686 11.801 20.0686 13.1155C20.0686 14.4299 18.9996 15.4995 17.6846 15.4995ZM17.6846 11.4862C16.7866 11.4862 16.0554 12.2169 16.0554 13.1154C16.0554 14.0139 16.7861 14.7446 17.6846 14.7446C18.5831 14.7446 19.3138 14.0139 19.3138 13.1154C19.3138 12.2169 18.5829 11.4862 17.6846 11.4862Z" fill="black"/>
<path fill-rule="evenodd" clip-rule="evenodd" d="M7.13794 12.6704C7.0411 12.6704 6.94464 12.6334 6.87095 12.5597C6.72352 12.4122 6.72352 12.1731 6.87095 12.0257L7.46697 11.4297C7.61441 11.2822 7.85351 11.2822 8.00095 11.4297C8.14838 11.5771 8.14838 11.8162 8.00095 11.9636L7.40493 12.5597C7.33124 12.6335 7.23498 12.6704 7.13794 12.6704Z" fill="black"/>
<path fill-rule="evenodd" clip-rule="evenodd" d="M7.73396 14.9113C7.63711 14.9113 7.54066 14.8744 7.46697 14.8006L6.87095 14.2046C6.72352 14.0572 6.72352 13.8181 6.87095 13.6706C7.01839 13.5232 7.25749 13.5232 7.40493 13.6706L8.00095 14.2667C8.14838 14.4141 8.14838 14.6532 8.00095 14.8006C7.92726 14.8745 7.83093 14.9113 7.73396 14.9113Z" fill="black"/>
<path fill-rule="evenodd" clip-rule="evenodd" d="M4.89649 14.9113C4.79964 14.9113 4.70318 14.8744 4.6295 14.8006C4.48206 14.6532 4.48206 14.4141 4.6295 14.2667L5.22552 13.6706C5.37295 13.5232 5.61206 13.5232 5.75949 13.6706C5.90693 13.8181 5.90693 14.0572 5.75949 14.2046L5.16347 14.8006C5.08979 14.8745 4.99294 14.9113 4.89649 14.9113Z" fill="black"/>
<path fill-rule="evenodd" clip-rule="evenodd" d="M5.4925 12.6704C5.39566 12.6704 5.2992 12.6334 5.22552 12.5597L4.6295 11.9636C4.48206 11.8162 4.48206 11.5771 4.6295 11.4297C4.77693 11.2822 5.01604 11.2822 5.16347 11.4297L5.75949 12.0257C5.90693 12.1731 5.90693 12.4122 5.75949 12.5597C5.68581 12.6335 5.58896 12.6704 5.4925 12.6704Z" fill="black"/>
<path fill-rule="evenodd" clip-rule="evenodd" d="M6.31536 13.4938C6.10679 13.4938 5.93768 13.3247 5.93768 13.1162C5.93768 12.9076 6.10679 12.7371 6.31536 12.7371C6.52393 12.7371 6.69304 12.9047 6.69304 13.1133V13.1164C6.69304 13.3247 6.52387 13.4938 6.31536 13.4938Z" fill="black"/>
<path fill-rule="evenodd" clip-rule="evenodd" d="M18.5079 12.6704C18.4111 12.6704 18.3146 12.6334 18.2409 12.5597C18.0935 12.4122 18.0935 12.1731 18.2409 12.0257L18.837 11.4297C18.9844 11.2822 19.2235 11.2822 19.3709 11.4297C19.5184 11.5771 19.5184 11.8162 19.3709 11.9636L18.7749 12.5597C18.7012 12.6335 18.6042 12.6704 18.5079 12.6704Z" fill="black"/>
<path fill-rule="evenodd" clip-rule="evenodd" d="M19.104 14.9113C19.0071 14.9113 18.9107 14.8744 18.837 14.8006L18.2409 14.2046C18.0935 14.0572 18.0935 13.8181 18.2409 13.6706C18.3884 13.5232 18.6275 13.5232 18.7749 13.6706L19.3709 14.2667C19.5184 14.4141 19.5184 14.6532 19.3709 14.8006C19.2972 14.8745 19.2002 14.9113 19.104 14.9113Z" fill="black"/>
<path fill-rule="evenodd" clip-rule="evenodd" d="M16.2659 14.9113C16.1691 14.9113 16.0726 14.8744 15.9989 14.8006C15.8514 14.6532 15.8514 14.4141 15.9989 14.2667L16.5949 13.6706C16.7423 13.5232 16.9814 13.5232 17.1289 13.6706C17.2763 13.8181 17.2763 14.0572 17.1289 14.2046L16.5329 14.8006C16.4591 14.8745 16.3627 14.9113 16.2659 14.9113Z" fill="black"/>
<path fill-rule="evenodd" clip-rule="evenodd" d="M16.8618 12.6704C16.765 12.6704 16.6685 12.6334 16.5948 12.5597L15.9988 11.9636C15.8514 11.8162 15.8514 11.5771 15.9988 11.4297C16.1463 11.2822 16.3854 11.2822 16.5328 11.4297L17.1288 12.0257C17.2763 12.1731 17.2763 12.4122 17.1288 12.5597C17.0551 12.6335 16.9587 12.6704 16.8618 12.6704Z" fill="black"/>
<path fill-rule="evenodd" clip-rule="evenodd" d="M17.6847 13.4938C17.4761 13.4938 17.307 13.3247 17.307 13.1162C17.307 12.9076 17.4761 12.7371 17.6847 12.7371C17.8933 12.7371 18.0624 12.9047 18.0624 13.1133V13.1164C18.0624 13.3247 17.8936 13.4938 17.6847 13.4938Z" fill="black"/>
<path fill-rule="evenodd" clip-rule="evenodd" d="M17.6846 11.4861H6.31469C6.10612 11.4861 5.93701 11.317 5.93701 11.1084C5.93701 10.8998 6.10612 10.7307 6.31469 10.7307H17.6846C17.8931 10.7307 18.0623 10.8998 18.0623 11.1084C18.0623 11.317 17.8935 11.4861 17.6846 11.4861Z" fill="black"/>
<path fill-rule="evenodd" clip-rule="evenodd" d="M17.6846 15.4995H6.31469C6.10612 15.4995 5.93701 15.3304 5.93701 15.1218C5.93701 14.9132 6.10612 14.7441 6.31469 14.7441H17.6846C17.8931 14.7441 18.0623 14.9132 18.0623 15.1218C18.0623 15.3303 17.8935 15.4995 17.6846 15.4995Z" fill="black"/>
<path fill-rule="evenodd" clip-rule="evenodd" d="M2.56426 7.06782C2.35569 7.06782 2.18658 6.89871 2.18658 6.69014C2.18658 6.48157 2.35569 6.31104 2.56426 6.31104C2.77283 6.31104 2.94194 6.47872 2.94194 6.68729V6.69033C2.94188 6.89871 2.77264 7.06782 2.56426 7.06782Z" fill="black"/>
<path fill-rule="evenodd" clip-rule="evenodd" d="M2.56426 16.9665C2.35569 16.9665 2.18658 16.7974 2.18658 16.5888C2.18658 16.3802 2.35569 16.2097 2.56426 16.2097C2.77283 16.2097 2.94194 16.3774 2.94194 16.586V16.589C2.94188 16.7972 2.77264 16.9665 2.56426 16.9665Z" fill="black"/>
<path fill-rule="evenodd" clip-rule="evenodd" d="M21.4361 7.06782C21.2276 7.06782 21.0585 6.89871 21.0585 6.69014C21.0585 6.48157 21.2276 6.31104 21.4361 6.31104C21.6447 6.31104 21.8138 6.47872 21.8138 6.68729V6.69033C21.8139 6.89871 21.6447 7.06782 21.4361 7.06782Z" fill="black"/>
<path fill-rule="evenodd" clip-rule="evenodd" d="M21.4361 16.9665C21.2276 16.9665 21.0585 16.7974 21.0585 16.5888C21.0585 16.3802 21.2276 16.2097 21.4361 16.2097C21.6447 16.2097 21.8138 16.3774 21.8138 16.586V16.589C21.8139 16.7972 21.6447 16.9665 21.4361 16.9665Z" fill="black"/>
<path fill-rule="evenodd" clip-rule="evenodd" d="M14.4134 13.4607H9.58697C9.3784 13.4607 9.20929 13.2916 9.20929 13.083C9.20929 12.8744 9.3784 12.7053 9.58697 12.7053H14.4134C14.622 12.7053 14.7911 12.8744 14.7911 13.083C14.7911 13.2916 14.622 13.4607 14.4134 13.4607Z" fill="black"/>
<path fill-rule="evenodd" clip-rule="evenodd" d="M7.62762 7.23408C7.41905 7.23408 7.24994 7.06497 7.24994 6.8564C7.24994 6.64783 7.41905 6.47729 7.62762 6.47729C7.83619 6.47729 8.0053 6.64498 8.0053 6.85355V6.85659C8.0053 7.0649 7.83619 7.23408 7.62762 7.23408Z" fill="black"/>
<path fill-rule="evenodd" clip-rule="evenodd" d="M16.3721 7.23408C16.1636 7.23408 15.9944 7.06497 15.9944 6.8564C15.9944 6.64783 16.1636 6.47729 16.3721 6.47729C16.5807 6.47729 16.7498 6.64498 16.7498 6.85355V6.85659C16.7498 7.0649 16.5805 7.23408 16.3721 7.23408Z" fill="black"/>
<path fill-rule="evenodd" clip-rule="evenodd" d="M13.8985 7.23265H10.1012C9.89262 7.23265 9.72351 7.06354 9.72351 6.85497C9.72351 6.6464 9.89262 6.47729 10.1012 6.47729H13.8985C14.1071 6.47729 14.2762 6.6464 14.2762 6.85497C14.2762 7.06354 14.1071 7.23265 13.8985 7.23265Z" fill="black"/>
</svg>
