<svg width="24" height="24" viewBox="0 0 24 24" fill="none" xmlns="http://www.w3.org/2000/svg">
<path d="M21.9288 20.6948H2.07184C1.48062 20.6941 1.00137 20.2149 1 19.623V8.03619C1.00068 7.44429 1.47994 6.96504 2.07184 6.96436H21.9282C22.5201 6.96504 22.9993 7.44498 23 8.03619V19.6237C22.9993 20.2149 22.5201 20.6941 21.9288 20.6948ZM2.07184 7.79042C1.93598 7.79042 1.82675 7.90102 1.82675 8.03619V19.6237C1.82675 19.7588 1.93666 19.8687 2.07184 19.8687H21.9282C22.0633 19.8687 22.1733 19.7588 22.1733 19.6237V8.03619C22.1733 7.90034 22.0633 7.79042 21.9282 7.79042H2.07184Z" fill="black"/>
<path d="M10.4719 12.4356H6.97441C6.44122 12.4356 5.92783 12.2328 5.53937 11.8676L1.30117 7.90247C1.13801 7.74341 1.13459 7.48125 1.29435 7.31808C1.44932 7.1597 1.70124 7.1515 1.86577 7.29897L6.10397 11.2675C6.3395 11.4887 6.65149 11.6123 6.97441 11.6116H10.4719C10.6999 11.6116 10.8849 11.7966 10.8849 12.0246C10.8849 12.2526 10.6999 12.4376 10.4719 12.4376V12.4356Z" fill="black"/>
<path d="M17.0263 12.4354H13.5281C13.3001 12.4354 13.1151 12.2504 13.1151 12.0224C13.1151 11.7944 13.3001 11.6094 13.5281 11.6094H17.0263C17.3492 11.6107 17.6612 11.4878 17.8967 11.2673L22.1349 7.30153C22.3049 7.14929 22.5657 7.16363 22.7187 7.33294C22.8668 7.49747 22.8579 7.75007 22.6995 7.90436L18.4613 11.8708C18.0722 12.2347 17.5595 12.4361 17.0263 12.4354Z" fill="black"/>
<path d="M13.2538 13.7021H10.7469C10.3674 13.7014 10.0595 13.3935 10.0588 13.0139V11.0307C10.0588 10.6511 10.3667 10.3425 10.7469 10.3425H13.2538C13.6334 10.3432 13.9413 10.6511 13.942 11.0307V13.0139C13.9413 13.3935 13.6334 13.7021 13.2538 13.7021ZM10.8855 12.876H13.1152V11.1686H10.8855V12.876Z" fill="black"/>
<path d="M16.872 7.7905C16.644 7.7905 16.4589 7.60549 16.4589 7.37747V4.21316C16.4589 3.99947 16.2855 3.82675 16.0719 3.82607H7.92861C7.71493 3.82607 7.54152 3.99947 7.54152 4.21316V7.37747C7.54152 7.60549 7.35651 7.7905 7.12849 7.7905C6.90047 7.7905 6.71545 7.60549 6.71545 7.37747V4.21316C6.71614 3.54343 7.25957 3.00068 7.92929 3H16.0725C16.7423 3.00068 17.285 3.54343 17.2857 4.21316V7.37747C17.285 7.60549 17.1 7.7905 16.872 7.7905Z" fill="black"/>
<path d="M15.0589 7.79039C14.8309 7.79039 14.6458 7.60537 14.6458 7.37735V5.77984C14.6458 5.70201 14.583 5.6392 14.5052 5.63852H9.49624C9.41842 5.63852 9.35561 5.70201 9.35561 5.77984V7.37735C9.35561 7.60537 9.1706 7.79039 8.94257 7.79039C8.71455 7.79039 8.52954 7.60537 8.52954 7.37735V5.77984C8.52954 5.24596 8.96169 4.81382 9.49556 4.81177H14.5045C15.0384 4.81245 15.4705 5.24528 15.4712 5.77915V7.37667C15.4712 7.60469 15.2869 7.7897 15.0589 7.79039Z" fill="black"/>
<path d="M22.5869 18.5163H1.41364C1.18562 18.5163 1.00061 18.3312 1.00061 18.1032C1.00061 17.8752 1.18562 17.6902 1.41364 17.6902H22.5869C22.8149 17.6902 22.9999 17.8752 22.9999 18.1032C22.9999 18.3312 22.8149 18.5163 22.5869 18.5163Z" fill="black"/>
</svg>
