<svg width="24" height="24" viewBox="0 0 24 24" fill="none" xmlns="http://www.w3.org/2000/svg">
<path d="M11.9999 18.3306C7.47511 18.3306 4.40447 13.701 6.16635 9.53502C7.91886 5.39216 13.3143 4.35676 16.4767 7.52288C17.6582 8.70433 18.331 10.2989 18.331 11.9996C18.331 15.5047 15.49 18.3306 11.9999 18.3306ZM11.9999 6.42382C8.92555 6.42382 6.42411 8.92526 6.42411 11.9996C6.42411 15.074 8.92555 17.5755 11.9999 17.5755C15.0743 17.5755 17.5758 15.074 17.5758 11.9996C17.5758 8.92526 15.0743 6.42382 11.9999 6.42382Z" fill="black"/>
<path d="M12 4.08998C11.7915 4.08998 11.6224 3.92085 11.6224 3.71239V1.37759C11.6224 1.16913 11.7915 1 12 1C12.2084 1 12.3776 1.16913 12.3776 1.37759V3.71239C12.3776 3.92085 12.2084 4.08998 12 4.08998Z" fill="black"/>
<path d="M17.5933 6.40608C17.446 6.25879 17.446 6.01976 17.5933 5.87184L19.2441 4.22106C19.3914 4.07377 19.6304 4.07377 19.7783 4.22106C19.9256 4.36835 19.9256 4.60739 19.7783 4.7553L18.1276 6.40608C17.9803 6.55337 17.7406 6.55337 17.5933 6.40608Z" fill="black"/>
<path d="M22.6224 12.3772H20.2876C20.0791 12.3772 19.91 12.2081 19.91 11.9997C19.91 11.7912 20.0791 11.6221 20.2876 11.6221H22.6224C22.8308 11.6221 23 11.7912 23 11.9997C23 12.2081 22.8308 12.3772 22.6224 12.3772Z" fill="black"/>
<path d="M19.2441 19.7786L17.5933 18.1279C17.446 17.9806 17.446 17.7415 17.5933 17.5936C17.7406 17.4463 17.9796 17.4463 18.1276 17.5936L19.7783 19.2444C19.9256 19.3917 19.9256 19.6307 19.7783 19.7786C19.631 19.9259 19.3914 19.9259 19.2441 19.7786Z" fill="black"/>
<path d="M12 23.0004C11.7915 23.0004 11.6224 22.8312 11.6224 22.6228V20.288C11.6224 20.0795 11.7915 19.9104 12 19.9104C12.2084 19.9104 12.3776 20.0795 12.3776 20.288V22.6228C12.3776 22.8312 12.2084 23.0004 12 23.0004Z" fill="black"/>
<path d="M4.22167 19.7786C4.07438 19.6314 4.07438 19.3923 4.22167 19.2444L5.87246 17.5936C6.01975 17.4463 6.25878 17.4463 6.4067 17.5936C6.55399 17.7409 6.55399 17.9799 6.4067 18.1279L4.75592 19.7786C4.60862 19.9259 4.36897 19.9259 4.22167 19.7786Z" fill="black"/>
<path d="M3.7124 12.3772H1.37759C1.16913 12.3772 1 12.2081 1 11.9997C1 11.7912 1.16913 11.6221 1.37759 11.6221H3.7124C3.92085 11.6221 4.08999 11.7912 4.08999 11.9997C4.08999 12.2081 3.92085 12.3772 3.7124 12.3772Z" fill="black"/>
<path d="M5.87246 6.40608L4.22167 4.7553C4.07438 4.60801 4.07438 4.36898 4.22167 4.22106C4.36897 4.07377 4.608 4.07377 4.75592 4.22106L6.4067 5.87184C6.55399 6.01913 6.55399 6.25817 6.4067 6.40608C6.25941 6.55337 6.01975 6.55337 5.87246 6.40608Z" fill="black"/>
<path d="M15.9294 12.0785C15.721 12.0723 15.5568 11.8988 15.5631 11.6897C15.6061 10.2261 14.7055 8.87931 13.2769 8.38689C13.0797 8.31886 12.9749 8.10417 13.0423 7.90695C13.1103 7.70973 13.325 7.60488 13.5222 7.67228C15.2417 8.26269 16.3707 9.89475 16.3176 11.7109C16.3126 11.9038 16.1603 12.0785 15.9294 12.0785Z" fill="black"/>
</svg>
