<svg width="24" height="24" viewBox="0 0 24 24" fill="none" xmlns="http://www.w3.org/2000/svg">
<path fill-rule="evenodd" clip-rule="evenodd" d="M22.6222 22.9994H1.3781C1.16956 22.9994 1.00043 22.8303 1.00043 22.6218V1.37764C1.00043 1.22486 1.09245 1.08719 1.2335 1.02875C1.37455 0.9703 1.53709 1.00263 1.64509 1.11064L22.8892 22.3548C22.9972 22.4628 23.0296 22.6251 22.9711 22.7664C22.9127 22.9074 22.775 22.9994 22.6222 22.9994ZM1.75559 22.2441H21.7104L1.75559 2.28928V22.2441Z" fill="black"/>
<path fill-rule="evenodd" clip-rule="evenodd" d="M12.9713 19.0019H5.37517C5.16661 19.0019 4.9975 18.8328 4.9975 18.6242V11.0283C4.9975 10.8755 5.08952 10.7378 5.23057 10.6794C5.37162 10.6209 5.53414 10.6533 5.64216 10.7613L13.2381 18.3572C13.3461 18.4652 13.3784 18.6276 13.32 18.7688C13.2615 18.9099 13.1241 19.0019 12.9713 19.0019ZM5.75282 18.2465H12.0594L5.75282 11.9399V18.2465Z" fill="black"/>
<path fill-rule="evenodd" clip-rule="evenodd" d="M2.76826 5.65427H1.37786C1.16931 5.65427 1.00018 5.48514 1.00018 5.2766C1.00018 5.06805 1.16931 4.89893 1.37786 4.89893H2.76826C2.9768 4.89893 3.14593 5.06805 3.14593 5.2766C3.14593 5.48514 2.9768 5.65427 2.76826 5.65427Z" fill="black"/>
<path fill-rule="evenodd" clip-rule="evenodd" d="M3.34984 7.32003H1.37768C1.16912 7.32003 1 7.15091 1 6.94235C1 6.73381 1.16911 6.5647 1.37768 6.5647L3.34984 6.56487C3.55839 6.56487 3.7275 6.73398 3.7275 6.94253C3.7275 7.15109 3.55839 7.32003 3.34984 7.32003Z" fill="black"/>
<path fill-rule="evenodd" clip-rule="evenodd" d="M2.76826 8.98555H1.37786C1.16931 8.98555 1.00018 8.81645 1.00018 8.60788C1.00018 8.39933 1.16931 8.23022 1.37786 8.23022H2.76826C2.9768 8.23022 3.14593 8.39933 3.14593 8.60788C3.14593 8.81645 2.9768 8.98555 2.76826 8.98555Z" fill="black"/>
<path fill-rule="evenodd" clip-rule="evenodd" d="M3.34984 10.6513H1.37768C1.16912 10.6513 1 10.4822 1 10.2737C1 10.0651 1.16911 9.896 1.37768 9.896H3.34984C3.55839 9.896 3.7275 10.0651 3.7275 10.2737C3.7275 10.4822 3.55839 10.6513 3.34984 10.6513Z" fill="black"/>
<path fill-rule="evenodd" clip-rule="evenodd" d="M2.76826 12.3169H1.37786C1.16931 12.3169 1.00018 12.1477 1.00018 11.9392C1.00018 11.7306 1.16931 11.5615 1.37786 11.5615H2.76826C2.9768 11.5615 3.14593 11.7306 3.14593 11.9392C3.14593 12.1477 2.9768 12.3169 2.76826 12.3169Z" fill="black"/>
<path fill-rule="evenodd" clip-rule="evenodd" d="M3.34984 13.9824H1.37768C1.16912 13.9824 1 13.8133 1 13.6047C1 13.3962 1.16911 13.2271 1.37768 13.2271H3.34984C3.55839 13.2271 3.7275 13.3962 3.7275 13.6047C3.7275 13.8133 3.55839 13.9824 3.34984 13.9824Z" fill="black"/>
<path fill-rule="evenodd" clip-rule="evenodd" d="M2.76826 15.6484H1.37786C1.16931 15.6484 1.00018 15.4793 1.00018 15.2707C1.00018 15.0622 1.16931 14.8931 1.37786 14.8931H2.76826C2.9768 14.8931 3.14593 15.0622 3.14593 15.2707C3.14593 15.4793 2.9768 15.6484 2.76826 15.6484Z" fill="black"/>
<path fill-rule="evenodd" clip-rule="evenodd" d="M3.34984 17.3137H1.37768C1.16912 17.3137 1 17.1446 1 16.936C1 16.7275 1.16911 16.5583 1.37768 16.5583H3.34984C3.55839 16.5583 3.7275 16.7275 3.7275 16.936C3.7275 17.1446 3.55839 17.3137 3.34984 17.3137Z" fill="black"/>
<path fill-rule="evenodd" clip-rule="evenodd" d="M2.76826 18.979H1.37786C1.16931 18.979 1.00018 18.8099 1.00018 18.6013C1.00018 18.3927 1.16931 18.2236 1.37786 18.2236H2.76826C2.9768 18.2236 3.14593 18.3927 3.14593 18.6013C3.14593 18.8099 2.9768 18.979 2.76826 18.979Z" fill="black"/>
<path fill-rule="evenodd" clip-rule="evenodd" d="M3.34967 20.6447H1.37768C1.16912 20.6447 1 20.4756 1 20.2671C1 20.0585 1.16911 19.8894 1.37768 19.8894L3.34968 19.8896C3.55822 19.8896 3.72733 20.0587 3.72733 20.2673C3.72733 20.4758 3.55822 20.6447 3.34967 20.6447Z" fill="black"/>
<path fill-rule="evenodd" clip-rule="evenodd" d="M5.33731 22.9994C5.12877 22.9994 4.95966 22.8303 4.95966 22.6218V21.2312C4.95966 21.0226 5.12877 20.8535 5.33731 20.8535C5.54587 20.8535 5.71498 21.0226 5.71498 21.2312V22.6218C5.71498 22.8303 5.54587 22.9994 5.33731 22.9994Z" fill="black"/>
<path fill-rule="evenodd" clip-rule="evenodd" d="M7.00304 22.9993C6.79449 22.9993 6.62537 22.8302 6.62537 22.6216V20.6496C6.62537 20.4411 6.79449 20.272 7.00304 20.272C7.21158 20.272 7.38069 20.4411 7.38069 20.6496V22.6216C7.38069 22.8302 7.21158 22.9993 7.00304 22.9993Z" fill="black"/>
<path fill-rule="evenodd" clip-rule="evenodd" d="M8.66862 22.9994C8.46008 22.9994 8.29095 22.8303 8.29095 22.6218V21.2312C8.29095 21.0226 8.46008 20.8535 8.66862 20.8535C8.87718 20.8535 9.04628 21.0226 9.04628 21.2312V22.6218C9.04628 22.8303 8.87718 22.9994 8.66862 22.9994Z" fill="black"/>
<path fill-rule="evenodd" clip-rule="evenodd" d="M10.3342 22.9993C10.1256 22.9993 9.95648 22.8302 9.95648 22.6216V20.6496C9.95648 20.4411 10.1256 20.272 10.3342 20.272C10.5427 20.272 10.7118 20.4411 10.7118 20.6496V22.6216C10.7118 22.8302 10.5427 22.9993 10.3342 22.9993Z" fill="black"/>
<path fill-rule="evenodd" clip-rule="evenodd" d="M11.9999 22.9994C11.7914 22.9994 11.6223 22.8303 11.6223 22.6218V21.2312C11.6223 21.0226 11.7914 20.8535 11.9999 20.8535C12.2085 20.8535 12.3776 21.0226 12.3776 21.2312V22.6218C12.3776 22.8303 12.2085 22.9994 11.9999 22.9994Z" fill="black"/>
<path fill-rule="evenodd" clip-rule="evenodd" d="M13.6655 22.9993C13.457 22.9993 13.2878 22.8302 13.2878 22.6216V20.6496C13.2878 20.4411 13.457 20.272 13.6655 20.272C13.8741 20.272 14.0432 20.4411 14.0432 20.6496V22.6216C14.0432 22.8302 13.8741 22.9993 13.6655 22.9993Z" fill="black"/>
<path fill-rule="evenodd" clip-rule="evenodd" d="M15.331 22.9994C15.1225 22.9994 14.9534 22.8303 14.9534 22.6218V21.2312C14.9534 21.0226 15.1225 20.8535 15.331 20.8535C15.5396 20.8535 15.7087 21.0226 15.7087 21.2312V22.6218C15.7087 22.8303 15.5396 22.9994 15.331 22.9994Z" fill="black"/>
<path fill-rule="evenodd" clip-rule="evenodd" d="M16.9968 22.9993C16.7883 22.9993 16.6191 22.8302 16.6191 22.6216V20.6496C16.6191 20.4411 16.7883 20.272 16.9968 20.272C17.2054 20.272 17.3745 20.4411 17.3745 20.6496V22.6216C17.3743 22.8302 17.2054 22.9993 16.9968 22.9993Z" fill="black"/>
<path fill-rule="evenodd" clip-rule="evenodd" d="M18.6623 22.9994C18.4538 22.9994 18.2847 22.8303 18.2847 22.6218V21.2312C18.2847 21.0226 18.4538 20.8535 18.6623 20.8535C18.8709 20.8535 19.04 21.0226 19.04 21.2312V22.6218C19.0398 22.8303 18.8709 22.9994 18.6623 22.9994Z" fill="black"/>
</svg>
