<svg width="24" height="15" viewBox="0 0 24 15" fill="none" xmlns="http://www.w3.org/2000/svg">
<g clip-path="url(#clip0_1424_152)">
<path d="M11.89 12.3698H11.01C10.74 12.3598 10.51 12.1598 10.47 11.8898L10.35 11.0698C10.06 10.9798 9.78004 10.8598 9.52004 10.7098L8.84004 11.1898C8.62004 11.3498 8.32004 11.3198 8.13004 11.1198L7.52004 10.4898C7.33004 10.2998 7.31004 9.98978 7.47004 9.77978L7.97004 9.10978C7.83004 8.83978 7.71004 8.55978 7.63004 8.25978L6.81004 8.11978C6.54004 8.07978 6.35004 7.83978 6.35004 7.56978V6.68978C6.36004 6.41978 6.56004 6.18978 6.83004 6.14978L7.65004 6.02978C7.74004 5.73978 7.86004 5.45978 8.01004 5.18978L7.53004 4.50978C7.37004 4.28978 7.40004 3.98978 7.60004 3.79978L8.23004 3.18978C8.42004 2.99978 8.73004 2.97978 8.94004 3.13978L9.61004 3.63978C9.88004 3.49978 10.16 3.37978 10.46 3.29978L10.6 2.47978C10.64 2.20978 10.88 2.01978 11.15 2.01978H12.03C12.3 2.03978 12.53 2.22978 12.56 2.49978L12.68 3.31978C12.97 3.40978 13.25 3.52978 13.52 3.67978L14.2 3.19978C14.42 3.03978 14.73 3.06978 14.91 3.26978L15.52 3.89978C15.71 4.08978 15.73 4.39978 15.56 4.60978L15.06 5.27978C15.2 5.54978 15.32 5.82978 15.4 6.12978L16.22 6.26978C16.49 6.30978 16.68 6.54978 16.68 6.81978V7.69978C16.67 7.96978 16.47 8.19978 16.2 8.23978L15.38 8.35978C15.29 8.64978 15.17 8.92978 15.02 9.19978L15.5 9.87978C15.66 10.0998 15.63 10.4098 15.43 10.5898L14.81 11.1998C14.62 11.3898 14.31 11.4098 14.1 11.2498L13.43 10.7498C13.16 10.8898 12.88 11.0098 12.58 11.0898L12.44 11.9098C12.4 12.1798 12.16 12.3698 11.89 12.3698Z" stroke="black" stroke-width="0.75" stroke-miterlimit="10"/>
<path d="M11.52 8.89978C12.4534 8.89978 13.21 8.14314 13.21 7.20978C13.21 6.27641 12.4534 5.51978 11.52 5.51978C10.5867 5.51978 9.83002 6.27641 9.83002 7.20978C9.83002 8.14314 10.5867 8.89978 11.52 8.89978Z" stroke="black" stroke-width="0.75" stroke-miterlimit="10"/>
<path d="M17.13 0.379883H5.89001C5.33773 0.379883 4.89001 0.827598 4.89001 1.37988V13.0499C4.89001 13.6022 5.33773 14.0499 5.89001 14.0499H17.13C17.6823 14.0499 18.13 13.6022 18.13 13.0499V1.37988C18.13 0.827598 17.6823 0.379883 17.13 0.379883Z" stroke="black" stroke-width="0.75" stroke-miterlimit="10"/>
<path d="M20.57 4.29988C21.1002 4.29988 21.53 3.87008 21.53 3.33988C21.53 2.80969 21.1002 2.37988 20.57 2.37988C20.0398 2.37988 19.61 2.80969 19.61 3.33988C19.61 3.87008 20.0398 4.29988 20.57 4.29988Z" stroke="black" stroke-width="0.75" stroke-miterlimit="10"/>
<path d="M21.75 8.17C22.2802 8.17 22.71 7.74019 22.71 7.21C22.71 6.67981 22.2802 6.25 21.75 6.25C21.2198 6.25 20.79 6.67981 20.79 7.21C20.79 7.74019 21.2198 8.17 21.75 8.17Z" stroke="black" stroke-width="0.75" stroke-miterlimit="10"/>
<path d="M17.97 5.2801H19.18L20.12 4.1001" stroke="black" stroke-width="0.75" stroke-miterlimit="10"/>
<path d="M20.59 12.0301C21.1202 12.0301 21.55 11.6003 21.55 11.0701C21.55 10.5399 21.1202 10.1101 20.59 10.1101C20.0598 10.1101 19.63 10.5399 19.63 11.0701C19.63 11.6003 20.0598 12.0301 20.59 12.0301Z" stroke="black" stroke-width="0.75" stroke-miterlimit="10"/>
<path d="M17.99 9.12988H19.2L20.14 10.3099" stroke="black" stroke-width="0.75" stroke-miterlimit="10"/>
<path d="M17.79 7.20996H20.79" stroke="black" stroke-width="0.75" stroke-miterlimit="10"/>
<path d="M2.50999 12.0301C3.04018 12.0301 3.46999 11.6003 3.46999 11.0701C3.46999 10.5399 3.04018 10.1101 2.50999 10.1101C1.97979 10.1101 1.54999 10.5399 1.54999 11.0701C1.54999 11.6003 1.97979 12.0301 2.50999 12.0301Z" stroke="black" stroke-width="0.75" stroke-miterlimit="10"/>
<path d="M1.33 8.15999C1.86019 8.15999 2.29 7.73018 2.29 7.19999C2.29 6.6698 1.86019 6.23999 1.33 6.23999C0.799802 6.23999 0.369995 6.6698 0.369995 7.19999C0.369995 7.73018 0.799802 8.15999 1.33 8.15999Z" stroke="black" stroke-width="0.75" stroke-miterlimit="10"/>
<path d="M5.11002 9.12988H3.90002L2.96002 10.3099" stroke="black" stroke-width="0.75" stroke-miterlimit="10"/>
<path d="M2.49003 4.29988C3.02022 4.29988 3.45003 3.87008 3.45003 3.33988C3.45003 2.80969 3.02022 2.37988 2.49003 2.37988C1.95984 2.37988 1.53003 2.80969 1.53003 3.33988C1.53003 3.87008 1.95984 4.29988 2.49003 4.29988Z" stroke="black" stroke-width="0.75" stroke-miterlimit="10"/>
<path d="M5.09 5.2801H3.88L2.94 4.1001" stroke="black" stroke-width="0.75" stroke-miterlimit="10"/>
<path d="M5.28998 7.19995H2.28998" stroke="black" stroke-width="0.75" stroke-miterlimit="10"/>
</g>
<defs>
<clipPath id="clip0_1424_152">
<rect width="23.08" height="14.42" fill="white"/>
</clipPath>
</defs>
</svg>
