<svg width="19" height="20" viewBox="0 0 19 20" fill="none" xmlns="http://www.w3.org/2000/svg">
<g clip-path="url(#clip0_1424_150)">
<path d="M9.11 10.6299H17.85C17.85 15.4199 13.91 19.3699 9.11 19.3699C4.31 19.3699 0.380005 15.4199 0.380005 10.6299C0.380005 5.83989 4.32 1.88989 9.11 1.88989C9.68 1.88989 10.24 1.94989 10.8 2.04989L9.11 10.6199V10.6299Z" stroke="black" stroke-width="0.75" stroke-miterlimit="10"/>
<path d="M11.51 6.83998L12.9 0.47998C13.59 0.68998 14.25 0.99998 14.87 1.37998C15.35 1.67998 15.81 2.01998 16.22 2.39998L11.51 6.83998Z" stroke="black" stroke-width="0.75" stroke-miterlimit="10"/>
<path d="M11.96 8.8899L16.73 4.3999C17.24 5.0699 17.66 5.8199 17.97 6.6199C18.28 7.4199 18.44 8.2099 18.51 9.0199L11.97 8.8899H11.96Z" stroke="black" stroke-width="0.75" stroke-miterlimit="10"/>
</g>
<defs>
<clipPath id="clip0_1424_150">
<rect width="18.9" height="19.74" fill="white"/>
</clipPath>
</defs>
</svg>
