<svg width="24" height="24" viewBox="0 0 24 24" fill="none" xmlns="http://www.w3.org/2000/svg">
<path d="M12.304 15.5076C12.2104 15.4908 10.7107 15.6737 9.45447 14.4174C8.75113 13.714 8.3642 12.7792 8.3642 11.785V4.72349C8.3642 3.72933 8.75175 2.79383 9.45447 2.09111C10.7101 0.834207 12.2104 1.01769 12.304 1.00084C14.3579 1.00084 16.0267 2.66215 16.0267 4.72349V11.7844C16.0267 13.8407 14.3629 15.5076 12.304 15.5076ZM12.0869 1.75598C10.4505 1.75598 9.11934 3.08715 9.11934 4.72349V11.7844C9.11934 13.4207 10.4505 14.7519 12.0869 14.7519H12.304C13.9404 14.7519 15.2715 13.4207 15.2715 11.7844V4.72349C15.2715 3.08715 13.9404 1.75598 12.304 1.75598H12.0869Z" fill="black"/>
<path d="M11.2812 20.945C11.0728 20.945 10.9036 20.7759 10.9036 20.5674V17.0201C10.9036 16.8117 11.0728 16.6426 11.2812 16.6426C11.4896 16.6426 11.6588 16.8117 11.6588 17.0201V20.5674C11.6594 20.7759 11.4903 20.945 11.2812 20.945Z" fill="black"/>
<path d="M13.1091 20.9451C12.9006 20.9451 12.7315 20.776 12.7315 20.5676V17.0197C12.7315 16.8112 12.9006 16.6421 13.1091 16.6421C13.3175 16.6421 13.4866 16.8112 13.4866 17.0197V20.5676C13.4873 20.776 13.3181 20.9451 13.1091 20.9451Z" fill="black"/>
<path d="M15.4276 23.0003H8.96332C8.75488 23.0003 8.58575 22.8312 8.58575 22.6227C8.58575 21.2816 9.67665 20.1907 11.0178 20.1907H13.3737C14.7149 20.1907 15.8058 21.2816 15.8058 22.6227C15.8051 22.8312 15.6366 23.0003 15.4276 23.0003ZM9.38333 22.2452H15.0069C14.8353 21.5019 14.1676 20.9458 13.3731 20.9458H11.0172C10.2227 20.9458 9.55558 21.5019 9.38333 22.2452Z" fill="black"/>
<path d="M6.71226 13.8375C6.40209 13.1036 6.2442 12.3241 6.2442 11.5209C6.2442 11.3124 6.41333 11.1433 6.62177 11.1433C6.83022 11.1433 6.99934 11.3124 6.99934 11.5209C6.99934 14.4241 9.40144 16.8087 12.3714 16.7139C15.1867 16.6203 17.3916 14.3392 17.3916 11.5209C17.3916 11.3124 17.5607 11.1433 17.7691 11.1433C17.9776 11.1433 18.1467 11.3124 18.1467 11.5209C18.1467 13.9149 16.7319 16.0024 14.6425 16.9473C11.6001 18.3209 8.01285 16.9161 6.71226 13.8375Z" fill="black"/>
<path d="M15.6491 8.63209H8.7411C8.53265 8.63209 8.36353 8.46297 8.36353 8.25452C8.36353 8.04608 8.53265 7.87695 8.7411 7.87695H15.6491C15.8575 7.87695 16.0266 8.04608 16.0266 8.25452C16.0273 8.46297 15.8581 8.63209 15.6491 8.63209Z" fill="black"/>
<path d="M10.5372 10.1694H8.7411C8.53265 10.1694 8.36353 10.0003 8.36353 9.79188C8.36353 9.58343 8.53265 9.41431 8.7411 9.41431H10.5372C10.7457 9.41431 10.9148 9.58343 10.9148 9.79188C10.9148 10.0003 10.7457 10.1694 10.5372 10.1694Z" fill="black"/>
<path d="M10.5372 11.6196H8.7411C8.53265 11.6196 8.36353 11.4505 8.36353 11.2421C8.36353 11.0336 8.53265 10.8645 8.7411 10.8645H10.5372C10.7457 10.8645 10.9148 11.0336 10.9148 11.2421C10.9148 11.4505 10.7457 11.6196 10.5372 11.6196Z" fill="black"/>
<path d="M15.6491 10.1694H13.853C13.6445 10.1694 13.4754 10.0003 13.4754 9.79188C13.4754 9.58343 13.6445 9.41431 13.853 9.41431H15.6491C15.8575 9.41431 16.0267 9.58343 16.0267 9.79188C16.0273 10.0003 15.8582 10.1694 15.6491 10.1694Z" fill="black"/>
<path d="M15.6491 11.6196H13.853C13.6445 11.6196 13.4754 11.4505 13.4754 11.2421C13.4754 11.0336 13.6445 10.8645 13.853 10.8645H15.6491C15.8575 10.8645 16.0267 11.0336 16.0267 11.2421C16.0273 11.4505 15.8582 11.6196 15.6491 11.6196Z" fill="black"/>
<path d="M7.23151 7.6445C7.02307 7.6445 6.85394 7.47537 6.85394 7.26693V5.11634C6.85394 4.9079 7.02307 4.73877 7.23151 4.73877C7.43996 4.73877 7.60908 4.9079 7.60908 5.11634V7.26693C7.60908 7.47537 7.43996 7.6445 7.23151 7.6445Z" fill="black"/>
<path d="M5.80488 8.2817C5.59643 8.2817 5.42731 8.11257 5.42731 7.90413V4.47791C5.42731 4.26947 5.59643 4.10034 5.80488 4.10034C6.01332 4.10034 6.18245 4.26947 6.18245 4.47791V7.90413C6.18245 8.11257 6.01332 8.2817 5.80488 8.2817Z" fill="black"/>
<path d="M4.37757 9.14154C4.16913 9.14154 4 8.97241 4 8.76397V3.61903C4 3.41058 4.16913 3.24146 4.37757 3.24146C4.58601 3.24146 4.75514 3.41058 4.75514 3.61903V8.76397C4.75514 8.97241 4.58601 9.14154 4.37757 9.14154Z" fill="black"/>
<path d="M17.1594 7.6445C16.9509 7.6445 16.7818 7.47537 16.7818 7.26693V5.11634C16.7818 4.9079 16.9509 4.73877 17.1594 4.73877C17.3678 4.73877 17.5369 4.9079 17.5369 5.11634V7.26693C17.5369 7.47537 17.3678 7.6445 17.1594 7.6445Z" fill="black"/>
<path d="M18.5861 8.2817C18.3777 8.2817 18.2086 8.11257 18.2086 7.90413V4.47791C18.2086 4.26947 18.3777 4.10034 18.5861 4.10034C18.7946 4.10034 18.9637 4.26947 18.9637 4.47791V7.90413C18.9637 8.11257 18.7946 8.2817 18.5861 8.2817Z" fill="black"/>
<path d="M20.0134 9.14154C19.8049 9.14154 19.6358 8.97241 19.6358 8.76397V3.61903C19.6358 3.41058 19.8049 3.24146 20.0134 3.24146C20.2218 3.24146 20.3909 3.41058 20.3909 3.61903V8.76397C20.3909 8.97241 20.2218 9.14154 20.0134 9.14154Z" fill="black"/>
</svg>
