<svg width="24" height="24" viewBox="0 0 24 24" fill="none" xmlns="http://www.w3.org/2000/svg">
<path d="M4.74052 9.56891H5.90138C6.13962 9.56891 6.33275 9.37679 6.33275 9.1398C6.33275 8.90281 6.13962 8.71069 5.90138 8.71069H4.74052C4.50227 8.71069 4.30914 8.90281 4.30914 9.1398C4.30916 9.37679 4.50229 9.56891 4.74052 9.56891Z" fill="black"/>
<path d="M4.74052 11.501H5.90138C6.13962 11.501 6.33275 11.3089 6.33275 11.0719C6.33275 10.8349 6.13962 10.6428 5.90138 10.6428H4.74052C4.50227 10.6428 4.30914 10.8349 4.30914 11.0719C4.30916 11.3089 4.50229 11.501 4.74052 11.501Z" fill="black"/>
<path d="M20.8927 8.05151H20.4073V5.21826C20.4073 4.85313 20.2411 4.51056 19.9511 4.27842C19.6521 4.03894 19.2676 3.94801 18.8955 4.02884C18.8903 4.02996 18.885 4.03123 18.8798 4.03257L8.2504 6.76321H7.2549V5.49247C7.2549 5.25548 7.06177 5.06336 6.82352 5.06336H4.66666C4.42842 5.06336 4.23529 5.25548 4.23529 5.49247V6.76321C2.45135 6.76321 1 8.20691 1 9.98147V10.4078C1 12.1824 2.45135 13.6261 4.23529 13.6261H4.3384L5.88708 20.3781C5.93185 20.5733 6.10636 20.7117 6.30764 20.7117H8.86154C8.99281 20.7117 9.11693 20.6523 9.19879 20.5502C9.28065 20.4481 9.31131 20.3145 9.28212 20.1872L7.77723 13.6261H8.25233L18.8766 16.4416C18.9069 16.4496 18.9379 16.4543 18.9691 16.4556C18.9892 16.4565 19.0093 16.4569 19.0293 16.4569C19.3945 16.4569 19.7513 16.3151 20.016 16.0628C20.2684 15.8224 20.4073 15.5056 20.4073 15.1709V12.143H20.8928C21.441 12.143 21.9641 11.9326 22.366 11.5503C22.7748 11.1602 23 10.6442 23 10.0975C23 8.98846 22.035 8.05151 20.8927 8.05151ZM5.09804 5.92158H6.39216V6.75822H5.09804V5.92158ZM8.74006 7.52375L17.8235 5.19029V15.2743L8.74006 12.8672V7.52375ZM8.32067 19.8535H6.65169L5.22332 13.6261H6.8923L8.32067 19.8535ZM7.87732 12.7679H7.22847C7.22784 12.7679 7.22724 12.7679 7.22661 12.7679H4.67457C4.67394 12.7679 4.67334 12.7679 4.67271 12.7679H4.2353C2.92708 12.7679 1.86275 11.7092 1.86275 10.4078V9.98147C1.86275 8.68013 2.92708 7.62141 4.2353 7.62141H7.87732V12.7679ZM19.5446 15.1709C19.5446 15.2971 19.4764 15.3886 19.4192 15.4431C19.3217 15.5359 19.1819 15.5936 19.0461 15.5984L18.6863 15.503V4.96866L19.0862 4.86592C19.198 4.84371 19.3187 4.8737 19.4102 4.94695C19.4604 4.98715 19.5446 5.07587 19.5446 5.21828L19.5446 15.1709ZM21.7692 10.9305C21.5325 11.1556 21.2131 11.2848 20.8928 11.2848H20.4073V8.90971H20.8928C21.5673 8.90971 22.1372 9.45362 22.1372 10.0975C22.1372 10.4082 22.0064 10.7042 21.7692 10.9305Z" fill="black"/>
</svg>
