<svg width="24" height="24" viewBox="0 0 24 24" fill="none" xmlns="http://www.w3.org/2000/svg">
<path fill-rule="evenodd" clip-rule="evenodd" d="M4.9892 18.0442H2.87476C2.64413 18.0442 2.45709 17.857 2.45709 17.6261L2.4573 7.90273C2.4573 7.67185 2.64432 7.48462 2.87496 7.48462H4.9892C5.21984 7.48462 5.40686 7.67185 5.40686 7.90273V17.6261C5.40686 17.857 5.21984 18.0442 4.9892 18.0442ZM3.29242 17.208H4.57154V8.32085H3.29242V17.208Z" fill="black"/>
<path fill-rule="evenodd" clip-rule="evenodd" d="M10.4952 18.0436H8.38091C8.15027 18.0436 7.96326 17.8564 7.96326 17.6255V4.41811C7.96326 4.18723 8.15027 4 8.38091 4L10.4952 4.00019C10.7258 4.00019 10.9128 4.18742 10.9128 4.41832V17.6255C10.9128 17.8563 10.726 18.0436 10.4952 18.0436ZM8.79858 17.2073H10.0777V4.83625H8.79858V17.2073Z" fill="black"/>
<path fill-rule="evenodd" clip-rule="evenodd" d="M15.8758 18.0433H13.7614C13.5308 18.0433 13.3438 17.8561 13.3438 17.6252L13.3439 8.96011C13.3439 8.72922 13.531 8.54199 13.7616 8.54199H15.8758C16.1065 8.54199 16.2935 8.72922 16.2935 8.96011V17.6252C16.2935 17.8561 16.1065 18.0433 15.8758 18.0433ZM14.1791 17.2071H15.4582V9.37822H14.1791V17.2071Z" fill="black"/>
<path fill-rule="evenodd" clip-rule="evenodd" d="M21.1253 18.0433H19.0108C18.7802 18.0433 18.5931 17.856 18.5931 17.6251V4.68252C18.5931 4.45163 18.7802 4.2644 19.0108 4.2644H21.1253C21.3559 4.2644 21.5429 4.45163 21.5429 4.68252V17.6251C21.5429 17.856 21.3559 18.0433 21.1253 18.0433ZM19.4285 17.207H20.7076V5.10063H19.4285V17.207Z" fill="black"/>
<path fill-rule="evenodd" clip-rule="evenodd" d="M22.5823 20.1634H1.41766C1.18702 20.1634 1 19.9762 1 19.7453V17.6286C1 17.3977 1.18702 17.2104 1.41766 17.2104L22.5823 17.2106C22.813 17.2106 23 17.3979 23 17.6288V19.7455C23 19.9762 22.813 20.1634 22.5823 20.1634ZM1.83531 19.3272H22.1647V18.0467H1.83531V19.3272Z" fill="black"/>
</svg>
