<svg width="24" height="24" viewBox="0 0 24 24" fill="none" xmlns="http://www.w3.org/2000/svg">
<path fill-rule="evenodd" clip-rule="evenodd" d="M21.6015 22H2.39846C2.1784 22 2 21.8251 2 21.6094V2.39064C2 2.1749 2.1784 2 2.39846 2H21.6015C21.8215 2 22 2.1749 22 2.39064V21.6094C22 21.8251 21.8215 22 21.6015 22ZM2.79686 21.2188H21.2031V2.78124H2.79686V21.2188Z" fill="black"/>
<path fill-rule="evenodd" clip-rule="evenodd" d="M21.6015 12.1944H17.6008C17.3808 12.1944 17.2024 12.0195 17.2024 11.8037C17.2024 11.588 17.3808 11.4131 17.6008 11.4131H21.6015C21.8215 11.4131 21.9999 11.588 21.9999 11.8037C21.9999 12.0195 21.8215 12.1944 21.6015 12.1944Z" fill="black"/>
<path fill-rule="evenodd" clip-rule="evenodd" d="M6.3991 12.1941H2.39846C2.1784 12.1941 2 12.0192 2 11.8035C2 11.5878 2.1784 11.4128 2.39846 11.4128H6.3991C6.61916 11.4128 6.79756 11.5877 6.79756 11.8035C6.79756 12.0192 6.61916 12.1941 6.3991 12.1941Z" fill="black"/>
<path fill-rule="evenodd" clip-rule="evenodd" d="M16.0006 12.1944H7.99928C7.77923 12.1944 7.60083 12.0195 7.60083 11.8037C7.60083 11.588 7.77923 11.4131 7.99928 11.4131H16.0006C16.2206 11.4131 16.3991 11.588 16.3991 11.8037C16.3991 12.0195 16.2207 12.1944 16.0006 12.1944Z" fill="black"/>
<path fill-rule="evenodd" clip-rule="evenodd" d="M7.99931 12.1948C7.77925 12.1948 7.60086 12.0199 7.60086 11.8042V11.1119C7.60086 11.0007 7.64918 10.8948 7.7337 10.8207C7.9035 10.6718 8.00095 10.4584 8.00095 10.2353C8.00095 9.80184 7.64128 9.44925 7.19922 9.44925C6.75713 9.44925 6.39745 9.80187 6.39745 10.2353C6.39745 10.4584 6.49483 10.6718 6.66471 10.8207C6.74928 10.8948 6.79755 11.0007 6.79755 11.1119V11.8042C6.79755 12.0199 6.61915 12.1948 6.39909 12.1948C6.17904 12.1948 6.00064 12.0199 6.00064 11.8042V11.272C5.74454 10.9874 5.60059 10.6186 5.60059 10.2353C5.60059 9.37105 6.31772 8.66797 7.19924 8.66797C8.08077 8.66797 8.79791 9.37104 8.79791 10.2353C8.79791 10.6186 8.65396 10.9874 8.39786 11.272V11.8042C8.39777 12.0199 8.21936 12.1948 7.99931 12.1948Z" fill="black"/>
<path fill-rule="evenodd" clip-rule="evenodd" d="M12 22C11.7799 22 11.6015 21.8251 11.6015 21.6094V17.6856H11.4571C11.1668 17.9367 10.7907 18.0778 10.3996 18.0778C9.51812 18.0778 8.80096 17.3747 8.80096 16.5105C8.80096 15.6463 9.51812 14.9432 10.3996 14.9432C10.7906 14.9432 11.1668 15.0844 11.4571 15.3354L11.6015 15.3355V7.88166C11.6015 7.66592 11.7799 7.49102 12 7.49102H12.7061C12.8195 7.49102 12.9276 7.5384 13.0031 7.62128C13.155 7.78774 13.3726 7.88328 13.6003 7.88328C14.0424 7.88328 14.402 7.53065 14.402 7.09726C14.402 6.66384 14.0423 6.31122 13.6003 6.31122C13.3726 6.31122 13.155 6.40668 13.0031 6.57323C12.9276 6.65614 12.8195 6.70347 12.7061 6.70347L12 6.70337C11.7799 6.70337 11.6015 6.52847 11.6015 6.31273V2.39064C11.6015 2.1749 11.7799 2 12 2C12.22 2 12.3985 2.1749 12.3985 2.39064V5.92219H12.5428C12.8332 5.67111 13.2093 5.52998 13.6003 5.52998C14.4818 5.52998 15.1989 6.23306 15.1989 7.09728C15.1989 7.96152 14.4818 8.6646 13.6003 8.6646C13.2093 8.6646 12.8332 8.52348 12.5428 8.2724L12.3985 8.27235V15.7261C12.3985 15.9418 12.2201 16.1168 12 16.1168L11.2938 16.1167C11.1804 16.1167 11.0723 16.0693 10.9968 15.9864C10.8449 15.82 10.6273 15.7245 10.3997 15.7245C9.95755 15.7245 9.59792 16.0771 9.59792 16.5105C9.59792 16.9439 9.9576 17.2965 10.3997 17.2965C10.6273 17.2965 10.845 17.2011 10.9968 17.0346C11.0723 16.9517 11.1804 16.9043 11.2938 16.9043L12 16.9044C12.22 16.9044 12.3985 17.0793 12.3985 17.295V21.6094C12.3985 21.8251 12.22 22 12 22Z" fill="black"/>
<path fill-rule="evenodd" clip-rule="evenodd" d="M16.8007 14.94C15.9192 14.94 15.2021 14.2369 15.2021 13.3727C15.2021 12.9894 15.346 12.6206 15.6021 12.3359V11.8037C15.6021 11.588 15.7805 11.4131 16.0006 11.4131C16.2206 11.4131 16.399 11.588 16.399 11.8037V12.4961C16.399 12.6072 16.3507 12.7132 16.2662 12.7872C16.0963 12.9361 15.9989 13.1495 15.9989 13.3727C15.9989 13.8061 16.3586 14.1587 16.8007 14.1587C17.2428 14.1587 17.6024 13.8061 17.6024 13.3727C17.6024 13.1495 17.5051 12.9361 17.3352 12.7872C17.2507 12.7132 17.2023 12.6072 17.2023 12.4961V11.8037C17.2023 11.588 17.3808 11.4131 17.6008 11.4131C17.8209 11.4131 17.9993 11.588 17.9993 11.8037V12.3359C18.2554 12.6206 18.3993 12.9894 18.3993 13.3727C18.3993 14.2369 17.6822 14.94 16.8007 14.94Z" fill="black"/>
</svg>
