<svg width="24" height="24" viewBox="0 0 24 24" fill="none" xmlns="http://www.w3.org/2000/svg">
<path fill-rule="evenodd" clip-rule="evenodd" d="M16.6155 23H6.43176C5.64237 23 5 22.3597 5 21.5729V2.42706C5 1.64027 5.64237 1 6.43176 1H16.6155C17.4049 1 18.0473 1.6402 18.0473 2.42706V21.5735C18.0467 22.3603 17.4049 23 16.6155 23ZM6.43176 1.75523C6.0603 1.75523 5.75784 2.05669 5.75784 2.42693V21.5733C5.75784 21.9435 6.0603 22.245 6.43176 22.245L16.6155 22.2452C16.987 22.2452 17.2894 21.9438 17.2894 21.5736V2.42706C17.2894 2.05682 16.987 1.75535 16.6155 1.75535L6.43176 1.75523Z" fill="black"/>
<path fill-rule="evenodd" clip-rule="evenodd" d="M13.271 3.74214H9.77643C9.10699 3.74214 8.56964 3.23372 8.40886 2.44693L8.20512 1.4535C8.16326 1.24888 8.29547 1.04969 8.50064 1.00796C8.70594 0.966234 8.90578 1.09801 8.94765 1.30251L9.15139 2.29593C9.18436 2.45812 9.32799 2.98731 9.77695 2.98731H13.2713C13.7203 2.98731 13.8634 2.45812 13.8969 2.29593L14.1006 1.30251C14.1425 1.09788 14.3424 0.966234 14.5477 1.00796C14.7529 1.04969 14.885 1.24939 14.8432 1.4535L14.6394 2.44693C14.4773 3.23353 13.9405 3.74214 13.271 3.74214Z" fill="black"/>
<path fill-rule="evenodd" clip-rule="evenodd" d="M17.6678 20.2507H5.37892C5.16966 20.2507 5 20.0816 5 19.873C5 19.6645 5.16966 19.4954 5.37892 19.4954L17.6683 19.4956C17.8776 19.4956 18.0472 19.6647 18.0472 19.8732C18.0472 20.0817 17.8776 20.2507 17.6678 20.2507Z" fill="black"/>
<path fill-rule="evenodd" clip-rule="evenodd" d="M12.7663 21.6255H10.2807C10.0714 21.6255 9.90173 21.4564 9.90173 21.2478C9.90173 21.0392 10.0714 20.8701 10.2807 20.8701L12.7663 20.8703C12.9755 20.8703 13.1452 21.0394 13.1452 21.248C13.1452 21.4566 12.9753 21.6255 12.7663 21.6255Z" fill="black"/>
</svg>
