<svg width="23" height="20" viewBox="0 0 23 20" fill="none" xmlns="http://www.w3.org/2000/svg">
<g clip-path="url(#clip0_1424_149)">
<path d="M11.11 14.1301C11.11 14.1301 11.11 16.4001 11.11 16.4501C11.04 17.8501 9.88999 18.9601 8.49 18.9601C7.39999 18.9601 6.41 18.2701 6.03 17.2501C6 17.1701 5.93 17.1101 5.85 17.0901C4.28 16.6901 3.18 15.2801 3.18 13.6501C3.18 13.4601 3.19 13.2601 3.23 13.0701C3.25 12.9401 3.17 12.8101 3.04 12.7701C1.47 12.3701 0.369995 10.9501 0.369995 9.33012C0.369995 7.71012 1.46 6.30012 3.02 5.90012C3.15 5.87012 3.24 5.74012 3.21 5.60012C3.19 5.44012 3.17 5.28012 3.17 5.11012C3.17 3.36012 4.42 1.89012 6.15 1.61012C6.22 1.60012 6.28 1.56012 6.32 1.50012C6.81 0.790117 7.61999 0.370117 8.47999 0.370117C9.88999 0.370117 11.03 1.48012 11.1 2.87012C11.1 2.91012 11.1 16.3401 11.1 16.3401" stroke="black" stroke-width="0.75" stroke-miterlimit="10"/>
<path d="M7.91001 4.22005C8.44021 4.22005 8.87001 3.79024 8.87001 3.26005C8.87001 2.72986 8.44021 2.30005 7.91001 2.30005C7.37982 2.30005 6.95001 2.72986 6.95001 3.26005C6.95001 3.79024 7.37982 4.22005 7.91001 4.22005Z" stroke="black" stroke-width="0.75" stroke-miterlimit="10"/>
<path d="M11.3 5.25008L9.15997 5.26008L8.21997 4.08008" stroke="black" stroke-width="0.75" stroke-miterlimit="10"/>
<path d="M5.52 6.75008C6.05019 6.75008 6.48 6.32027 6.48 5.79008C6.48 5.25988 6.05019 4.83008 5.52 4.83008C4.9898 4.83008 4.56 5.25988 4.56 5.79008C4.56 6.32027 4.9898 6.75008 5.52 6.75008Z" stroke="black" stroke-width="0.75" stroke-miterlimit="10"/>
<path d="M4.34 10.63C4.8702 10.63 5.3 10.2002 5.3 9.66996C5.3 9.13977 4.8702 8.70996 4.34 8.70996C3.80981 8.70996 3.38 9.13977 3.38 9.66996C3.38 10.2002 3.80981 10.63 4.34 10.63Z" stroke="black" stroke-width="0.75" stroke-miterlimit="10"/>
<path d="M11.12 7.74006H6.90997L5.96997 6.56006" stroke="black" stroke-width="0.75" stroke-miterlimit="10"/>
<path d="M7.88999 17.0201C8.42019 17.0201 8.84999 16.5903 8.84999 16.0601C8.84999 15.5299 8.42019 15.1001 7.88999 15.1001C7.3598 15.1001 6.92999 15.5299 6.92999 16.0601C6.92999 16.5903 7.3598 17.0201 7.88999 17.0201Z" stroke="black" stroke-width="0.75" stroke-miterlimit="10"/>
<path d="M11.28 14.0801L9.14001 14.0601L8.20001 15.2501" stroke="black" stroke-width="0.75" stroke-miterlimit="10"/>
<path d="M5.49998 14.4901C6.03017 14.4901 6.45998 14.0603 6.45998 13.5301C6.45998 12.9999 6.03017 12.5701 5.49998 12.5701C4.96978 12.5701 4.53998 12.9999 4.53998 13.5301C4.53998 14.0603 4.96978 14.4901 5.49998 14.4901Z" stroke="black" stroke-width="0.75" stroke-miterlimit="10"/>
<path d="M11.1 11.5801H6.89001L5.95001 12.7701" stroke="black" stroke-width="0.75" stroke-miterlimit="10"/>
<path d="M11.3 9.66992H5.29999" stroke="black" stroke-width="0.75" stroke-miterlimit="10"/>
<path d="M11.21 16.3401C11.21 16.3401 11.21 2.91012 11.21 2.87012C11.28 1.48012 12.43 0.370117 13.83 0.370117C14.69 0.370117 15.5 0.790117 15.99 1.50012C16.03 1.56012 16.09 1.60012 16.16 1.61012C17.88 1.89012 19.14 3.36012 19.14 5.11012C19.14 5.28012 19.13 5.45012 19.1 5.60012C19.08 5.73012 19.16 5.86012 19.29 5.90012C20.85 6.30012 21.94 7.72012 21.94 9.33012C21.94 10.9401 20.84 12.3601 19.27 12.7701C19.14 12.8101 19.05 12.9401 19.08 13.0701C19.11 13.2601 19.13 13.4501 19.13 13.6501C19.13 15.2801 18.03 16.6901 16.46 17.0901C16.37 17.1101 16.3 17.1701 16.28 17.2501C15.9 18.2701 14.91 18.9601 13.82 18.9601C12.41 18.9601 11.27 17.8501 11.2 16.4501C11.2 16.4001 11.2 14.1301 11.2 14.1301" stroke="black" stroke-width="0.75" stroke-miterlimit="10"/>
<path d="M14.41 4.22005C14.9402 4.22005 15.37 3.79024 15.37 3.26005C15.37 2.72986 14.9402 2.30005 14.41 2.30005C13.8798 2.30005 13.45 2.72986 13.45 3.26005C13.45 3.79024 13.8798 4.22005 14.41 4.22005Z" stroke="black" stroke-width="0.75" stroke-miterlimit="10"/>
<path d="M11.02 5.25008L13.16 5.26008L14.1 4.08008" stroke="black" stroke-width="0.75" stroke-miterlimit="10"/>
<path d="M16.8 6.75008C17.3302 6.75008 17.76 6.32027 17.76 5.79008C17.76 5.25988 17.3302 4.83008 16.8 4.83008C16.2698 4.83008 15.84 5.25988 15.84 5.79008C15.84 6.32027 16.2698 6.75008 16.8 6.75008Z" stroke="black" stroke-width="0.75" stroke-miterlimit="10"/>
<path d="M17.98 10.63C18.5102 10.63 18.94 10.2002 18.94 9.66996C18.94 9.13977 18.5102 8.70996 17.98 8.70996C17.4498 8.70996 17.02 9.13977 17.02 9.66996C17.02 10.2002 17.4498 10.63 17.98 10.63Z" stroke="black" stroke-width="0.75" stroke-miterlimit="10"/>
<path d="M11.2 7.74006H15.41L16.35 6.56006" stroke="black" stroke-width="0.75" stroke-miterlimit="10"/>
<path d="M14.43 17.0201C14.9602 17.0201 15.39 16.5903 15.39 16.0601C15.39 15.5299 14.9602 15.1001 14.43 15.1001C13.8998 15.1001 13.47 15.5299 13.47 16.0601C13.47 16.5903 13.8998 17.0201 14.43 17.0201Z" stroke="black" stroke-width="0.75" stroke-miterlimit="10"/>
<path d="M11.04 14.0801L13.18 14.0601L14.12 15.2501" stroke="black" stroke-width="0.75" stroke-miterlimit="10"/>
<path d="M16.82 14.4901C17.3502 14.4901 17.78 14.0603 17.78 13.5301C17.78 12.9999 17.3502 12.5701 16.82 12.5701C16.2898 12.5701 15.86 12.9999 15.86 13.5301C15.86 14.0603 16.2898 14.4901 16.82 14.4901Z" stroke="black" stroke-width="0.75" stroke-miterlimit="10"/>
<path d="M11.22 11.5801H15.43L16.37 12.7701" stroke="black" stroke-width="0.75" stroke-miterlimit="10"/>
<path d="M11.02 9.66992H17.02" stroke="black" stroke-width="0.75" stroke-miterlimit="10"/>
</g>
<defs>
<clipPath id="clip0_1424_149">
<rect width="22.32" height="19.34" fill="white"/>
</clipPath>
</defs>
</svg>
