<svg width="21" height="20" viewBox="0 0 21 20" fill="none" xmlns="http://www.w3.org/2000/svg">
<g clip-path="url(#clip0_1424_151)">
<path d="M16.56 9.65008V18.0501C16.56 18.6001 16.11 19.0501 15.56 19.0501H1.38C0.830005 19.0501 0.380005 18.6001 0.380005 18.0501V4.56008C0.380005 4.01008 0.830005 3.56008 1.38 3.56008H10.32M16.56 7.78008V4.56008C16.56 4.01008 16.11 3.56008 15.56 3.56008H12.29M5.09 8.19008L3.66001 8.72008L5.09 9.25008C7.72001 10.2201 9.79001 12.3001 10.77 14.9301L11.3 16.3601L11.83 14.9301C12.8 12.3001 14.88 10.2301 17.51 9.25008L18.94 8.72008L17.51 8.19008C14.88 7.22008 12.81 5.14008 11.83 2.51008L11.3 1.08008L10.77 2.51008C9.80001 5.14008 7.72001 7.21008 5.09 8.19008ZM2.47001 14.3901C3.72001 14.8501 4.71 15.8401 5.17 17.0901C5.63 15.8401 6.62 14.8501 7.87 14.3901C6.62 13.9301 5.63 12.9401 5.17 11.6901C4.71 12.9401 3.72001 13.9301 2.47001 14.3901Z" stroke="black" stroke-width="0.75" stroke-miterlimit="10"/>
</g>
<defs>
<clipPath id="clip0_1424_151">
<rect width="20.02" height="19.42" fill="white"/>
</clipPath>
</defs>
</svg>
