<svg width="23" height="23" viewBox="0 0 23 23" fill="none" xmlns="http://www.w3.org/2000/svg">
<g clip-path="url(#clip0_1424_153)">
<path d="M3.88 14.0499H1.38C0.830005 14.0499 0.380005 13.5999 0.380005 13.0499V1.37988C0.380005 0.819883 0.820005 0.379883 1.38 0.379883H21.53C22.08 0.379883 22.53 0.829883 22.53 1.37988V13.0499C22.53 13.5999 22.08 14.0499 21.53 14.0499H11.55" stroke="black" stroke-width="0.75" stroke-miterlimit="10"/>
<path d="M2.08002 3.56006H20.71" stroke="black" stroke-width="0.75" stroke-miterlimit="10"/>
<path d="M2.08002 7.12012H20.71" stroke="black" stroke-width="0.75" stroke-miterlimit="10"/>
<path d="M2.08002 10.6899H20.71" stroke="black" stroke-width="0.75" stroke-miterlimit="10"/>
<path d="M18.93 11.9899V9.38989" stroke="black" stroke-width="0.75" stroke-miterlimit="10"/>
<path d="M4.35004 8.43007V5.82007" stroke="black" stroke-width="0.75" stroke-miterlimit="10"/>
<path d="M13.87 4.86001V2.26001" stroke="black" stroke-width="0.75" stroke-miterlimit="10"/>
<path d="M6.93998 22.25L6.07998 22.1C5.80998 22.06 5.61998 21.82 5.61998 21.55V20.72C5.35998 20.59 5.09998 20.42 4.86998 20.23L4.11998 20.6C3.87998 20.72 3.57998 20.65 3.42998 20.42L2.92998 19.7C2.76998 19.48 2.79998 19.18 2.99998 18.99L3.59998 18.41C3.49998 18.12 3.42998 17.82 3.39998 17.52L2.60998 17.25C2.34998 17.16 2.19998 16.9 2.24998 16.64L2.39998 15.78C2.44998 15.51 2.67998 15.32 2.94998 15.33H3.77998C3.90998 15.07 4.07998 14.81 4.26998 14.57L3.89998 13.82C3.77998 13.58 3.84998 13.28 4.07998 13.13L4.79998 12.63C5.01998 12.47 5.31998 12.5 5.50998 12.7L6.08998 13.3C6.37998 13.2 6.67998 13.13 6.97998 13.1L7.24998 12.31C7.33998 12.05 7.59998 11.9 7.85998 11.95L8.71998 12.1C8.98998 12.15 9.17998 12.38 9.16998 12.65V13.48C9.42998 13.61 9.68998 13.78 9.92998 13.97L10.68 13.6C10.92 13.48 11.22 13.55 11.37 13.78L11.87 14.49C12.03 14.71 12 15.01 11.8 15.2L11.2 15.78C11.3 16.07 11.37 16.37 11.4 16.67L12.19 16.94C12.45 17.03 12.6 17.29 12.55 17.55L12.4 18.41C12.35 18.68 12.12 18.87 11.85 18.86H11.02C10.89 19.12 10.72 19.38 10.53 19.62L10.9 20.37C11.02 20.61 10.95 20.91 10.72 21.06L10.01 21.56C9.78998 21.72 9.48998 21.69 9.29998 21.49L8.71998 20.89C8.42998 20.99 8.12998 21.06 7.82998 21.09L7.55998 21.88C7.46998 22.14 7.20998 22.29 6.94998 22.24L6.93998 22.25Z" stroke="black" stroke-width="0.75" stroke-miterlimit="10"/>
<path d="M7.38 18.7899C8.31336 18.7899 9.07 18.0333 9.07 17.0999C9.07 16.1666 8.31336 15.4099 7.38 15.4099C6.44664 15.4099 5.69 16.1666 5.69 17.0999C5.69 18.0333 6.44664 18.7899 7.38 18.7899Z" stroke="black" stroke-width="0.75" stroke-miterlimit="10"/>
</g>
<defs>
<clipPath id="clip0_1424_153">
<rect width="22.9" height="22.63" fill="white"/>
</clipPath>
</defs>
</svg>
