<svg width="24" height="24" viewBox="0 0 24 24" fill="none" xmlns="http://www.w3.org/2000/svg">
<path fill-rule="evenodd" clip-rule="evenodd" d="M17.7085 19.3539L4.75728 6.4045L4.81371 6.33066L5.30331 5.84L18.2686 18.8022L17.7831 19.297L17.7085 19.3539Z" fill="black"/>
<path d="M7.72175 22.1306C2.16166 19.7788 -0.505765 13.3373 1.86965 7.71984C4.22446 2.15417 10.6718 -0.502653 16.2837 1.86909C20.2827 3.56025 23 7.49651 23 11.9998C23 13.4839 22.7092 14.9236 22.1358 16.2798C19.7835 21.8386 13.3405 24.5054 7.72175 22.1306ZM12.0027 1.75992C6.35528 1.75992 1.76045 6.35369 1.76045 11.9998C1.76045 17.646 6.35528 22.2397 12.0027 22.2397C17.6502 22.2397 22.245 17.646 22.245 11.9998C22.245 6.35369 17.6502 1.75992 12.0027 1.75992Z" fill="black"/>
<path d="M2.88939 11.977C2.88939 17.0948 7.03872 21.2207 12.1352 21.2207C14.2547 21.2207 16.2165 20.5066 17.7831 19.297L17.2412 18.7553C15.8193 19.8287 14.0503 20.4659 12.1352 20.4659C7.45365 20.4659 3.64501 16.6581 3.64501 11.9776C3.64501 10.063 4.28232 8.29445 5.35599 6.87281L4.81371 6.33066C3.60274 7.89883 2.88939 9.86144 2.88939 11.977Z" fill="black"/>
<path d="M18.9171 17.0798L19.4608 17.6234C19.882 17.0494 20.239 16.424 20.521 15.7574C21.5174 13.4018 21.4638 10.7887 20.521 8.56105C18.5231 3.83503 13.0715 1.66728 8.40309 3.64228C7.73592 3.92427 7.11046 4.28123 6.53656 4.70213L7.081 5.24644C8.4701 4.25525 10.1692 3.67159 12.0021 3.67159C16.6836 3.67159 20.4923 7.47936 20.4923 12.1598C20.4923 13.9923 19.9085 15.691 18.9171 17.0798Z" fill="black"/>
<path fill-rule="evenodd" clip-rule="evenodd" d="M19.3085 17.8116L6.26468 4.92795L6.53656 4.70213L6.88814 4.4566L19.7709 17.1736L19.4608 17.6234L19.3085 17.8116Z" fill="black"/>
</svg>
