<svg width="24" height="24" viewBox="0 0 24 24" fill="none" xmlns="http://www.w3.org/2000/svg">
<path d="M16.0184 18H4.97783C3.90696 18 2.90019 17.583 2.14296 16.8257C1.38575 16.0685 0.96875 15.0618 0.96875 13.9909C0.96875 12.92 1.38576 11.9133 2.14297 11.1561C2.85683 10.4422 3.79245 10.0307 4.79454 9.98593C4.83931 8.98387 5.25084 8.04825 5.96473 7.33437C6.72196 6.57716 7.72871 6.16016 8.79954 6.16016C9.35043 6.16016 9.88422 6.26997 10.3861 6.48653C11.3273 6.89252 12.0727 7.64033 12.4769 8.57052C12.6975 8.52066 12.9234 8.49552 13.1521 8.49552C13.7408 8.49552 14.3124 8.66352 14.8051 8.98135C15.2044 9.23887 15.5365 9.58385 15.7775 9.98905C15.8579 9.98426 15.9383 9.98185 16.0184 9.98185C17.0893 9.98185 18.096 10.3989 18.8532 11.1561C19.6104 11.9133 20.0275 12.9201 20.0275 13.9909C20.0275 14.2282 20.0065 14.4665 19.9652 14.6992C19.8018 15.6142 19.3191 16.4501 18.6059 17.0533C17.8839 17.6638 16.965 18 16.0184 18ZM4.97185 10.7812C3.20464 10.7843 1.76807 12.223 1.76807 13.9909C1.76807 15.7608 3.20796 17.2007 4.97783 17.2007H16.0183C17.5761 17.2007 18.905 16.0897 19.1782 14.559C19.2113 14.3727 19.2281 14.1814 19.2281 13.9909C19.2281 12.2211 17.7882 10.7812 16.0183 10.7812C15.8797 10.7812 15.7395 10.7902 15.6017 10.808C15.4301 10.8301 15.2637 10.7394 15.1895 10.5832C14.8176 9.80055 14.0178 9.29486 13.1521 9.29486C12.8842 9.29486 12.6219 9.34142 12.3725 9.43323C12.2704 9.47079 12.1574 9.46514 12.0596 9.41757C11.9617 9.36997 11.8876 9.28458 11.8541 9.18107C11.5699 8.30173 10.9195 7.58713 10.0694 7.22049C9.66808 7.04731 9.24084 6.9595 8.79951 6.9595C7.03158 6.9595 5.59291 8.39608 5.58975 10.1633L5.59639 10.3759C5.59983 10.4862 5.55754 10.593 5.47952 10.671C5.4015 10.749 5.29462 10.7912 5.18445 10.7878L4.97185 10.7812Z" fill="black"/>
<path d="M19.1309 16.2191C18.9173 16.2191 18.7401 16.0501 18.7318 15.8347C18.7234 15.6142 18.8954 15.4285 19.1159 15.4201C20.8457 15.354 22.2007 13.9451 22.2007 12.2127C22.2007 10.4427 20.7608 9.00279 18.9909 9.00279C18.8532 9.00279 18.7129 9.01185 18.5741 9.02971C18.4026 9.05175 18.2364 8.96104 18.1622 8.80488C17.7902 8.02234 16.9905 7.51669 16.1248 7.51669C15.8568 7.51669 15.5945 7.56325 15.3451 7.65505C15.243 7.69263 15.13 7.687 15.0322 7.63941C14.9343 7.59181 14.8601 7.50641 14.8267 7.4029C14.3973 6.07403 13.1697 5.18118 11.7721 5.18118C10.6398 5.18118 9.5792 5.78814 9.00418 6.76519C8.89222 6.95541 8.64725 7.01886 8.45702 6.90691C8.26679 6.79496 8.20334 6.54999 8.31531 6.35975C8.66318 5.76867 9.16007 5.27332 9.75229 4.92725C10.3629 4.57042 11.0613 4.38184 11.7721 4.38184C12.6368 4.38184 13.4604 4.65292 14.1537 5.16577C14.4871 5.41238 14.7793 5.70778 15.0223 6.04378C15.1919 6.27823 15.3348 6.52889 15.4494 6.79236C15.67 6.7425 15.8959 6.71735 16.1248 6.71735C16.7134 6.71735 17.285 6.88533 17.7778 7.20315C18.177 7.46063 18.5091 7.80557 18.7501 8.21071C18.8307 8.20588 18.9111 8.20344 18.9909 8.20344C20.0618 8.20344 21.0686 8.62048 21.8258 9.37775C22.583 10.135 23 11.1418 23 12.2127C23 13.2564 22.6011 14.2448 21.8766 14.9958C21.1542 15.7448 20.1846 16.1791 19.1465 16.2188C19.1413 16.219 19.1361 16.2191 19.1309 16.2191Z" fill="black"/>
</svg>
